<svg width="42" height="70" viewBox="0 0 42 70" fill="none" xmlns="http://www.w3.org/2000/svg">
<rect width="36" height="36.2587" transform="matrix(-1 0 0 1 38.491 33.7413)" fill="#F0D496"/>
<path d="M40.1371 39.7785L39.8951 38.3978C39.3804 35.4602 36.7391 33.3795 33.7627 33.5668L30.991 33.7413L23.991 33.2377H18.991H11.991H5.24767C5.07683 33.2377 4.90624 33.2246 4.73742 33.1984L2.68728 32.8802C2.15391 32.7974 1.64508 33.1338 1.5124 33.657C1.49818 33.7131 1.48863 33.7703 1.48386 33.828L1.00445 39.6222C0.995537 39.7299 1.00002 39.8384 1.01779 39.945L1.29306 41.5966C1.4264 42.3966 2.52001 42.5304 2.84229 41.7861C3.10911 41.17 3.96529 41.1239 4.29663 41.7079L5.28825 43.4558C5.42175 43.6911 5.50096 43.9532 5.5201 44.2231L5.87383 49.2109C5.95166 50.3083 6.16588 51.3918 6.51155 52.4362L7.20491 54.5313C7.39309 55.0999 7.71066 55.617 8.13265 56.042L8.27337 56.1838C9.30958 57.2274 10.879 57.5305 12.2293 56.9476C13.0415 56.597 13.695 55.9579 14.0635 55.1536L16.491 49.8563L17.6567 46.8038C18.3706 44.9342 20.5443 44.0918 22.3316 44.9919L22.4036 45.0281C23.3921 45.5259 24.057 46.4949 24.1659 47.5963L24.599 51.9774C24.824 54.253 27.9578 54.6848 28.7897 52.5547L29.8415 49.8621C30.4974 48.1828 32.991 48.6525 32.991 50.4553C32.991 52.3747 35.7297 52.717 36.2021 50.8567L37.7909 44.6011C37.9208 44.0897 38.2132 43.6342 38.6241 43.3031L38.8939 43.0857C39.8793 42.2917 40.3554 41.025 40.1371 39.7785Z" fill="#EAC167" stroke="#EAC167" stroke-width="2"/>
<g filter="url(#filter0_d_190_4428)">
<path d="M25.4464 27.1682L26.2458 26.2794C28.3031 23.9922 29.2697 20.9065 28.6284 17.8886C27.2566 11.4327 24.1692 0.810854 18.8035 1.54789C13.6244 2.2593 11.5978 12.8289 10.8662 18.7407C10.5537 21.2663 11.3578 23.7727 12.9275 25.7672L13.7242 26.7795C15.1825 28.6324 17.4014 29.7127 19.7489 29.7127C21.9195 29.7127 23.989 28.7884 25.4464 27.1682Z" fill="#BB8F16"/>
</g>
<g filter="url(#filter1_d_190_4428)">
<path d="M24.0546 26.888L24.6312 26.2532C26.115 24.6194 26.8121 22.4153 26.3496 20.2597C25.3602 15.6483 23.1335 8.06132 19.2637 8.58778C15.5283 9.09593 14.0667 16.6456 13.5391 20.8683C13.3137 22.6723 13.8936 24.4626 15.0257 25.8873L15.6003 26.6104C16.6521 27.9339 18.2524 28.7055 19.9454 28.7055C21.511 28.7055 23.0035 28.0453 24.0546 26.888Z" fill="#E6B632"/>
</g>
<g filter="url(#filter2_d_190_4428)">
<path d="M23.4286 1.77297C22.1401 0.572078 20.5119 -0.21183 18.6005 0.0507245C16.7914 0.299356 15.3793 1.39892 14.3055 2.7654C13.2354 4.12734 12.407 5.86844 11.7567 7.68035C10.4541 11.3098 9.74798 15.5623 9.3778 18.5538C9.01009 21.5256 9.96087 24.4301 11.7518 26.7057L12.5487 27.7178C14.2915 29.9322 16.9434 31.2233 19.7489 31.2233C22.3431 31.2233 24.8168 30.1184 26.5585 28.1821L27.3573 27.2939C29.7027 24.6864 30.8485 21.1156 30.0956 17.5722C29.4029 14.3124 28.2579 9.90065 26.5643 6.36432C25.7202 4.6018 24.6911 2.94972 23.4286 1.77297ZM19.0067 3.04474C19.7779 2.93893 20.5483 3.20603 21.3905 3.99094C22.2587 4.80019 23.0932 6.0697 23.8631 7.6774C25.3976 10.8816 26.4829 15.0087 27.162 18.2046C27.6915 20.6969 26.9036 23.2979 25.1346 25.2648L24.3348 26.1539C23.1618 27.458 21.496 28.2017 19.7489 28.2017C17.8594 28.2017 16.073 27.3325 14.8993 25.8412L14.1034 24.8291C12.7549 23.1157 12.0971 21.0069 12.3544 18.9276C12.7157 16.0073 13.3896 12.0184 14.578 8.7072C15.1731 7.04907 15.8678 5.64467 16.6571 4.6401C17.4428 3.64018 18.2265 3.15191 19.0067 3.04474Z" fill="#AF7227"/>
</g>
<defs>
<filter id="filter0_d_190_4428" x="6.79962" y="1.51147" width="26.0249" height="37.2012" filterUnits="userSpaceOnUse" color-interpolation-filters="sRGB">
<feFlood flood-opacity="0" result="BackgroundImageFix"/>
<feColorMatrix in="SourceAlpha" type="matrix" values="0 0 0 0 0 0 0 0 0 0 0 0 0 0 0 0 0 0 127 0" result="hardAlpha"/>
<feOffset dy="5"/>
<feGaussianBlur stdDeviation="2"/>
<feComposite in2="hardAlpha" operator="out"/>
<feColorMatrix type="matrix" values="0 0 0 0 0.686275 0 0 0 0 0.447059 0 0 0 0 0.152941 0 0 0 0.5 0"/>
<feBlend mode="normal" in2="BackgroundImageFix" result="effect1_dropShadow_190_4428"/>
<feBlend mode="normal" in="SourceGraphic" in2="effect1_dropShadow_190_4428" result="shape"/>
</filter>
<filter id="filter1_d_190_4428" x="9.49103" y="8.56177" width="21" height="29.1437" filterUnits="userSpaceOnUse" color-interpolation-filters="sRGB">
<feFlood flood-opacity="0" result="BackgroundImageFix"/>
<feColorMatrix in="SourceAlpha" type="matrix" values="0 0 0 0 0 0 0 0 0 0 0 0 0 0 0 0 0 0 127 0" result="hardAlpha"/>
<feOffset dy="5"/>
<feGaussianBlur stdDeviation="2"/>
<feComposite in2="hardAlpha" operator="out"/>
<feColorMatrix type="matrix" values="0 0 0 0 0.686275 0 0 0 0 0.447059 0 0 0 0 0.152941 0 0 0 0.5 0"/>
<feBlend mode="normal" in2="BackgroundImageFix" result="effect1_dropShadow_190_4428"/>
<feBlend mode="normal" in="SourceGraphic" in2="effect1_dropShadow_190_4428" result="shape"/>
</filter>
<filter id="filter2_d_190_4428" x="5.29956" y="0" width="29.0257" height="40.2233" filterUnits="userSpaceOnUse" color-interpolation-filters="sRGB">
<feFlood flood-opacity="0" result="BackgroundImageFix"/>
<feColorMatrix in="SourceAlpha" type="matrix" values="0 0 0 0 0 0 0 0 0 0 0 0 0 0 0 0 0 0 127 0" result="hardAlpha"/>
<feOffset dy="5"/>
<feGaussianBlur stdDeviation="2"/>
<feComposite in2="hardAlpha" operator="out"/>
<feColorMatrix type="matrix" values="0 0 0 0 0.686275 0 0 0 0 0.447059 0 0 0 0 0.152941 0 0 0 0.5 0"/>
<feBlend mode="normal" in2="BackgroundImageFix" result="effect1_dropShadow_190_4428"/>
<feBlend mode="normal" in="SourceGraphic" in2="effect1_dropShadow_190_4428" result="shape"/>
</filter>
</defs>
</svg>
