<svg width="42" height="70" viewBox="0 0 42 70" fill="none" xmlns="http://www.w3.org/2000/svg">
<rect x="2.71539" y="33.7413" width="36" height="36.2587" fill="#F0D496"/>
<path d="M1.0493 39.8931L1.31129 38.3978C1.82599 35.4602 4.46728 33.3795 7.44373 33.5668L10.2154 33.7413L17.2154 33.2377H22.2154H29.2154H35.9588C36.1296 33.2377 36.3002 33.2246 36.469 33.1984L38.5191 32.8802C39.0525 32.7974 39.5613 33.1338 39.694 33.657C39.7082 33.7131 39.7178 33.7703 39.7226 33.828L40.202 39.6222C40.2109 39.7299 40.2064 39.8384 40.1886 39.945L39.9134 41.5966C39.78 42.3966 38.6864 42.5304 38.3641 41.7861C38.0973 41.17 37.2411 41.1239 36.9098 41.7079L35.9182 43.4558C35.7847 43.6911 35.7055 43.9532 35.6863 44.2231L35.2154 50.8635L35.0346 52.4469C34.8051 54.4567 31.9245 54.5631 31.5473 52.5757L31.1906 50.6959C30.8677 48.9946 28.3941 49.1119 28.2336 50.836C28.0917 52.3597 26.0237 52.7113 25.3862 51.3202L24.7154 49.8563L24.0901 48.2189C23.3429 46.2621 20.6553 46.0582 19.6215 47.8798C18.5386 49.7876 15.6934 49.4505 15.0865 47.3424L14.6346 45.7728C14.3695 44.8522 13.7016 44.1012 12.8182 43.7304L10.7326 42.8552C9.43286 42.3097 7.95975 43.0941 7.68683 44.4771L7.63371 44.7462C7.1609 47.142 3.70865 47.0654 3.34248 44.6511C3.26074 44.1122 2.97991 43.6234 2.55543 43.2814L2.22194 43.0127C1.29243 42.2637 0.843284 41.0689 1.0493 39.8931Z" fill="#EAC167" stroke="#EAC167" stroke-width="2"/>
<g filter="url(#filter0_d_190_4422)">
<path d="M15.7601 27.1682L14.9606 26.2794C12.9033 23.9922 11.9368 20.9065 12.578 17.8886C13.9498 11.4327 17.0372 0.810854 22.4029 1.54789C27.582 2.2593 29.6087 12.8289 30.3402 18.7407C30.6527 21.2663 29.8487 23.7727 28.2789 25.7672L27.4822 26.7795C26.0239 28.6324 23.8051 29.7127 21.4576 29.7127C19.2869 29.7127 17.2174 28.7884 15.7601 27.1682Z" fill="#BB8F16"/>
</g>
<g filter="url(#filter1_d_190_4422)">
<path d="M17.1518 26.888L16.5752 26.2532C15.0915 24.6194 14.3944 22.4153 14.8568 20.2597C15.8462 15.6483 18.0729 8.06132 21.9428 8.58778C25.6781 9.09593 27.1397 16.6456 27.6674 20.8683C27.8928 22.6723 27.3128 24.4626 26.1807 25.8873L25.6061 26.6104C24.5543 27.9339 22.954 28.7055 21.261 28.7055C19.6954 28.7055 18.2029 28.0453 17.1518 26.888Z" fill="#E6B632"/>
</g>
<g filter="url(#filter2_d_190_4422)">
<path d="M17.7778 1.77297C19.0663 0.572078 20.6946 -0.21183 22.606 0.0507245C24.415 0.299356 25.8272 1.39892 26.9009 2.7654C27.971 4.12734 28.7994 5.86844 29.4497 7.68035C30.7523 11.3098 31.4584 15.5623 31.8286 18.5538C32.1963 21.5256 31.2456 24.4301 29.4546 26.7057L28.6577 27.7178C26.9149 29.9322 24.2631 31.2233 21.4575 31.2233C18.8634 31.2233 16.3897 30.1184 14.648 28.1821L13.8491 27.2939C11.5037 24.6864 10.3579 21.1156 11.1109 17.5722C11.8035 14.3124 12.9486 9.90065 14.6421 6.36432C15.4862 4.6018 16.5153 2.94972 17.7778 1.77297ZM22.1997 3.04474C21.4285 2.93893 20.6581 3.20603 19.8159 3.99094C18.9477 4.80019 18.1132 6.0697 17.3433 7.6774C15.8089 10.8816 14.7235 15.0087 14.0444 18.2046C13.5149 20.6969 14.3028 23.2979 16.0718 25.2648L16.8716 26.1539C18.0446 27.458 19.7104 28.2017 21.4575 28.2017C23.347 28.2017 25.1334 27.3325 26.3071 25.8412L27.103 24.8291C28.4515 23.1157 29.1093 21.0069 28.8521 18.9276C28.4907 16.0073 27.8168 12.0184 26.6284 8.7072C26.0333 7.04907 25.3386 5.64467 24.5493 4.6401C23.7637 3.64018 22.9799 3.15191 22.1997 3.04474Z" fill="#AF7227"/>
</g>
<defs>
<filter id="filter0_d_190_4422" x="8.3819" y="1.51147" width="26.0249" height="37.2012" filterUnits="userSpaceOnUse" color-interpolation-filters="sRGB">
<feFlood flood-opacity="0" result="BackgroundImageFix"/>
<feColorMatrix in="SourceAlpha" type="matrix" values="0 0 0 0 0 0 0 0 0 0 0 0 0 0 0 0 0 0 127 0" result="hardAlpha"/>
<feOffset dy="5"/>
<feGaussianBlur stdDeviation="2"/>
<feComposite in2="hardAlpha" operator="out"/>
<feColorMatrix type="matrix" values="0 0 0 0 0.686275 0 0 0 0 0.447059 0 0 0 0 0.152941 0 0 0 0.5 0"/>
<feBlend mode="normal" in2="BackgroundImageFix" result="effect1_dropShadow_190_4422"/>
<feBlend mode="normal" in="SourceGraphic" in2="effect1_dropShadow_190_4422" result="shape"/>
</filter>
<filter id="filter1_d_190_4422" x="10.7154" y="8.56177" width="21" height="29.1437" filterUnits="userSpaceOnUse" color-interpolation-filters="sRGB">
<feFlood flood-opacity="0" result="BackgroundImageFix"/>
<feColorMatrix in="SourceAlpha" type="matrix" values="0 0 0 0 0 0 0 0 0 0 0 0 0 0 0 0 0 0 127 0" result="hardAlpha"/>
<feOffset dy="5"/>
<feGaussianBlur stdDeviation="2"/>
<feComposite in2="hardAlpha" operator="out"/>
<feColorMatrix type="matrix" values="0 0 0 0 0.686275 0 0 0 0 0.447059 0 0 0 0 0.152941 0 0 0 0.5 0"/>
<feBlend mode="normal" in2="BackgroundImageFix" result="effect1_dropShadow_190_4422"/>
<feBlend mode="normal" in="SourceGraphic" in2="effect1_dropShadow_190_4422" result="shape"/>
</filter>
<filter id="filter2_d_190_4422" x="6.88116" y="0" width="29.0257" height="40.2233" filterUnits="userSpaceOnUse" color-interpolation-filters="sRGB">
<feFlood flood-opacity="0" result="BackgroundImageFix"/>
<feColorMatrix in="SourceAlpha" type="matrix" values="0 0 0 0 0 0 0 0 0 0 0 0 0 0 0 0 0 0 127 0" result="hardAlpha"/>
<feOffset dy="5"/>
<feGaussianBlur stdDeviation="2"/>
<feComposite in2="hardAlpha" operator="out"/>
<feColorMatrix type="matrix" values="0 0 0 0 0.686275 0 0 0 0 0.447059 0 0 0 0 0.152941 0 0 0 0.5 0"/>
<feBlend mode="normal" in2="BackgroundImageFix" result="effect1_dropShadow_190_4422"/>
<feBlend mode="normal" in="SourceGraphic" in2="effect1_dropShadow_190_4422" result="shape"/>
</filter>
</defs>
</svg>
