<svg width="845" height="165" viewBox="0 0 845 165" fill="none" xmlns="http://www.w3.org/2000/svg">
<path d="M95.6583 63.9876L87.4907 68.2572C83.7473 70.2141 80.3145 66.8513 80.0249 62.6373C79.966 61.7788 86.3176 58.8824 92.2038 56.4158C95.0938 55.2048 98.1896 57.5288 97.8988 60.6487C97.7663 62.0695 96.9229 63.3265 95.6583 63.9876Z" stroke="#716F6F" stroke-width="3"/>
<path d="M65.6583 78.9876L57.4907 83.2572C53.7473 85.2141 50.3145 81.8513 50.0249 77.6373C49.966 76.7788 56.3176 73.8824 62.2038 71.4158C65.0938 70.2048 68.1896 72.5288 67.8988 75.6487C67.7663 77.0695 66.9229 78.3265 65.6583 78.9876Z" stroke="#716F6F" stroke-width="3"/>
<path d="M36.6583 93.9876L28.4907 98.2572C24.7473 100.214 21.3145 96.8513 21.0249 92.6373C20.966 91.7788 27.3176 88.8824 33.2038 86.4158C36.0938 85.2048 39.1896 87.5288 38.8988 90.6487C38.7663 92.0695 37.9229 93.3265 36.6583 93.9876Z" stroke="#716F6F" stroke-width="3"/>
<path d="M86.5306 63.7499C77.3833 68.5066 63.1076 75.9302 63.1076 75.9302" stroke="#5E5E5E" stroke-width="3"/>
<path d="M87.2201 65.0911C87.5655 64.9113 87.8236 64.5983 87.9375 64.2208C88.0515 63.8434 88.012 63.4325 87.8277 63.0785C87.6435 62.7246 87.3295 62.4565 86.955 62.3334C86.5805 62.2102 86.176 62.2421 85.8306 62.4219L86.5253 63.7565L87.2201 65.0911Z" fill="#5E5E5E"/>
<path d="M62.4428 74.5836C62.1961 74.7123 62.0326 74.9756 61.988 75.3156C61.9435 75.6556 62.0217 76.0444 62.2054 76.3966C62.3891 76.7488 62.6633 77.0355 62.9675 77.1935C63.2718 77.3516 63.5814 77.3681 63.828 77.2395L63.1354 75.9115L62.4428 74.5836Z" fill="#5E5E5E"/>
<path d="M54.6022 79.4327C45.4549 84.1895 31.1791 91.613 31.1791 91.613" stroke="#5E5E5E" stroke-width="3"/>
<path d="M54.6022 79.4327C45.4549 84.1895 31.1791 91.613 31.1791 91.613" stroke="#5E5E5E" stroke-width="3"/>
<path d="M55.2917 80.774C55.6371 80.5942 55.8952 80.2811 56.0091 79.9037C56.1231 79.5263 56.0836 79.1154 55.8993 78.7614C55.7151 78.4074 55.4011 78.1394 55.0266 78.0162C54.6521 77.8931 54.2476 77.9249 53.9022 78.1047L54.5969 79.4394L55.2917 80.774Z" fill="#5E5E5E"/>
<path d="M30.5144 90.2665C30.2677 90.3951 30.1042 90.6584 30.0596 90.9984C30.0151 91.3384 30.0933 91.7273 30.277 92.0795C30.4607 92.4317 30.7348 92.7183 31.0391 92.8764C31.3434 93.0344 31.653 93.051 31.8996 92.9223L31.207 91.5944L30.5144 90.2665Z" fill="#5E5E5E"/>
<path d="M25.9784 95.064C16.5526 99.9389 1.84218 107.547 1.84218 107.547" stroke="#5E5E5E" stroke-width="3"/>
<path d="M25.9784 95.064C16.5526 99.9389 1.84218 107.547 1.84218 107.547" stroke="#5E5E5E" stroke-width="3"/>
<path d="M26.7101 96.3962C27.066 96.2119 27.3297 95.8955 27.4432 95.5167C27.5566 95.1378 27.5105 94.7274 27.315 94.3759C27.1195 94.0243 26.7906 93.7604 26.4007 93.6421C26.0108 93.5238 25.5918 93.5609 25.2359 93.7451L25.973 95.0707L26.7101 96.3962Z" fill="#5E5E5E"/>
<path d="M1.18312 106.205C0.918777 106.342 0.742225 106.611 0.692301 106.954C0.642376 107.297 0.723171 107.685 0.916909 108.033C1.11065 108.38 1.40146 108.659 1.72537 108.808C2.04929 108.957 2.37976 108.964 2.64411 108.827L1.91361 107.516L1.18312 106.205Z" fill="#5E5E5E"/>
<path d="M317.266 69.6873V55.6873C317.266 53.6162 315.588 51.9373 313.516 51.9373C311.445 51.9373 309.766 53.6162 309.766 55.6873V69.6873C309.766 71.7583 311.445 73.4373 313.516 73.4373C315.588 73.4373 317.266 71.7583 317.266 69.6873Z" stroke="#716F6F" stroke-width="3"/>
<path d="M317.266 108.687V94.6873C317.266 92.6162 315.588 90.9373 313.516 90.9373C311.445 90.9373 309.766 92.6162 309.766 94.6873V108.687C309.766 110.758 311.445 112.437 313.516 112.437C315.588 112.437 317.266 110.758 317.266 108.687Z" stroke="#716F6F" stroke-width="3"/>
<path d="M315.269 30.0207C315.264 29.6076 315.101 29.2134 314.816 28.9248C314.531 28.6362 314.146 28.4768 313.748 28.4817C313.35 28.4866 312.97 28.6554 312.692 28.951C312.414 29.2466 312.26 29.6447 312.265 30.0577L313.767 30.0392L315.269 30.0207Z" fill="#5E5E5E"/>
<path d="M312.281 56.3635C312.283 56.8142 312.442 57.2458 312.723 57.5633C313.004 57.8809 313.384 58.0583 313.779 58.0566C314.174 58.055 314.553 57.8743 314.831 57.5545C315.109 57.2346 315.265 56.8017 315.263 56.351L313.772 56.3573L312.281 56.3635Z" fill="#5E5E5E"/>
<path d="M313.766 29.9373V56.4373" stroke="#5E5E5E" stroke-width="3"/>
<path d="M314.748 71.4948C314.742 71.0818 314.582 70.6876 314.3 70.3989C314.019 70.1103 313.64 69.9509 313.248 69.9559C312.855 69.9608 312.48 70.1296 312.206 70.4251C311.932 70.7207 311.78 71.1188 311.785 71.5319L313.266 71.5133L314.748 71.4948Z" fill="#5E5E5E"/>
<path d="M311.801 97.8374C311.803 98.2881 311.959 98.7197 312.236 99.0372C312.513 99.3547 312.888 99.5322 313.278 99.5305C313.668 99.5289 314.041 99.3482 314.315 99.0284C314.59 98.7085 314.743 98.2756 314.741 97.8249L313.271 97.8311L311.801 97.8374Z" fill="#5E5E5E"/>
<path d="M313.266 71.4114V97.9114" stroke="#5E5E5E" stroke-width="3"/>
<path d="M314.748 108.495C314.742 108.082 314.582 107.688 314.3 107.399C314.019 107.11 313.64 106.951 313.248 106.956C312.855 106.961 312.48 107.13 312.206 107.425C311.932 107.721 311.78 108.119 311.785 108.532L313.266 108.513L314.748 108.495Z" fill="#5E5E5E"/>
<path d="M311.801 134.837C311.803 135.288 311.959 135.72 312.236 136.037C312.513 136.355 312.888 136.532 313.278 136.531C313.668 136.529 314.041 136.348 314.315 136.028C314.59 135.708 314.743 135.276 314.741 134.825L313.271 134.831L311.801 134.837Z" fill="#5E5E5E"/>
<path d="M313.266 108.411V134.911" stroke="#5E5E5E" stroke-width="3"/>
<path d="M534.766 69.6873V55.6873C534.766 53.6162 533.088 51.9373 531.016 51.9373C528.945 51.9373 527.266 53.6162 527.266 55.6873V69.6873C527.266 71.7583 528.945 73.4373 531.016 73.4373C533.088 73.4373 534.766 71.7583 534.766 69.6873Z" stroke="#716F6F" stroke-width="3"/>
<path d="M534.766 108.687V94.6873C534.766 92.6162 533.088 90.9373 531.016 90.9373C528.945 90.9373 527.266 92.6162 527.266 94.6873V108.687C527.266 110.758 528.945 112.437 531.016 112.437C533.088 112.437 534.766 110.758 534.766 108.687Z" stroke="#716F6F" stroke-width="3"/>
<path d="M532.769 30.0207C532.764 29.6076 532.601 29.2134 532.316 28.9248C532.031 28.6362 531.646 28.4768 531.248 28.4817C530.85 28.4866 530.47 28.6554 530.192 28.951C529.914 29.2466 529.76 29.6447 529.765 30.0577L531.267 30.0392L532.769 30.0207Z" fill="#5E5E5E"/>
<path d="M529.781 56.3635C529.783 56.8142 529.942 57.2458 530.223 57.5633C530.504 57.8809 530.884 58.0583 531.279 58.0566C531.674 58.055 532.053 57.8743 532.331 57.5545C532.609 57.2346 532.765 56.8017 532.763 56.351L531.272 56.3573L529.781 56.3635Z" fill="#5E5E5E"/>
<path d="M531.266 29.9373V56.4373" stroke="#5E5E5E" stroke-width="3"/>
<path d="M532.248 71.4948C532.242 71.0818 532.082 70.6876 531.8 70.3989C531.519 70.1103 531.14 69.9509 530.748 69.9559C530.355 69.9608 529.98 70.1296 529.706 70.4251C529.432 70.7207 529.28 71.1188 529.285 71.5319L530.766 71.5133L532.248 71.4948Z" fill="#5E5E5E"/>
<path d="M529.301 97.8374C529.303 98.2881 529.459 98.7197 529.736 99.0372C530.013 99.3547 530.388 99.5322 530.778 99.5305C531.168 99.5289 531.541 99.3482 531.815 99.0284C532.09 98.7085 532.243 98.2756 532.241 97.8249L530.771 97.8311L529.301 97.8374Z" fill="#5E5E5E"/>
<path d="M530.766 71.4114V97.9114" stroke="#5E5E5E" stroke-width="3"/>
<path d="M532.248 108.495C532.242 108.082 532.082 107.688 531.8 107.399C531.519 107.11 531.14 106.951 530.748 106.956C530.355 106.961 529.98 107.13 529.706 107.425C529.432 107.721 529.28 108.119 529.285 108.532L530.766 108.513L532.248 108.495Z" fill="#5E5E5E"/>
<path d="M529.301 134.837C529.303 135.288 529.459 135.72 529.736 136.037C530.013 136.355 530.388 136.532 530.778 136.531C531.168 136.529 531.541 136.348 531.815 136.028C532.09 135.708 532.243 135.276 532.241 134.825L530.771 134.831L529.301 134.837Z" fill="#5E5E5E"/>
<path d="M530.766 108.411V134.911" stroke="#5E5E5E" stroke-width="3"/>
<path d="M748.875 63.9876L757.042 68.2572C760.786 70.2141 764.218 66.8513 764.508 62.6373C764.567 61.7788 758.215 58.8824 752.329 56.4158C749.439 55.2048 746.343 57.5288 746.634 60.6487C746.767 62.0695 747.61 63.3265 748.875 63.9876Z" stroke="#716F6F" stroke-width="3"/>
<path d="M778.875 78.9876L787.042 83.2572C790.786 85.2141 794.218 81.8513 794.508 77.6373C794.567 76.7788 788.215 73.8824 782.329 71.4158C779.439 70.2048 776.343 72.5288 776.634 75.6487C776.767 77.0695 777.61 78.3265 778.875 78.9876Z" stroke="#716F6F" stroke-width="3"/>
<path d="M807.875 93.9876L816.042 98.2572C819.786 100.214 823.218 96.8513 823.508 92.6373C823.567 91.7788 817.215 88.8824 811.329 86.4158C808.439 85.2048 805.343 87.5288 805.634 90.6487C805.767 92.0695 806.61 93.3265 807.875 93.9876Z" stroke="#716F6F" stroke-width="3"/>
<path d="M758.002 63.7499C767.15 68.5066 781.425 75.9302 781.425 75.9302" stroke="#5E5E5E" stroke-width="3"/>
<path d="M757.313 65.0911C756.967 64.9113 756.709 64.5983 756.595 64.2208C756.481 63.8434 756.521 63.4325 756.705 63.0785C756.889 62.7246 757.203 62.4565 757.578 62.3334C757.952 62.2102 758.357 62.2421 758.702 62.4219L758.008 63.7565L757.313 65.0911Z" fill="#5E5E5E"/>
<path d="M782.09 74.5836C782.337 74.7123 782.5 74.9756 782.545 75.3156C782.589 75.6556 782.511 76.0444 782.328 76.3966C782.144 76.7488 781.87 77.0355 781.565 77.1935C781.261 77.3516 780.952 77.3681 780.705 77.2395L781.398 75.9115L782.09 74.5836Z" fill="#5E5E5E"/>
<path d="M789.931 79.4327C799.078 84.1895 813.354 91.613 813.354 91.613" stroke="#5E5E5E" stroke-width="3"/>
<path d="M789.931 79.4327C799.078 84.1895 813.354 91.613 813.354 91.613" stroke="#5E5E5E" stroke-width="3"/>
<path d="M789.241 80.774C788.896 80.5942 788.638 80.2811 788.524 79.9037C788.41 79.5263 788.449 79.1154 788.634 78.7614C788.818 78.4074 789.132 78.1394 789.506 78.0162C789.881 77.8931 790.285 77.9249 790.631 78.1047L789.936 79.4394L789.241 80.774Z" fill="#5E5E5E"/>
<path d="M814.019 90.2665C814.265 90.3951 814.429 90.6584 814.473 90.9984C814.518 91.3384 814.44 91.7273 814.256 92.0795C814.072 92.4317 813.798 92.7183 813.494 92.8764C813.189 93.0344 812.88 93.051 812.633 92.9223L813.326 91.5944L814.019 90.2665Z" fill="#5E5E5E"/>
<path d="M818.555 95.064C827.98 99.9389 842.691 107.547 842.691 107.547" stroke="#5E5E5E" stroke-width="3"/>
<path d="M818.555 95.064C827.98 99.9389 842.691 107.547 842.691 107.547" stroke="#5E5E5E" stroke-width="3"/>
<path d="M817.823 96.3962C817.467 96.2119 817.203 95.8955 817.09 95.5167C816.976 95.1378 817.022 94.7274 817.218 94.3759C817.413 94.0243 817.742 93.7604 818.132 93.6421C818.522 93.5238 818.941 93.5609 819.297 93.7451L818.56 95.0707L817.823 96.3962Z" fill="#5E5E5E"/>
<path d="M843.35 106.204C843.614 106.341 843.791 106.611 843.841 106.954C843.891 107.297 843.81 107.685 843.616 108.032C843.422 108.38 843.132 108.659 842.808 108.808C842.484 108.957 842.153 108.964 841.889 108.827L842.619 107.515L843.35 106.204Z" fill="#5E5E5E"/>
</svg>
