<svg width="43" height="70" viewBox="0 0 43 70" fill="none" xmlns="http://www.w3.org/2000/svg">
<rect x="4" y="33.7413" width="36" height="36.2587" fill="#F0D496"/>
<path d="M2 41.7988L1.87644 41.1008C1.0081 36.1952 5.56681 32.069 10.3619 33.4205C11.1149 33.6328 11.8991 33.7126 12.6794 33.6565L18.5 33.2377H23.5H30.5H37.2434C37.4142 33.2377 37.5848 33.2246 37.7536 33.1984L39.8037 32.8802C40.3371 32.7974 40.846 33.1338 40.9786 33.657C40.9929 33.7131 41.0024 33.7703 41.0072 33.828L41.4866 39.6222C41.4955 39.7299 41.491 39.8384 41.4732 39.945L41.198 41.5966C41.0646 42.3966 39.971 42.5304 39.6487 41.7861C39.3819 41.17 38.5257 41.1239 38.1944 41.708L37.2028 43.4558C37.0693 43.6911 36.9901 43.9532 36.9709 44.2231L36.6172 49.2109C36.5394 50.3083 36.3251 51.3918 35.9795 52.4362L35.2861 54.5313C35.0979 55.0999 34.7804 55.617 34.3584 56.042L34.2177 56.1838C33.1814 57.2274 31.612 57.5305 30.2617 56.9476C29.4495 56.597 28.796 55.9579 28.4275 55.1536L26 49.8563L25.3747 48.2189C24.6275 46.2621 21.94 46.0582 20.9061 47.8798C19.8233 49.7876 16.978 49.4505 16.3711 47.3424L15.9192 45.7728C15.6542 44.8522 14.9862 44.1012 14.1028 43.7304L12.3488 42.9943C10.6571 42.2844 8.70005 42.7656 7.53049 44.1792L7.27332 44.49C7.09289 44.7081 6.95741 44.9597 6.87468 45.2304C6.23084 47.3369 3.21008 47.2205 2.73025 45.0707L2 41.7988Z" fill="#EAC167" stroke="#EAC167" stroke-width="2"/>
<g filter="url(#filter0_d_190_4434)">
<path d="M17.0447 27.1682L16.2452 26.2794C14.1879 23.9922 13.2214 20.9065 13.8626 17.8886C15.2344 11.4327 18.3218 0.810854 23.6875 1.54789C28.8666 2.2593 30.8933 12.8289 31.6248 18.7407C31.9373 21.2663 31.1333 23.7727 29.5635 25.7672L28.7668 26.7795C27.3085 28.6324 25.0897 29.7127 22.7422 29.7127C20.5715 29.7127 18.502 28.7884 17.0447 27.1682Z" fill="#BB8F16"/>
</g>
<g filter="url(#filter1_d_190_4434)">
<path d="M18.4364 26.888L17.8598 26.2532C16.3761 24.6194 15.679 22.4153 16.1415 20.2597C17.1308 15.6483 19.3575 8.06132 23.2274 8.58778C26.9627 9.09593 28.4244 16.6456 28.952 20.8683C29.1774 22.6723 28.5975 24.4626 27.4653 25.8873L26.8907 26.6104C25.8389 27.9339 24.2387 28.7055 22.5456 28.7055C20.9801 28.7055 19.4875 28.0453 18.4364 26.888Z" fill="#E6B632"/>
</g>
<g filter="url(#filter2_d_190_4434)">
<path d="M19.0625 1.77297C20.3509 0.572078 21.9792 -0.21183 23.8906 0.0507245C25.6996 0.299356 27.1118 1.39892 28.1855 2.7654C29.2556 4.12734 30.084 5.86844 30.7343 7.68035C32.0369 11.3098 32.743 15.5623 33.1132 18.5538C33.4809 21.5256 32.5302 24.4301 30.7392 26.7057L29.9423 27.7178C28.1996 29.9322 25.5477 31.2233 22.7421 31.2233C20.148 31.2233 17.6743 30.1184 15.9326 28.1821L15.1337 27.2939C12.7884 24.6864 11.6426 21.1156 12.3955 17.5722C13.0881 14.3124 14.2332 9.90065 15.9267 6.36432C16.7708 4.6018 17.7999 2.94972 19.0625 1.77297ZM23.4843 3.04474C22.7131 2.93893 21.9427 3.20603 21.1005 3.99094C20.2323 4.80019 19.3978 6.0697 18.6279 7.6774C17.0935 10.8816 16.0081 15.0087 15.3291 18.2046C14.7995 20.6969 15.5874 23.2979 17.3564 25.2648L18.1562 26.1539C19.3292 27.458 20.995 28.2017 22.7421 28.2017C24.6316 28.2017 26.418 27.3325 27.5917 25.8412L28.3876 24.8291C29.7361 23.1157 30.3939 21.0069 30.1367 18.9276C29.7753 16.0073 29.1014 12.0184 27.913 8.7072C27.3179 7.04907 26.6232 5.64467 25.8339 4.6401C25.0483 3.64018 24.2645 3.15191 23.4843 3.04474Z" fill="#AF7227"/>
</g>
<defs>
<filter id="filter0_d_190_4434" x="9.6665" y="1.51147" width="26.0249" height="37.2012" filterUnits="userSpaceOnUse" color-interpolation-filters="sRGB">
<feFlood flood-opacity="0" result="BackgroundImageFix"/>
<feColorMatrix in="SourceAlpha" type="matrix" values="0 0 0 0 0 0 0 0 0 0 0 0 0 0 0 0 0 0 127 0" result="hardAlpha"/>
<feOffset dy="5"/>
<feGaussianBlur stdDeviation="2"/>
<feComposite in2="hardAlpha" operator="out"/>
<feColorMatrix type="matrix" values="0 0 0 0 0.686275 0 0 0 0 0.447059 0 0 0 0 0.152941 0 0 0 0.5 0"/>
<feBlend mode="normal" in2="BackgroundImageFix" result="effect1_dropShadow_190_4434"/>
<feBlend mode="normal" in="SourceGraphic" in2="effect1_dropShadow_190_4434" result="shape"/>
</filter>
<filter id="filter1_d_190_4434" x="12" y="8.56177" width="21" height="29.1437" filterUnits="userSpaceOnUse" color-interpolation-filters="sRGB">
<feFlood flood-opacity="0" result="BackgroundImageFix"/>
<feColorMatrix in="SourceAlpha" type="matrix" values="0 0 0 0 0 0 0 0 0 0 0 0 0 0 0 0 0 0 127 0" result="hardAlpha"/>
<feOffset dy="5"/>
<feGaussianBlur stdDeviation="2"/>
<feComposite in2="hardAlpha" operator="out"/>
<feColorMatrix type="matrix" values="0 0 0 0 0.686275 0 0 0 0 0.447059 0 0 0 0 0.152941 0 0 0 0.5 0"/>
<feBlend mode="normal" in2="BackgroundImageFix" result="effect1_dropShadow_190_4434"/>
<feBlend mode="normal" in="SourceGraphic" in2="effect1_dropShadow_190_4434" result="shape"/>
</filter>
<filter id="filter2_d_190_4434" x="8.16577" y="0" width="29.0257" height="40.2233" filterUnits="userSpaceOnUse" color-interpolation-filters="sRGB">
<feFlood flood-opacity="0" result="BackgroundImageFix"/>
<feColorMatrix in="SourceAlpha" type="matrix" values="0 0 0 0 0 0 0 0 0 0 0 0 0 0 0 0 0 0 127 0" result="hardAlpha"/>
<feOffset dy="5"/>
<feGaussianBlur stdDeviation="2"/>
<feComposite in2="hardAlpha" operator="out"/>
<feColorMatrix type="matrix" values="0 0 0 0 0.686275 0 0 0 0 0.447059 0 0 0 0 0.152941 0 0 0 0.5 0"/>
<feBlend mode="normal" in2="BackgroundImageFix" result="effect1_dropShadow_190_4434"/>
<feBlend mode="normal" in="SourceGraphic" in2="effect1_dropShadow_190_4434" result="shape"/>
</filter>
</defs>
</svg>
