<svg width="1378" height="562" viewBox="0 0 1378 562" fill="none" xmlns="http://www.w3.org/2000/svg">
<rect x="0.5" y="0.5" width="1377" height="561" rx="29.5" fill="#3D1B0A" stroke="#A67B16"/>
<rect x="1" y="156" width="1376" height="12" fill="#5E370D"/>
<path d="M1 332H1377V345H1V332Z" fill="#5E370D"/>
<rect x="1" y="514" width="1376" height="13" fill="#5E370D"/>
<path d="M72.561 345C72.8923 385.379 73.3561 466.842 72.561 469.669L1 517V345H72.561Z" fill="#2B1105"/>
<path d="M69 467L1 517L1377 514L1301 467H69Z" fill="#64280A"/>
<path d="M1299.48 345.011C1299.12 384.377 1298.61 463.799 1299.48 466.554L1377 514C1377.31 453.325 1376.72 346.179 1376.99 345.011H1377C1377 344.998 1376.99 344.998 1376.99 345.011H1299.48Z" fill="#3D1806"/>
<path d="M73.561 168C73.8923 206.864 74.3561 285.273 73.561 287.994L2 322V168H73.561Z" fill="#2B1105"/>
<path d="M70.1005 287L1.5 332.042H1376L1303.9 287H70.1005Z" fill="#64280A"/>
<path d="M1303.45 168C1303.11 206.864 1302.68 283.779 1303.5 286.5L1377 333V168H1303.45Z" fill="#3D1806"/>
<path d="M69.9999 1.5C69.9999 1.5 72.2647 114.164 71.5001 117L1.5001 157L1.50006 28.5926C1.45481 22.4835 5.04543 14.6252 9.50008 10C15.0625 4.22461 24.7628 1.51807 25.0001 1.5H69.9999Z" fill="#2B1105"/>
<path d="M1303.04 1C1303.04 1 1302.79 123.754 1303.6 126.59L1376.98 156L1376.98 28.5926C1377.03 22.4835 1372.68 13.1253 1367.93 8.50001C1362.01 2.72461 1351.19 1.01807 1350.94 1H1303.04Z" fill="#3D1806"/>
<path d="M71.0503 117L1 156.5H1377L1303.95 117H71.0503Z" fill="#64280A"/>
<g filter="url(#filter0_i_127_2085)">
<path d="M650 64.5L644 74V93L660.5 79L683 86L676 68.5L683 52.5H660.5L644 43.5L650 64.5Z" fill="#29140B"/>
</g>
<g filter="url(#filter1_i_127_2085)">
<path d="M288 220.5L266 247C280.333 240.333 309.3 226.6 310.5 225C311.7 223.4 315.333 205.667 317 197L288 220.5Z" fill="#29140B"/>
</g>
<g filter="url(#filter2_i_127_2085)">
<path d="M722 466H600.5C600.5 466 623.071 380.736 664 382.5C703.667 384.209 722 466 722 466Z" fill="#29140B"/>
</g>
<path d="M649.472 396.011L650.814 397.894C655.151 396.111 657.217 394.559 660.479 391.169L660.747 395.204C663.215 391.609 665.27 390.563 669.338 389.286L665.58 395.204C668.6 393.322 670.826 393.47 674.975 394.128L670.68 396.549C673.61 397.557 675.318 397.866 678.465 397.894C678.465 397.894 682.743 384.363 690.009 382.562C701.915 379.61 706.336 389.633 706.922 399.508C707.497 409.201 695.746 416.329 692.157 416.185C693.746 422.223 695.262 425.531 699.673 431.249L695.647 429.366C697.333 431.835 697.993 433.256 698.6 435.822L696.452 435.015C696.667 438.696 696.134 440.459 693.499 442.815C696.096 446.91 697.568 449.491 700.21 454.382C700.21 454.382 698.212 453.957 697.85 453.658C698.32 454.613 701.61 462.879 701.61 464.604C701.61 466.463 685.987 475.588 685.714 474.556C685.714 474.556 682.698 483.393 681.418 480.743C680.779 479.419 681.418 476.977 681.418 476.977C681.418 476.977 679.711 482.916 677.928 481.55C676.513 480.465 678.465 477.246 677.928 476.977C677.392 476.708 677.341 482.402 675.512 481.55C674.128 480.905 674.439 477.784 674.439 477.784C666.051 478.311 661.348 478.173 652.962 477.246C652.962 477.246 653.162 481.239 651.62 481.012C650.976 480.918 650.641 480.177 650.467 479.43C650.504 480.497 650.348 481.709 649.472 481.819C648.542 481.936 647.861 481.012 647.325 480.743C646.788 480.474 646.351 481.026 645.714 481.012C642.923 480.951 641.687 475.094 641.687 475.094C641.687 475.094 624.71 468.586 625.58 464.604C626.449 460.622 627.453 458.167 630.143 452.768L628.533 454.651C630.155 449.881 631.286 447.306 634.17 443.084C634.695 443.714 630.117 438.047 629.875 437.167C629.728 436.632 630.255 436.051 630.692 435.679L629.07 436.898C629.443 434.128 629.899 432.565 631.217 429.904L628.533 432.325C628.163 430.781 631.754 426.407 633.633 423.179C635.512 419.951 634.976 416.992 634.976 416.992C634.976 416.992 622.205 410.882 620.479 403.274C618.343 393.858 623.492 382.817 633.096 382.024C641.963 381.291 649.472 397.894 649.472 397.894V396.011Z" fill="#825E3E"/>
<path d="M687.919 402.569C687.154 405.081 686.04 409.025 686.04 409.025C687.975 407.468 689.08 406.694 691.141 405.797C690.792 408.447 690.429 409.925 689.262 412.522C690.665 412.389 691.44 412.357 692.751 412.522C691.69 413.625 691.296 414.325 691.141 415.75C691.141 415.75 697.425 415.495 700.537 413.329C705.082 410.164 706.826 405.951 706.443 400.417C705.929 393.006 700.319 384.34 693.288 386.699C687.095 388.777 689.825 396.31 687.919 402.569Z" fill="#DD9877" stroke="#DC9575"/>
<path d="M688.304 400.324C687.694 402.778 685.503 409.975 685.503 409.975C685.503 409.975 689.985 403.541 691.106 399.52C692.226 395.499 691.251 392.23 694.747 390.406C698.29 388.558 703.758 391.684 703.758 391.684C703.758 391.684 701.879 385.227 694.362 386.304C686.845 387.38 688.915 397.871 688.304 400.324Z" fill="#B97756" fill-opacity="0.5"/>
<path d="M640.671 433.646C638.904 433.413 634.497 432.839 634.497 432.839C634.497 432.839 634.777 431.18 635.302 429.881C635.566 429.227 635.819 428.909 636.107 428.267C637.43 425.314 636.908 423.247 637.987 420.197C639.036 417.23 641.476 412.934 641.476 412.934L644.161 408.899C644.161 408.899 645.152 407.274 646.04 405.94C646.577 405.133 646.701 404.266 647.114 403.25C648.079 400.875 649.126 399.005 650.872 397.87C651.582 397.41 654.094 399.485 654.094 399.485L657.584 398.678C657.584 398.678 661.666 398.131 664.295 398.14C666.82 398.148 670.738 398.678 670.738 398.678L674.496 399.485C674.496 399.485 675.894 399.997 676.644 400.561C677.718 401.367 678.06 401.51 679.06 402.443C679.984 403.306 680.397 403.889 681.208 404.864C682.55 406.478 682.76 407.064 683.624 408.63C684.426 410.084 684.856 411.405 685.503 412.934C686.809 416.02 688.034 417.079 689.262 420.197C690.439 423.186 690.872 428.267 690.872 428.267C690.872 428.267 692.242 429.058 692.751 429.881C693.369 430.879 694.947 433.435 694.362 434.453C694.152 434.819 693.388 434.1 692.751 433.915C690.914 433.383 689.064 432.99 687.919 433.108C686.137 433.292 682.265 435.26 680.134 436.605C679.145 437.472 678.255 437.681 678.255 437.681C678.255 437.681 677.181 437.681 675.839 436.605C675.341 436.206 673.844 435.521 672.617 435.529C670.521 435.543 668.322 438.488 668.322 438.488C668.322 438.488 665.912 435.656 663.758 435.798C661.727 435.932 659.463 438.488 659.463 438.488C659.463 438.488 658.137 436.716 656.241 436.067C653.699 435.196 649.53 437.681 649.53 437.681C649.53 437.681 645.087 434.229 640.671 433.646Z" fill="#AC7D51"/>
<path d="M660.537 391.132C657.275 394.522 655.209 396.074 650.872 397.857L652.212 402.712C657.131 405.455 668.111 400.792 668.111 400.792C668.111 400.792 669.864 401.331 670.738 400.792C672.159 399.917 670.738 396.512 670.738 396.512L675.033 394.091C670.884 393.433 668.658 393.285 665.637 395.167L669.396 389.249C665.327 390.526 663.273 391.572 660.805 395.167L660.537 391.132Z" fill="#AC7D51"/>
<path d="M697.908 453.621C697.873 453.592 697.853 453.564 697.852 453.538C697.852 453.517 697.871 453.547 697.908 453.621C698.378 454.576 701.668 462.842 701.668 464.567C701.668 466.426 686.045 475.551 685.772 474.52C685.772 474.52 682.756 483.356 681.476 480.706C680.837 479.382 681.476 476.94 681.476 476.94C681.476 476.94 679.769 482.879 677.986 481.513C676.571 480.429 678.523 477.209 677.986 476.94C677.449 476.671 677.399 482.366 675.57 481.513C674.186 480.868 674.496 477.747 674.496 477.747C666.108 478.274 661.406 478.136 653.02 477.209C653.02 477.209 653.22 481.202 651.678 480.975C651.034 480.881 650.699 480.141 650.525 479.393C650.562 480.46 650.406 481.673 649.53 481.782C648.6 481.899 647.919 480.975 647.382 480.706C646.846 480.437 646.409 480.989 645.772 480.975C642.981 480.914 641.745 475.058 641.745 475.058C641.745 475.058 624.768 468.549 625.638 464.567C626.507 460.585 627.51 458.13 630.201 452.731L628.591 454.614C630.213 449.844 631.344 447.269 634.228 443.048C634.753 443.677 630.175 438.011 629.933 437.13C629.786 436.595 630.313 436.015 630.75 435.642C631.031 435.401 631.275 435.247 631.275 435.247L630.75 435.642C630.313 436.015 629.786 436.595 629.933 437.13C630.175 438.011 634.753 443.677 634.228 443.048C631.344 447.269 630.213 449.844 628.591 454.614L630.201 452.731C627.51 458.13 626.507 460.585 625.638 464.567C624.768 468.549 641.745 475.058 641.745 475.058C641.745 475.058 642.981 480.914 645.772 480.975C646.409 480.989 646.846 480.437 647.382 480.706C647.919 480.975 648.6 481.899 649.53 481.782C650.406 481.673 650.562 480.46 650.525 479.393C650.334 478.575 650.335 477.747 650.335 477.747C650.335 477.747 650.494 478.522 650.525 479.393C650.699 480.141 651.034 480.881 651.678 480.975C653.22 481.202 653.02 477.209 653.02 477.209C661.406 478.136 666.108 478.274 674.496 477.747C674.496 477.747 674.186 480.868 675.57 481.513C677.399 482.366 677.449 476.671 677.986 476.94C678.523 477.209 676.571 480.429 677.986 481.513C679.769 482.879 681.476 476.94 681.476 476.94C681.476 476.94 680.837 479.382 681.476 480.706C682.756 483.356 685.772 474.52 685.772 474.52C686.045 475.551 701.668 466.426 701.668 464.567C701.668 462.842 698.378 454.576 697.908 453.621Z" fill="#AC7D51"/>
<path d="M640.722 401.077C641.487 403.589 642.602 407.533 642.602 407.533C640.667 405.976 639.562 405.202 637.501 404.305C637.849 406.955 638.213 408.433 639.38 411.03C637.977 410.897 637.202 410.864 635.89 411.03C636.952 412.133 637.346 412.833 637.501 414.258C637.501 414.258 631.216 414.003 628.105 411.837C623.559 408.671 621.815 404.459 622.199 398.925C622.713 391.514 628.322 382.847 635.353 385.207C641.547 387.285 638.817 394.818 640.722 401.077Z" fill="#DD9877" stroke="#DC9575"/>
<path d="M640.337 398.831C640.948 401.285 643.139 408.482 643.139 408.482C643.139 408.482 638.657 402.048 637.536 398.027C636.416 394.006 637.391 390.736 633.894 388.913C630.352 387.065 624.884 390.19 624.884 390.19C624.884 390.19 626.763 383.734 634.28 384.81C641.796 385.887 639.727 396.377 640.337 398.831Z" fill="#B97756" fill-opacity="0.5"/>
<path d="M670.242 430.965C670.563 433.47 670.851 434.198 671.585 436.614C671.585 436.614 672.902 436.495 673.732 436.614C675.589 436.88 678.028 438.766 678.028 438.766C678.028 438.766 683.644 435.31 687.692 434.731C689.975 434.405 694.362 434.722 694.362 434.722C694.362 434.722 694.485 433.012 694.094 432.032C693.557 430.687 693.486 430.403 692.751 429.611C692.137 428.949 690.872 428.266 690.872 428.266C690.872 428.266 689.679 419.106 687.424 416.44C686.078 414.849 685.237 413.916 683.397 412.943C681.665 412.027 680.521 411.688 678.565 411.598C670.46 411.222 669.211 422.902 670.242 430.965Z" fill="#CF9354"/>
<path d="M657.561 430.965C657.24 433.47 656.952 434.198 656.219 436.614C656.219 436.614 654.901 436.495 654.071 436.614C652.214 436.88 649.776 438.766 649.776 438.766C649.776 438.766 644.159 435.31 640.111 434.731C637.828 434.405 635.302 434.722 635.302 434.722C635.302 434.722 634.105 433.55 634.497 432.57C635.034 431.225 635.048 430.564 635.57 429.342C635.94 428.479 636.644 427.19 636.644 427.19C636.644 427.19 637.61 418.828 639.866 416.162C641.211 414.571 642.566 413.916 644.406 412.943C646.139 412.027 647.282 411.688 649.239 411.598C657.343 411.222 658.593 422.902 657.561 430.965Z" fill="#D19556"/>
<path d="M680.402 457.856L677.449 453.014C677.449 453.014 681.411 451.1 683.355 450.862C685.965 450.543 684.429 448.979 684.429 448.979L686.309 449.248L688.725 448.172L692.483 458.932L690.872 456.78V463.504L689.798 460.007C689.798 460.007 691.409 467.001 689.798 468.615C687.008 471.411 684.429 477.761 684.429 477.761L674.765 473.188L675.302 469.153L678.523 463.504C679.781 461.298 678.91 462.705 679.06 462.159C679.566 460.326 678.523 457.318 678.523 457.318L680.402 457.856Z" fill="#A2764F"/>
<path d="M646.577 458.393L649.53 453.551C649.53 453.551 649.863 448.409 647.919 448.171C645.309 447.852 643.624 448.171 643.624 448.171L641.745 446.019L639.597 445.481L634.497 459.469L636.107 457.317V464.042L637.181 460.545C637.181 460.545 635.57 467.539 637.181 469.153C639.972 471.949 642.55 478.298 642.55 478.298L652.215 473.726L651.678 469.691L648.456 464.042C647.198 461.836 648.07 463.242 647.919 462.697C647.413 460.863 648.456 457.855 648.456 457.855L646.577 458.393Z" fill="#A2764F"/>
<path d="M634.168 433.095C636.015 431.896 635.447 431.913 639.805 433.095C644.164 434.277 646.384 435.17 649.47 437.668C649.47 437.668 654.309 434.693 656.986 436.054C658.309 436.726 659.671 438.744 659.671 438.744L667.725 439.282C667.725 439.282 669.85 436.028 672.02 435.516C674.505 434.929 676.852 437.668 678.194 437.668C679.537 437.668 684.048 432.709 688.396 433.095C691.665 433.386 694.899 433.915 695.704 436.336C695.961 437.106 696 437.631 695.959 437.964C695.964 437.959 695.968 437.954 695.973 437.95C695.973 439.833 696.559 441.731 693.288 445.212C688.993 449.785 685.468 450.755 679.537 452.194L680.61 454.077L678.194 453.539C681.021 456.685 682.917 458.484 683.295 461.339L680.61 459.994C682.083 462.666 682.611 463.975 682.49 465.643L681.147 464.836C680.968 466.181 680.61 468.925 680.61 469.14L678.194 471.561C678.194 471.561 678.382 473.217 678.194 474.251C677.726 476.835 674.228 480.181 674.228 480.181C665.946 481.207 657.315 480.45 652.96 479.631C652.96 479.631 650.233 476.637 649.47 474.251C649.143 473.231 649.213 472.595 648.933 471.561C648.269 469.111 646.248 465.643 646.248 465.643L644.637 466.45L646.785 459.187L644.637 460.532L649.47 452.194C649.47 452.194 635.811 447.364 633.423 444.137C631.878 442.049 631.119 439.647 631.812 437.143C632.294 435.401 632.635 434.09 634.168 433.095Z" fill="#F0DFB3"/>
<path d="M634.168 433.096C636.22 431.764 637.629 432.763 639.805 433.096C643.931 433.726 646.384 435.171 649.47 437.669C649.47 437.669 654.309 434.694 656.986 436.055C658.309 436.727 659.671 438.745 659.671 438.745L667.725 439.283C667.725 439.283 669.85 436.029 672.02 435.517C674.505 434.93 676.852 437.669 678.194 437.669C679.537 437.669 684.048 432.71 688.396 433.096C691.665 433.386 694.899 433.916 695.704 436.336C695.961 437.107 696 437.632 695.959 437.964C695.964 437.96 695.968 437.955 695.973 437.95C695.973 439.833 696.559 441.731 693.288 445.213C688.993 449.786 685.468 450.756 679.537 452.194L680.61 454.077L678.194 453.539C681.021 456.685 682.917 458.485 683.295 461.34L680.61 459.995C682.083 462.667 682.611 463.975 682.49 465.644L681.147 464.837C680.968 466.182 680.61 468.926 680.61 469.141L678.194 471.562C678.194 471.562 678.382 473.218 678.194 474.252C677.726 476.835 674.228 480.182 674.228 480.182C665.946 481.207 657.315 480.451 652.96 479.631C652.96 479.631 650.233 476.638 649.47 474.252C649.143 473.231 649.213 472.595 648.933 471.562C648.269 469.112 646.248 465.644 646.248 465.644L644.637 466.451L646.785 459.188L644.637 460.533L649.47 452.194C649.47 452.194 635.811 447.365 633.423 444.137C631.878 442.05 631.119 439.648 631.812 437.143C632.294 435.402 632.635 434.091 634.168 433.096Z" fill="#F0DFB3"/>
<path d="M648.305 412.128C645.928 412.154 641.397 416.554 643.741 416.162C646.963 415.624 652.399 414.403 650.184 412.665C649.556 412.172 648.943 412.12 648.305 412.128Z" fill="#522704"/>
<path d="M678.234 412.128C680.611 412.154 685.142 416.554 682.798 416.162C679.576 415.624 674.14 414.403 676.355 412.665C676.983 412.172 677.596 412.12 678.234 412.128Z" fill="#522704"/>
<g filter="url(#filter3_i_127_2085)">
<path d="M684.43 425.851C684.36 428.679 683.466 431.638 680.671 432.038C678.792 432.307 677.726 432.038 675.839 432.038C673.423 432.038 672.596 428.576 672.618 425.851C672.648 422.125 675.077 418.423 678.792 418.588C682.375 418.748 684.519 422.259 684.43 425.851Z" fill="#FFF1D4"/>
</g>
<g filter="url(#filter4_i_127_2085)">
<path d="M643.09 425.851C643.16 428.679 644.054 431.638 646.848 432.038C648.727 432.307 649.793 432.038 651.68 432.038C654.097 432.038 654.924 428.576 654.902 425.851C654.872 422.125 652.442 418.423 648.727 418.588C645.145 418.748 643.001 422.259 643.09 425.851Z" fill="#FFF1D4"/>
</g>
<path d="M692.535 439.279C690.688 438.08 693.237 437.377 688.878 438.559C684.52 439.741 682.299 440.633 679.214 443.131C679.214 443.131 674.375 440.157 671.697 441.517C670.375 442.19 669.013 444.207 669.013 444.207L660.959 444.745C660.959 444.745 658.833 441.492 656.664 440.98C654.179 440.393 651.831 443.131 650.489 443.131C649.147 443.131 644.635 438.172 640.288 438.559C637.019 438.849 638.255 439.974 636.376 441.517C634.497 443.061 632.886 444.675 632.617 445.482C632.005 447.322 630.503 447.278 635.395 450.676C640.288 454.074 641.235 454.249 647.166 455.688C648.409 455.989 649.588 456.326 650.739 456.671L652.483 458.394C652.483 458.394 652.37 457.824 651.984 457.049C655.854 458.233 659.53 459.396 664.348 459.454C670.949 459.532 674.994 457.798 680.723 456.226C687.484 454.371 692.872 452.828 695.261 449.6C696.806 447.512 696.45 445.636 695.757 443.131C695.275 441.39 694.068 440.274 692.535 439.279Z" fill="#825E3E" fill-opacity="0.25"/>
<path d="M634.426 432.925C636.644 432.032 637.887 432.592 640.063 432.925C644.189 433.555 646.642 435 649.728 437.498C649.728 437.498 654.567 434.523 657.244 435.884C658.567 436.556 659.929 438.574 659.929 438.574L667.982 439.112C667.982 439.112 670.108 435.858 672.278 435.346C674.763 434.759 677.11 437.498 678.452 437.498C679.795 437.498 684.306 432.539 688.654 432.925C691.923 433.215 695.157 433.745 695.962 436.165C696.219 436.936 696.257 437.461 696.217 437.793C696.222 437.789 696.226 437.784 696.231 437.779C696.231 439.662 697.294 442.451 693.546 445.042C689.798 447.633 681.208 449.785 681.208 449.785C681.208 449.785 669.997 454.112 664.295 454.089C658.593 454.066 654.899 452.744 648.993 450.861C643.087 448.978 635.811 447.364 633.423 444.137C631.878 442.049 631.377 439.477 632.07 436.972C632.552 435.231 632.731 433.607 634.426 432.925Z" fill="#F0DFB3"/>
<path d="M663.758 441.716V444.675M663.758 444.675C663.758 444.675 664.941 445.651 665.637 445.751C666.622 445.892 668.59 445.213 669.127 444.675M663.758 444.675C663.758 444.675 662.408 445.714 661.611 445.751C660.716 445.792 658.389 444.675 658.389 444.675" stroke="black" stroke-linecap="round"/>
<path d="M659.463 438.488C660.268 441.178 661.342 441.447 663.758 442.254C666.174 441.716 666.98 440.64 668.322 438.488C668.322 438.488 667.466 435.798 663.758 435.798C660.05 435.798 659.463 438.488 659.463 438.488Z" fill="#BE7858"/>
<path d="M677.218 420.743C680.436 420.789 682.157 424.558 682.013 427.459C681.877 430.205 681.508 431.643 678.792 432.032C676.913 432.301 674.692 432.46 673.691 430.956C672.617 429.342 672.08 424.232 673.423 422.349C674.548 420.77 675.609 420.719 677.218 420.743Z" fill="#24170F"/>
<path d="M650.575 420.738C647.357 420.785 645.636 424.553 645.78 427.455C645.917 430.201 646.285 431.639 649.002 432.028C650.881 432.297 653.102 432.455 654.102 430.952C655.176 429.338 655.428 424.501 654.362 422.349C653.502 420.611 652.184 420.715 650.575 420.738Z" fill="#24170F"/>
<ellipse cx="648.456" cy="422.887" rx="1.07382" ry="1.07596" fill="white"/>
<ellipse cx="679.06" cy="422.887" rx="1.07382" ry="1.07596" fill="white"/>
<path d="M677.181 428.536C675.431 428.15 672.856 428.716 673.423 430.419C673.691 431.225 674.33 431.798 675.033 432.032C675.647 432.237 675.836 432.29 676.376 432.301C676.544 432.305 676.721 432.301 676.913 432.301C678.47 432.301 680.598 432.152 680.939 430.687C681.279 429.234 678.636 428.856 677.181 428.536Z" fill="#5F381B"/>
<path d="M650.634 428.382C652.383 427.997 654.929 428.715 654.362 430.418C654.094 431.225 653.455 431.797 652.752 432.032C652.138 432.237 651.949 432.289 651.409 432.301C651.241 432.305 651.064 432.301 650.872 432.301C649.315 432.301 647.217 431.998 646.875 430.534C646.536 429.08 649.178 428.702 650.634 428.382Z" fill="#5C3722"/>
<path d="M664.027 435.798C662.4 435.736 659.463 436.588 659.463 438.219C659.463 439.85 662.4 439.895 664.027 439.833C665.452 439.779 668.054 439.648 668.054 438.219C668.054 436.79 665.452 435.852 664.027 435.798Z" fill="#D78B69"/>
<path d="M661.879 441.178C660.805 440.64 660.268 439.564 660.268 439.564" stroke="black" stroke-linecap="round"/>
<path d="M665.637 441.178C666.711 440.64 667.248 439.564 667.248 439.564" stroke="black" stroke-linecap="round"/>
<path d="M649.262 472.381C649.867 472.565 650.791 472.83 651.417 472.919L655.444 475.609L654.638 473.188L661.35 478.299L663.497 477.492L665.108 478.299L669.94 474.533L670.209 476.416L673.699 473.457L673.162 475.071C673.162 475.071 676.566 473.352 677.457 471.305C677.803 470.511 677.994 469.153 677.994 469.153H680.671L678.531 471.574C678.531 471.574 678.728 474.613 677.994 475.071C675.839 476.416 676.512 476.684 675.57 478.03C675.033 478.798 675.837 479.646 674.496 480.182C671.804 481.258 666.704 480.451 663.49 480.72C659.514 481.053 653.02 479.644 653.02 479.644L649.53 474.802C649.476 474.297 649.262 473.995 649.262 473.457C649.262 473.347 649.272 473.256 649.287 473.178C649.333 472.897 649.412 472.664 649.262 472.381Z" fill="#D9BA8E"/>
<path d="M645.522 482.871C643.895 481.24 642.362 480.006 642.569 477.76C642.64 476.999 642.747 476.552 643.106 475.877C643.422 475.284 643.819 474.926 644.448 474.532C646.052 473.53 649.281 474.801 649.281 474.801C649.281 474.801 651.196 475.851 651.965 476.953C652.668 477.961 653.039 478.757 653.039 479.912V482.871C653.039 483.947 651.965 483.409 651.428 483.14C650.7 482.775 650.441 480.98 650.364 480.236C650.42 480.984 650.509 482.831 650.086 483.678C649.805 484.242 649.012 483.947 648.475 483.678C647.427 483.153 646.846 479.912 646.846 479.912C646.846 479.912 647.133 482.064 647.133 482.871C647.133 483.501 646.059 483.409 645.522 482.871Z" fill="#DB9977"/>
<path d="M681.745 482.871C683.372 481.24 684.905 480.006 684.698 477.76C684.627 476.999 684.52 476.552 684.161 475.877C683.845 475.284 683.448 474.926 682.819 474.532C681.215 473.53 677.986 474.801 677.986 474.801C677.986 474.801 676.071 475.851 675.302 476.953C674.599 477.961 674.228 478.757 674.228 479.912V482.871C674.228 483.947 675.302 483.409 675.839 483.14C676.567 482.775 676.814 480.979 676.886 480.236C676.835 480.983 676.758 482.831 677.181 483.678C677.462 484.242 678.255 483.947 678.792 483.678C679.84 483.153 680.134 479.912 680.134 479.912V482.871C680.134 483.501 681.208 483.409 681.745 482.871Z" fill="#D79573"/>
<path d="M638.255 437.951L638.217 438.449L638.255 437.951ZM625.571 438.262C625.297 438.299 625.105 438.551 625.142 438.824C625.179 439.098 625.431 439.29 625.704 439.253L625.638 438.758L625.571 438.262ZM649.53 440.641C649.69 440.167 649.689 440.167 649.689 440.167C649.689 440.167 649.689 440.167 649.689 440.167C649.689 440.167 649.688 440.166 649.688 440.166C649.687 440.166 649.686 440.166 649.684 440.165C649.68 440.164 649.675 440.162 649.668 440.16C649.654 440.155 649.634 440.148 649.607 440.139C649.554 440.122 649.475 440.096 649.374 440.063C649.172 439.997 648.878 439.903 648.513 439.789C647.783 439.56 646.765 439.253 645.614 438.935C643.322 438.302 640.463 437.617 638.293 437.452L638.255 437.951L638.217 438.449C640.283 438.607 643.061 439.267 645.348 439.899C646.486 440.213 647.493 440.517 648.215 440.743C648.576 440.856 648.865 440.949 649.065 441.014C649.164 441.046 649.241 441.072 649.293 441.089C649.319 441.097 649.338 441.104 649.351 441.108C649.358 441.11 649.363 441.112 649.366 441.113C649.368 441.114 649.369 441.114 649.37 441.114C649.37 441.114 649.37 441.115 649.371 441.115C649.371 441.115 649.371 441.115 649.371 441.115C649.371 441.115 649.371 441.115 649.53 440.641ZM638.255 437.951L638.293 437.452C636.128 437.287 632.936 437.493 630.312 437.735C628.994 437.857 627.81 437.988 626.955 438.09C626.527 438.14 626.182 438.183 625.943 438.214C625.823 438.229 625.731 438.241 625.668 438.249C625.636 438.253 625.612 438.256 625.596 438.259C625.588 438.26 625.581 438.261 625.577 438.261C625.575 438.261 625.574 438.262 625.573 438.262C625.572 438.262 625.572 438.262 625.571 438.262C625.571 438.262 625.571 438.262 625.571 438.262C625.571 438.262 625.571 438.262 625.638 438.758C625.704 439.253 625.704 439.253 625.704 439.253C625.704 439.253 625.705 439.253 625.705 439.253C625.705 439.253 625.705 439.253 625.706 439.253C625.707 439.253 625.708 439.253 625.71 439.252C625.714 439.252 625.72 439.251 625.728 439.25C625.743 439.248 625.767 439.245 625.798 439.241C625.86 439.233 625.951 439.221 626.069 439.206C626.305 439.176 626.648 439.133 627.072 439.083C627.921 438.982 629.097 438.852 630.404 438.731C633.03 438.489 636.146 438.291 638.217 438.449L638.255 437.951Z" fill="black"/>
<path d="M636.376 443.868L636.496 444.353L636.376 443.868ZM629.141 446.397C628.903 446.538 628.825 446.845 628.966 447.083C629.107 447.32 629.414 447.398 629.651 447.256L629.396 446.827L629.141 446.397ZM649.454 442.721C649.438 442.221 649.438 442.221 649.437 442.221C649.437 442.221 649.437 442.221 649.437 442.221C649.437 442.221 649.436 442.221 649.436 442.221C649.434 442.222 649.433 442.222 649.43 442.222C649.425 442.222 649.418 442.222 649.409 442.222C649.39 442.223 649.362 442.224 649.325 442.225C649.252 442.228 649.144 442.232 649.006 442.238C648.73 442.248 648.333 442.265 647.846 442.287C646.871 442.331 645.538 442.399 644.102 442.492C641.251 442.677 637.933 442.965 636.256 443.383L636.376 443.868L636.496 444.353C638.069 443.962 641.29 443.677 644.166 443.49C645.593 443.398 646.92 443.331 647.89 443.286C648.375 443.264 648.771 443.248 649.045 443.237C649.182 443.232 649.289 443.228 649.361 443.225C649.397 443.224 649.425 443.223 649.443 443.222C649.452 443.222 649.459 443.222 649.464 443.221C649.466 443.221 649.468 443.221 649.469 443.221C649.47 443.221 649.47 443.221 649.471 443.221C649.471 443.221 649.471 443.221 649.471 443.221C649.471 443.221 649.471 443.221 649.454 442.721ZM636.376 443.868L636.256 443.383C634.479 443.825 632.699 444.581 631.372 445.22C630.707 445.54 630.151 445.833 629.761 446.047C629.566 446.153 629.412 446.24 629.306 446.301C629.253 446.331 629.212 446.355 629.184 446.371C629.171 446.379 629.16 446.386 629.153 446.39C629.149 446.392 629.146 446.394 629.144 446.395C629.143 446.396 629.142 446.396 629.142 446.396C629.141 446.397 629.141 446.397 629.141 446.397C629.141 446.397 629.141 446.397 629.141 446.397C629.141 446.397 629.141 446.397 629.396 446.827C629.651 447.256 629.651 447.256 629.651 447.256C629.651 447.256 629.651 447.256 629.651 447.256C629.651 447.256 629.651 447.256 629.652 447.256C629.652 447.256 629.652 447.256 629.653 447.255C629.654 447.255 629.657 447.253 629.66 447.251C629.666 447.248 629.675 447.242 629.688 447.235C629.714 447.22 629.752 447.198 629.802 447.169C629.902 447.111 630.051 447.028 630.24 446.924C630.618 446.718 631.158 446.433 631.805 446.121C633.104 445.496 634.814 444.772 636.496 444.353L636.376 443.868Z" fill="black"/>
<path d="M640.208 448.725L640.464 449.154L640.208 448.725ZM631.603 454.269C631.386 454.439 631.348 454.754 631.518 454.971C631.688 455.189 632.002 455.227 632.219 455.056L631.911 454.663L631.603 454.269ZM649.92 444.907C649.774 444.428 649.774 444.428 649.774 444.428C649.774 444.428 649.774 444.428 649.774 444.428C649.774 444.428 649.773 444.429 649.773 444.429C649.772 444.429 649.771 444.429 649.769 444.43C649.765 444.431 649.76 444.432 649.754 444.435C649.74 444.439 649.721 444.445 649.695 444.453C649.644 444.469 649.568 444.492 649.471 444.523C649.277 444.584 648.998 444.673 648.653 444.786C647.964 445.01 647.015 445.328 645.975 445.7C643.91 446.438 641.438 447.407 639.952 448.295L640.208 448.725L640.464 449.154C641.855 448.324 644.239 447.383 646.311 446.643C647.339 446.275 648.279 445.96 648.962 445.737C649.303 445.626 649.58 445.538 649.771 445.478C649.866 445.447 649.941 445.424 649.991 445.409C650.016 445.401 650.035 445.395 650.048 445.391C650.054 445.389 650.059 445.387 650.062 445.386C650.064 445.386 650.065 445.386 650.065 445.385C650.066 445.385 650.066 445.385 650.066 445.385C650.066 445.385 650.066 445.385 650.066 445.385C650.067 445.385 650.067 445.385 649.92 444.907ZM640.208 448.725L639.952 448.295C638.398 449.223 636.306 450.721 634.615 451.977C633.766 452.607 633.014 453.18 632.473 453.595C632.203 453.802 631.986 453.971 631.836 454.087C631.761 454.145 631.703 454.191 631.664 454.221C631.644 454.237 631.629 454.249 631.619 454.257C631.614 454.261 631.61 454.264 631.607 454.266C631.606 454.267 631.605 454.267 631.604 454.268C631.604 454.268 631.604 454.268 631.604 454.269C631.604 454.269 631.604 454.269 631.603 454.269C631.603 454.269 631.603 454.269 631.911 454.663C632.219 455.056 632.219 455.056 632.219 455.056C632.219 455.056 632.219 455.056 632.219 455.056C632.22 455.056 632.22 455.056 632.22 455.056C632.221 455.055 632.222 455.055 632.223 455.054C632.225 455.052 632.229 455.049 632.234 455.045C632.244 455.037 632.259 455.026 632.278 455.011C632.317 454.98 632.374 454.935 632.448 454.878C632.597 454.762 632.813 454.595 633.081 454.389C633.618 453.976 634.366 453.407 635.209 452.781C636.9 451.526 638.957 450.055 640.464 449.154L640.208 448.725Z" fill="black"/>
<path d="M688.041 438.008L688.079 438.507L688.041 438.008ZM700.725 438.32C700.999 438.356 701.191 438.608 701.154 438.882C701.117 439.156 700.865 439.348 700.592 439.311L700.658 438.815L700.725 438.32ZM676.766 440.698C676.607 440.224 676.607 440.224 676.607 440.224C676.607 440.224 676.607 440.224 676.607 440.224C676.607 440.224 676.608 440.224 676.608 440.224C676.609 440.224 676.61 440.223 676.612 440.223C676.616 440.221 676.621 440.22 676.628 440.217C676.642 440.213 676.662 440.206 676.689 440.197C676.742 440.179 676.821 440.154 676.922 440.121C677.124 440.055 677.418 439.96 677.783 439.846C678.513 439.618 679.531 439.31 680.682 438.992C682.974 438.359 685.833 437.675 688.003 437.51L688.041 438.008L688.079 438.507C686.013 438.664 683.235 439.325 680.948 439.956C679.81 440.271 678.803 440.575 678.081 440.801C677.72 440.913 677.431 441.007 677.231 441.071C677.132 441.104 677.055 441.129 677.003 441.146C676.977 441.155 676.958 441.161 676.945 441.166C676.938 441.168 676.933 441.17 676.93 441.171C676.928 441.171 676.927 441.172 676.926 441.172C676.926 441.172 676.926 441.172 676.925 441.172C676.925 441.172 676.925 441.172 676.925 441.172C676.925 441.172 676.925 441.172 676.766 440.698ZM688.041 438.008L688.003 437.51C690.168 437.345 693.36 437.551 695.984 437.793C697.302 437.914 698.486 438.046 699.341 438.147C699.769 438.198 700.114 438.241 700.353 438.271C700.473 438.286 700.565 438.299 700.628 438.307C700.66 438.311 700.684 438.314 700.7 438.316C700.708 438.317 700.715 438.318 700.719 438.319C700.721 438.319 700.722 438.319 700.723 438.319C700.724 438.319 700.724 438.32 700.725 438.32C700.725 438.32 700.725 438.32 700.725 438.32C700.725 438.32 700.725 438.32 700.658 438.815C700.592 439.311 700.592 439.311 700.592 439.311C700.592 439.311 700.591 439.311 700.591 439.311C700.591 439.311 700.591 439.311 700.59 439.31C700.589 439.31 700.588 439.31 700.586 439.31C700.582 439.309 700.576 439.309 700.568 439.308C700.553 439.305 700.529 439.302 700.498 439.298C700.436 439.29 700.345 439.278 700.227 439.263C699.991 439.233 699.648 439.19 699.224 439.14C698.375 439.04 697.199 438.909 695.892 438.789C693.266 438.546 690.15 438.349 688.079 438.507L688.041 438.008Z" fill="black"/>
<path d="M689.92 443.926L689.8 444.411L689.92 443.926ZM697.155 446.455C697.393 446.596 697.471 446.903 697.33 447.14C697.189 447.378 696.882 447.455 696.645 447.314L696.9 446.884L697.155 446.455ZM676.842 442.779C676.858 442.279 676.858 442.279 676.859 442.279C676.859 442.279 676.859 442.279 676.859 442.279C676.859 442.279 676.86 442.279 676.86 442.279C676.862 442.279 676.863 442.279 676.866 442.279C676.871 442.279 676.878 442.28 676.887 442.28C676.906 442.281 676.934 442.282 676.971 442.283C677.044 442.286 677.152 442.29 677.29 442.295C677.566 442.306 677.963 442.322 678.45 442.345C679.425 442.389 680.758 442.457 682.194 442.55C685.045 442.735 688.363 443.023 690.04 443.44L689.92 443.926L689.8 444.411C688.227 444.02 685.006 443.734 682.13 443.548C680.703 443.456 679.376 443.388 678.406 443.344C677.921 443.322 677.525 443.306 677.251 443.295C677.114 443.289 677.007 443.285 676.935 443.283C676.899 443.281 676.871 443.28 676.853 443.28C676.844 443.279 676.837 443.279 676.832 443.279C676.83 443.279 676.828 443.279 676.827 443.279C676.826 443.279 676.826 443.279 676.825 443.279C676.825 443.279 676.825 443.279 676.825 443.279C676.825 443.279 676.825 443.279 676.842 442.779ZM689.92 443.926L690.04 443.44C691.817 443.883 693.597 444.638 694.924 445.277C695.589 445.598 696.145 445.891 696.535 446.104C696.73 446.211 696.884 446.298 696.99 446.359C697.043 446.389 697.084 446.412 697.112 446.429C697.125 446.437 697.136 446.443 697.144 446.448C697.147 446.45 697.15 446.451 697.152 446.453C697.153 446.453 697.154 446.454 697.154 446.454C697.155 446.454 697.155 446.454 697.155 446.454C697.155 446.454 697.155 446.455 697.155 446.455C697.155 446.455 697.155 446.455 696.9 446.884C696.645 447.314 696.645 447.314 696.645 447.314C696.645 447.314 696.645 447.314 696.645 447.314C696.645 447.314 696.645 447.314 696.644 447.314C696.644 447.314 696.644 447.313 696.643 447.313C696.642 447.312 696.639 447.311 696.636 447.309C696.63 447.305 696.621 447.3 696.608 447.292C696.582 447.278 696.544 447.255 696.494 447.227C696.394 447.169 696.245 447.085 696.056 446.982C695.678 446.775 695.138 446.49 694.491 446.179C693.192 445.553 691.482 444.83 689.8 444.411L689.92 443.926Z" fill="black"/>
<path d="M686.088 448.783L685.832 449.213L686.088 448.783ZM694.693 454.327C694.91 454.498 694.948 454.812 694.778 455.03C694.608 455.247 694.294 455.286 694.077 455.115L694.385 454.721L694.693 454.327ZM676.376 444.965C676.522 444.487 676.522 444.487 676.522 444.487C676.522 444.487 676.522 444.487 676.522 444.487C676.522 444.487 676.523 444.487 676.523 444.487C676.524 444.488 676.525 444.488 676.527 444.488C676.531 444.49 676.536 444.491 676.542 444.493C676.556 444.497 676.575 444.503 676.601 444.511C676.652 444.527 676.728 444.551 676.825 444.582C677.019 444.643 677.298 444.732 677.643 444.844C678.332 445.069 679.281 445.387 680.321 445.759C682.386 446.497 684.858 447.466 686.344 448.354L686.088 448.783L685.832 449.213C684.441 448.382 682.057 447.442 679.985 446.701C678.957 446.333 678.017 446.019 677.334 445.796C676.993 445.685 676.716 445.596 676.525 445.536C676.43 445.506 676.355 445.483 676.305 445.467C676.28 445.459 676.261 445.453 676.248 445.45C676.242 445.448 676.237 445.446 676.234 445.445C676.232 445.445 676.231 445.444 676.231 445.444C676.23 445.444 676.23 445.444 676.23 445.444C676.23 445.444 676.23 445.444 676.23 445.444C676.229 445.444 676.229 445.444 676.376 444.965ZM686.088 448.783L686.344 448.354C687.898 449.282 689.99 450.78 691.681 452.036C692.53 452.666 693.282 453.239 693.823 453.654C694.093 453.861 694.31 454.029 694.46 454.146C694.535 454.204 694.593 454.249 694.632 454.28C694.652 454.295 694.667 454.307 694.677 454.315C694.682 454.319 694.686 454.322 694.689 454.324C694.69 454.325 694.691 454.326 694.692 454.327C694.692 454.327 694.692 454.327 694.692 454.327C694.692 454.327 694.692 454.327 694.693 454.327C694.693 454.327 694.693 454.327 694.385 454.721C694.077 455.115 694.077 455.115 694.077 455.115C694.077 455.115 694.077 455.115 694.077 455.115C694.076 455.115 694.076 455.115 694.076 455.114C694.075 455.114 694.074 455.113 694.073 455.112C694.071 455.11 694.067 455.107 694.062 455.104C694.052 455.096 694.037 455.084 694.018 455.069C693.979 455.039 693.922 454.994 693.848 454.936C693.699 454.821 693.483 454.654 693.215 454.448C692.678 454.035 691.93 453.466 691.087 452.84C689.396 451.584 687.339 450.113 685.832 449.213L686.088 448.783Z" fill="black"/>
<defs>
<filter id="filter0_i_127_2085" x="644" y="43.5" width="39" height="53.5" filterUnits="userSpaceOnUse" color-interpolation-filters="sRGB">
<feFlood flood-opacity="0" result="BackgroundImageFix"/>
<feBlend mode="normal" in="SourceGraphic" in2="BackgroundImageFix" result="shape"/>
<feColorMatrix in="SourceAlpha" type="matrix" values="0 0 0 0 0 0 0 0 0 0 0 0 0 0 0 0 0 0 127 0" result="hardAlpha"/>
<feOffset dy="4"/>
<feGaussianBlur stdDeviation="2"/>
<feComposite in2="hardAlpha" operator="arithmetic" k2="-1" k3="1"/>
<feColorMatrix type="matrix" values="0 0 0 0 0 0 0 0 0 0 0 0 0 0 0 0 0 0 0.25 0"/>
<feBlend mode="normal" in2="shape" result="effect1_innerShadow_127_2085"/>
</filter>
<filter id="filter1_i_127_2085" x="266" y="197" width="51" height="54" filterUnits="userSpaceOnUse" color-interpolation-filters="sRGB">
<feFlood flood-opacity="0" result="BackgroundImageFix"/>
<feBlend mode="normal" in="SourceGraphic" in2="BackgroundImageFix" result="shape"/>
<feColorMatrix in="SourceAlpha" type="matrix" values="0 0 0 0 0 0 0 0 0 0 0 0 0 0 0 0 0 0 127 0" result="hardAlpha"/>
<feOffset dy="4"/>
<feGaussianBlur stdDeviation="2"/>
<feComposite in2="hardAlpha" operator="arithmetic" k2="-1" k3="1"/>
<feColorMatrix type="matrix" values="0 0 0 0 0 0 0 0 0 0 0 0 0 0 0 0 0 0 0.25 0"/>
<feBlend mode="normal" in2="shape" result="effect1_innerShadow_127_2085"/>
</filter>
<filter id="filter2_i_127_2085" x="600.5" y="382.473" width="121.5" height="87.5273" filterUnits="userSpaceOnUse" color-interpolation-filters="sRGB">
<feFlood flood-opacity="0" result="BackgroundImageFix"/>
<feBlend mode="normal" in="SourceGraphic" in2="BackgroundImageFix" result="shape"/>
<feColorMatrix in="SourceAlpha" type="matrix" values="0 0 0 0 0 0 0 0 0 0 0 0 0 0 0 0 0 0 127 0" result="hardAlpha"/>
<feOffset dy="4"/>
<feGaussianBlur stdDeviation="2"/>
<feComposite in2="hardAlpha" operator="arithmetic" k2="-1" k3="1"/>
<feColorMatrix type="matrix" values="0 0 0 0 0 0 0 0 0 0 0 0 0 0 0 0 0 0 0.25 0"/>
<feBlend mode="normal" in2="shape" result="effect1_innerShadow_127_2085"/>
</filter>
<filter id="filter3_i_127_2085" x="672.617" y="418.583" width="11.8152" height="13.5742" filterUnits="userSpaceOnUse" color-interpolation-filters="sRGB">
<feFlood flood-opacity="0" result="BackgroundImageFix"/>
<feBlend mode="normal" in="SourceGraphic" in2="BackgroundImageFix" result="shape"/>
<feColorMatrix in="SourceAlpha" type="matrix" values="0 0 0 0 0 0 0 0 0 0 0 0 0 0 0 0 0 0 127 0" result="hardAlpha"/>
<feOffset dx="-1" dy="1"/>
<feComposite in2="hardAlpha" operator="arithmetic" k2="-1" k3="1"/>
<feColorMatrix type="matrix" values="0 0 0 0 0.137255 0 0 0 0 0.0666667 0 0 0 0 0.0392157 0 0 0 1 0"/>
<feBlend mode="normal" in2="shape" result="effect1_innerShadow_127_2085"/>
</filter>
<filter id="filter4_i_127_2085" x="643.087" y="418.583" width="11.8152" height="13.5742" filterUnits="userSpaceOnUse" color-interpolation-filters="sRGB">
<feFlood flood-opacity="0" result="BackgroundImageFix"/>
<feBlend mode="normal" in="SourceGraphic" in2="BackgroundImageFix" result="shape"/>
<feColorMatrix in="SourceAlpha" type="matrix" values="0 0 0 0 0 0 0 0 0 0 0 0 0 0 0 0 0 0 127 0" result="hardAlpha"/>
<feOffset dx="1" dy="1"/>
<feComposite in2="hardAlpha" operator="arithmetic" k2="-1" k3="1"/>
<feColorMatrix type="matrix" values="0 0 0 0 0.137255 0 0 0 0 0.0666667 0 0 0 0 0.0392157 0 0 0 1 0"/>
<feBlend mode="normal" in2="shape" result="effect1_innerShadow_127_2085"/>
</filter>
</defs>
</svg>
