<svg width="403" height="570" viewBox="0 0 403 570" fill="none" xmlns="http://www.w3.org/2000/svg">
<path d="M389.315 317.544C394.889 219.881 390.056 74.6355 390.056 74.6355C390.056 74.6355 334.475 71.9284 295.024 58.9396C255.844 46.0405 199.991 13 199.991 13C199.991 13 147.117 46.1889 113.143 58.9396C74.2588 73.5335 11 75.1714 11 75.1714C11 75.1714 13.1089 220.534 13.1088 317.544C13.1087 376.086 44.6993 418.284 83.2138 462.433C120.647 505.341 199.991 557 199.991 557C199.991 557 287.76 505.822 326.031 462.433C364.82 418.455 385.649 381.776 389.315 317.544Z" fill="black"/>
<path d="M205.488 566.656L199.755 570L194.195 566.378L200.066 557.386L205.488 566.656ZM205.544 3.34216H205.545C205.546 3.34267 205.548 3.34378 205.551 3.3453C205.556 3.34831 205.564 3.35311 205.576 3.35998C205.6 3.37395 205.637 3.3955 205.687 3.42498C205.787 3.48392 205.939 3.57379 206.142 3.69231C206.546 3.92939 207.151 4.28273 207.938 4.73856C209.511 5.6504 211.814 6.97256 214.702 8.6028C220.482 11.865 228.595 16.3492 237.912 21.2292C256.696 31.0669 279.827 42.2215 298.553 48.39C317.29 54.5623 340.244 58.3913 358.86 60.6672C368.097 61.7965 376.127 62.5268 381.838 62.9747C384.692 63.1985 386.961 63.3512 388.507 63.4475C389.28 63.4956 389.873 63.5306 390.266 63.5523C390.462 63.5632 390.608 63.5705 390.703 63.5754C390.75 63.5778 390.785 63.5796 390.806 63.5806C390.817 63.5812 390.824 63.5815 390.828 63.5817H390.83L400.72 64.0639L401.048 73.9478L390.306 74.3043C400.758 73.9576 401.04 73.9488 401.048 73.9499C401.048 73.9511 401.048 73.9538 401.048 73.9562C401.048 73.961 401.049 73.9681 401.049 73.9772C401.05 73.9957 401.051 74.023 401.052 74.0589C401.055 74.131 401.057 74.2379 401.062 74.3787C401.071 74.6604 401.085 75.0782 401.102 75.6262C401.136 76.7229 401.186 78.3417 401.247 80.434C401.368 84.6184 401.536 90.7004 401.72 98.3021C402.087 113.505 402.518 134.793 402.775 159.148C403.287 207.795 403.105 268.906 400.295 318.184C398.397 351.455 392.016 378.082 380.832 402.239C369.69 426.302 354.022 447.386 334.289 469.772C314.174 492.59 281.651 516.906 254.84 535.193C241.308 544.422 228.996 552.273 220.065 557.817C215.597 560.59 211.969 562.79 209.451 564.301C208.192 565.057 207.209 565.64 206.537 566.037C206.201 566.236 205.943 566.389 205.767 566.492C205.679 566.544 205.611 566.583 205.564 566.611C205.541 566.624 205.523 566.635 205.51 566.642C205.503 566.646 205.498 566.649 205.494 566.652C205.492 566.653 205.491 566.654 205.49 566.655L200.066 557.386L194.192 566.376C194.191 566.375 194.189 566.375 194.188 566.374C194.184 566.372 194.18 566.368 194.174 566.364C194.162 566.357 194.146 566.346 194.126 566.333C194.083 566.305 194.022 566.265 193.942 566.212C193.783 566.108 193.549 565.955 193.245 565.755C192.638 565.355 191.749 564.766 190.608 564.004C188.327 562.482 185.037 560.265 180.977 557.473C172.861 551.893 161.647 544.002 149.242 534.748C124.624 516.383 94.6126 492.134 75.0766 469.728C36.4729 425.452 2.26406 380.518 2.26401 317.574C2.26409 269.058 1.73676 208.421 1.20915 159.891C0.945408 135.631 0.681683 114.406 0.483871 99.2457C0.384966 91.6657 0.302243 85.602 0.24456 81.4341C0.215721 79.3504 0.193877 77.7402 0.178434 76.6515C0.170715 76.1073 0.164576 75.6933 0.160591 75.4155C0.158603 75.2769 0.157403 75.1721 0.156392 75.102C0.155887 75.067 0.154547 75.0399 0.154293 75.0224V74.9983C0.154278 74.9972 0.15437 74.9965 10.9013 74.841L0.154293 74.9962L0 64.3847L10.6221 64.109H10.6504C10.6748 64.1083 10.7148 64.1074 10.769 64.1059C10.8774 64.1027 11.0445 64.0975 11.2676 64.0901C11.7145 64.0754 12.3861 64.0512 13.2608 64.0157C15.0109 63.9446 17.5727 63.8263 20.775 63.6393C27.1852 63.265 36.1351 62.616 46.2679 61.5206C66.7716 59.3042 91.217 55.3483 109.356 48.5367C125.51 42.4703 146.617 31.334 164.05 21.4556C172.685 16.5625 180.277 12.0598 185.707 8.78207C188.42 7.14428 190.59 5.81426 192.077 4.89687C192.82 4.4382 193.393 4.08334 193.777 3.84432C193.969 3.72503 194.113 3.63455 194.209 3.57489C194.256 3.54506 194.292 3.52205 194.315 3.5078C194.326 3.50069 194.335 3.49627 194.34 3.49312C194.342 3.49159 194.344 3.49054 194.345 3.48997V3.48893L199.901 0L205.544 3.34216ZM23.7601 317.574C23.7601 371.889 52.7908 411.477 91.2868 455.629C109.218 476.195 137.649 499.3 162.106 517.546C174.239 526.597 185.22 534.325 193.166 539.789C195.982 541.724 198.415 543.371 200.379 544.693C202.61 543.343 205.428 541.623 208.717 539.581C217.455 534.157 229.5 526.477 242.718 517.462C269.409 499.257 299.964 476.221 318.155 455.585C337.246 433.928 351.414 414.623 361.32 393.226C371.183 371.924 377.062 348.019 378.833 316.963C381.601 268.433 381.791 207.91 381.28 159.374C381.025 135.137 380.596 113.948 380.23 98.82C380.091 93.0646 379.959 88.1873 379.851 84.3548C373.919 83.886 365.693 83.1328 356.249 81.9782C337.177 79.6466 312.571 75.6161 291.82 68.7805C271.33 62.0307 246.902 50.1808 227.929 40.2442C218.369 35.2371 210.054 30.6407 204.126 27.295C202.684 26.481 201.383 25.7401 200.238 25.085C199.22 25.7056 198.079 26.4008 196.825 27.1576C191.27 30.5111 183.504 35.1173 174.657 40.13C157.128 50.0629 134.771 61.9306 116.921 68.6337C96.1401 76.4377 69.4662 80.6096 48.5813 82.8672C38.0202 84.0089 28.7081 84.683 22.0303 85.073C21.9503 85.0776 21.8703 85.0809 21.791 85.0855C21.8421 88.8323 21.9066 93.5061 21.9778 98.9658C22.1758 114.138 22.4402 135.379 22.7041 159.658C23.2319 208.206 23.7601 268.937 23.7601 317.574Z" fill="#CEAF62"/>
<path d="M265.445 169.255L237.351 196.964L241.157 200.736L268.532 172.288L265.445 169.255Z" fill="#CAAA5D"/>
<path d="M304.436 173.898L246.35 207.881L249.083 212.49L306.66 177.611L304.436 173.898Z" fill="#CAAA5D"/>
<path d="M290.539 210.397L252.213 219.535L253.5 224.737L291.597 214.594L290.539 210.397Z" fill="#CAAA5D"/>
<path d="M322.278 234.232L254.777 233.201L254.665 238.559L322.208 238.559L322.278 234.232Z" fill="#CAAA5D"/>
<path d="M291.612 258.168L252.864 247.545L251.523 252.734L290.548 262.363L291.612 258.168Z" fill="#CAAA5D"/>
<path d="M307.179 294.669L248.842 260.872L246.129 265.493L305.005 298.41L307.179 294.669Z" fill="#CAAA5D"/>
<path d="M268.99 300.281L241.043 271.29L237.136 274.958L265.848 303.257L268.99 300.281Z" fill="#CAAA5D"/>
<path d="M263.701 338.683L231.297 280.474L226.619 283.09L259.933 340.812L263.701 338.683Z" fill="#CAAA5D"/>
<path d="M227.738 325.8L218.144 286.349L212.979 287.778L223.573 326.973L227.738 325.8Z" fill="#CAAA5D"/>
<path d="M203.717 333.316L204.749 288.944L199.39 288.919L199.39 333.315L203.717 333.316Z" fill="#CAAA5D"/>
<path d="M304.436 173.898L246.35 207.881L249.083 212.49L306.66 177.611L304.436 173.898Z" fill="#CAAA5D"/>
<path d="M265.445 169.255L237.351 196.964L241.157 200.736L268.532 172.288L265.445 169.255Z" fill="#CAAA5D"/>
<path d="M290.539 210.397L252.213 219.535L253.5 224.737L291.597 214.594L290.539 210.397Z" fill="#CAAA5D"/>
<path d="M322.278 234.232L254.777 233.201L254.665 238.559L322.208 238.559L322.278 234.232Z" fill="#CAAA5D"/>
<path d="M291.612 258.168L252.864 247.545L251.523 252.734L290.548 262.363L291.612 258.168Z" fill="#CAAA5D"/>
<path d="M307.179 294.669L248.842 260.872L246.129 265.493L305.005 298.41L307.179 294.669Z" fill="#CAAA5D"/>
<path d="M268.99 300.281L241.043 271.29L237.136 274.958L265.848 303.257L268.99 300.281Z" fill="#CAAA5D"/>
<path d="M263.701 338.683L231.297 280.474L226.619 283.09L259.933 340.812L263.701 338.683Z" fill="#CAAA5D"/>
<path d="M227.738 325.8L218.144 286.349L212.979 287.778L223.573 326.973L227.738 325.8Z" fill="#CAAA5D"/>
<path d="M203.717 333.316L204.749 288.944L199.39 288.919L199.39 333.315L203.717 333.316Z" fill="#CAAA5D"/>
<path d="M260.254 131L226 189.281L230.628 192L264 133.179L260.254 131Z" fill="#CAAA5D"/>
<path d="M223.514 146.659L213.613 184.222L218.839 185.407L227.738 147.597L223.514 146.659Z" fill="#CAAA5D"/>
<path d="M199.343 116.465L199.344 183.501L204.702 183.46L203.671 116.413L199.343 116.465Z" fill="#CAAA5D"/>
<path d="M137.164 169.548L165.257 197.257L161.451 201.029L134.077 172.581L137.164 169.548Z" fill="#CAAA5D"/>
<path d="M98.1723 174.191L156.259 208.174L153.526 212.783L95.9486 177.904L98.1723 174.191Z" fill="#CAAA5D"/>
<path d="M112.07 210.691L150.396 219.829L149.109 225.031L111.012 214.888L112.07 210.691Z" fill="#CAAA5D"/>
<path d="M80.3304 234.526L147.832 233.495L147.943 238.852L80.4011 238.853L80.3304 234.526Z" fill="#CAAA5D"/>
<path d="M110.996 258.462L149.744 247.839L151.086 253.028L112.061 262.657L110.996 258.462Z" fill="#CAAA5D"/>
<path d="M95.43 294.962L153.767 261.166L156.479 265.787L97.6039 298.704L95.43 294.962Z" fill="#CAAA5D"/>
<path d="M133.618 300.574L161.565 271.583L165.472 275.251L136.76 303.55L133.618 300.574Z" fill="#CAAA5D"/>
<path d="M138.908 338.977L171.312 280.768L175.989 283.384L142.675 341.106L138.908 338.977Z" fill="#CAAA5D"/>
<path d="M174.87 326.093L184.465 286.642L189.629 288.071L179.036 327.266L174.87 326.093Z" fill="#CAAA5D"/>
<path d="M198.891 333.61L197.86 289.238L203.219 289.213L203.219 333.609L198.891 333.61Z" fill="#CAAA5D"/>
<path d="M98.1723 174.191L156.259 208.174L153.526 212.783L95.9486 177.904L98.1723 174.191Z" fill="#CAAA5D"/>
<path d="M137.164 169.548L165.257 197.257L161.451 201.029L134.077 172.581L137.164 169.548Z" fill="#CAAA5D"/>
<path d="M112.07 210.691L150.396 219.829L149.109 225.031L111.012 214.888L112.07 210.691Z" fill="#CAAA5D"/>
<path d="M80.3304 234.526L147.832 233.495L147.943 238.852L80.4011 238.853L80.3304 234.526Z" fill="#CAAA5D"/>
<path d="M110.996 258.462L149.744 247.839L151.086 253.028L112.061 262.657L110.996 258.462Z" fill="#CAAA5D"/>
<path d="M95.43 294.962L153.767 261.166L156.479 265.787L97.6039 298.704L95.43 294.962Z" fill="#CAAA5D"/>
<path d="M133.618 300.574L161.565 271.583L165.472 275.251L136.76 303.55L133.618 300.574Z" fill="#CAAA5D"/>
<path d="M138.908 338.977L171.312 280.768L175.989 283.384L142.675 341.106L138.908 338.977Z" fill="#CAAA5D"/>
<path d="M174.87 326.093L184.465 286.642L189.629 288.071L179.036 327.266L174.87 326.093Z" fill="#CAAA5D"/>
<path d="M198.891 333.61L197.86 289.238L203.219 289.213L203.219 333.609L198.891 333.61Z" fill="#CAAA5D"/>
<path d="M142.746 132L177 189.326L172.372 192L139 134.143L142.746 132Z" fill="#CAAA5D"/>
<path d="M179.095 146.952L188.995 184.515L183.769 185.7L174.87 147.89L179.095 146.952Z" fill="#CAAA5D"/>
<path d="M203.265 116.758L203.265 183.794L197.906 183.753L198.938 116.706L203.265 116.758Z" fill="#CAAA5D"/>
<path d="M247 235C247 260.405 226.405 281 201 281C175.595 281 155 260.405 155 235C155 209.595 175.595 189 201 189C226.405 189 247 209.595 247 235Z" fill="#D0B061"/>
<path d="M207.341 356.669C211.032 357.435 214.466 358.931 217.5 361.001L232.216 354.41L226.153 369.936L225.783 369.607C227.721 372.678 229.126 376.139 229.858 379.854L244 386.081L229.891 391.584C229.188 395.27 227.825 398.71 225.933 401.77L231.764 415.932L217.478 410.63C212.929 413.729 207.48 415.534 201.621 415.534C195.649 415.534 190.102 413.66 185.501 410.451L170.927 416L176.914 401.113C175.261 398.28 174.053 395.141 173.39 391.797L173.384 392.082L158 386.081L173.51 379.252C174.246 375.878 175.538 372.722 177.282 369.89L171.446 354.949L185.433 361.213C188.413 359.122 191.794 357.593 195.431 356.772L201.449 342L207.341 356.669Z" fill="#D1AD5F"/>
<path d="M211 426.347V418C211 418 205.481 419.043 201.771 419.043C198.061 419.043 192 418 192 418V426.347C192 428.364 195.8 429.999 195.8 429.999C198.126 429.845 199.949 429.984 201.771 429.999C203.594 430.013 204.874 429.902 207.2 429.999C207.2 429.999 211 428.225 211 426.347Z" fill="#CFAD5E"/>
<path d="M195 428H207V502H195V428Z" fill="#D0AD5F"/>
<path d="M192 510.357C192 507.398 194.363 505 197.278 505H205.722C208.637 505 211 507.398 211 510.357V559.643C211 562.602 208.637 565 205.722 565H197.278C194.363 565 192 562.602 192 559.643V510.357Z" fill="#D1AD5F"/>
</svg>
