<svg width="24" height="24" viewBox="0 0 24 24" fill="none" xmlns="http://www.w3.org/2000/svg">
<path d="M5.0219 7.73428C5.0219 7.28077 5.04885 6.83331 5.10118 6.39345C3.43502 8.0024 2.39998 10.2591 2.39998 12.7562C2.39998 17.6405 6.35951 21.6 11.2438 21.6C13.7409 21.6 15.9976 20.565 17.6065 18.8988C17.1667 18.9511 16.7192 18.9781 16.2658 18.9781C10.0559 18.9781 5.0219 13.9441 5.0219 7.73428ZM18.6 12V10.2H16.8C16.1373 10.2 15.6 9.66274 15.6 9.00001C15.6 8.33727 16.1373 7.79999 16.8 7.79998H18.6V5.99998C18.6 5.33725 19.1373 4.79999 19.8 4.79999C20.4628 4.8 21 5.33725 21 5.99998V7.79998H22.8C23.4628 7.79998 24 8.33727 24 9.00001C24 9.66275 23.4627 10.2 22.8 10.2H21V12C21 12.6627 20.4628 13.2 19.8 13.2C19.1373 13.2 18.6 12.6627 18.6 12ZM12 4.79999V4.19998H11.4C10.7373 4.19997 10.2 3.66273 10.2 2.99999C10.2 2.33725 10.7373 1.80001 11.4 1.8H12V1.19999C12 0.537251 12.5373 6.08594e-06 13.2 0C13.8627 0 14.4 0.537247 14.4 1.19999V1.8H15C15.6627 1.8 16.2 2.33725 16.2 2.99999C16.2 3.66273 15.6627 4.19998 15 4.19998H14.4V4.79999C14.4 5.46274 13.8627 5.99998 13.2 5.99998C12.5373 5.99998 12 5.46273 12 4.79999ZM7.42191 7.73428C7.42192 12.6186 11.3814 16.5781 16.2658 16.5781C17.5656 16.5781 18.797 16.2985 19.9055 15.7971C20.3605 15.5913 20.8954 15.6888 21.2485 16.042C21.6016 16.3951 21.6992 16.9299 21.4934 17.385C19.7303 21.2835 15.8055 24 11.2438 24C5.03402 24 3.28133e-06 18.966 0 12.7562C0 8.19441 2.71654 4.26968 6.61508 2.50661C7.07008 2.30084 7.60497 2.39836 7.95808 2.75147C8.31118 3.10458 8.40868 3.63947 8.20291 4.09448C7.70157 5.20304 7.42191 6.43438 7.42191 7.73428Z" fill="white"/>
</svg>
