<svg width="62" height="58" viewBox="0 0 62 58" fill="none" xmlns="http://www.w3.org/2000/svg">
<g filter="url(#filter0_d_278_3964)">
<circle cx="33" cy="29" r="29" fill="#EC9112"/>
<circle cx="33" cy="29" r="28.5" stroke="#EC9112"/>
</g>
<path d="M34.6243 43V40.5227C37.1563 40.3914 39.0813 39.7023 40.5688 38.4555C42.0563 37.2086 42.8001 35.5516 42.8001 33.632C42.8001 31.5648 42.1985 30.0391 40.8696 29.0711C39.5243 27.9719 37.5993 27.1352 34.7665 26.5938H34.6243V20.2391C36.5548 20.518 38.1954 21.0594 39.8251 22.175L42.2095 19.1398C39.8251 17.6141 37.2931 16.7937 34.6188 16.6625V15H32.3876V16.657C30.1563 16.7883 28.2149 17.4773 26.7274 18.7242C25.2399 19.9711 24.4962 21.6281 24.4962 23.5477C24.4962 25.4672 25.0978 26.993 26.4267 27.9609C27.6134 28.9289 29.697 29.7492 32.3712 30.307V36.7875C30.2821 36.5086 28.1985 35.5406 26.1259 33.8836L23.4517 36.7875C26.1259 39.0023 29.1118 40.2328 32.3821 40.5117V43H34.6243ZM34.7665 30.9906C36.254 31.4008 37.1509 31.8109 37.7415 32.2375C38.1845 32.7953 38.4853 33.3367 38.4853 34.1734C38.4853 35.0102 38.1845 35.5516 37.4407 36.1094C36.697 36.6672 35.7946 36.9297 34.7665 37.0773V30.9906ZM29.5657 25.0625C29.1228 24.6523 28.822 23.9633 28.822 23.2742C28.822 22.4539 29.1228 21.8961 29.7079 21.3383C30.4517 20.7805 31.1954 20.518 32.3821 20.3703V26.3094C30.8946 25.8828 30.0087 25.4727 29.5657 25.0625Z" fill="#804D04"/>
<defs>
<filter id="filter0_d_278_3964" x="0" y="0" width="62" height="58" filterUnits="userSpaceOnUse" color-interpolation-filters="sRGB">
<feFlood flood-opacity="0" result="BackgroundImageFix"/>
<feColorMatrix in="SourceAlpha" type="matrix" values="0 0 0 0 0 0 0 0 0 0 0 0 0 0 0 0 0 0 127 0" result="hardAlpha"/>
<feOffset dx="-4"/>
<feComposite in2="hardAlpha" operator="out"/>
<feColorMatrix type="matrix" values="0 0 0 0 0.419231 0 0 0 0 0.269808 0 0 0 0 0.0612721 0 0 0 1 0"/>
<feBlend mode="normal" in2="BackgroundImageFix" result="effect1_dropShadow_278_3964"/>
<feBlend mode="normal" in="SourceGraphic" in2="effect1_dropShadow_278_3964" result="shape"/>
</filter>
</defs>
</svg>
