<svg width="42" height="42" viewBox="0 0 42 42" fill="none" xmlns="http://www.w3.org/2000/svg">
<path d="M14.7977 5.81036L17.2814 7.75986L14.4997 8.95371L14.7977 5.81036Z" fill="white"/>
<path d="M10.3294 8.10684L13.3882 9.43541L11.0534 11.3621L10.3294 8.10684Z" fill="white"/>
<path d="M6.9341 11.3448L10.4457 11.8897L8.75164 14.3984L6.9341 11.3448Z" fill="white"/>
<path d="M4.55768 15.8572L8.36406 15.2468L7.39814 18.4635L4.55768 15.8572Z" fill="white"/>
<circle cx="21" cy="21" r="12" fill="#2A0808"/>
<path d="M21.25 21.25H33.5C33.5 28.0155 28.0155 33.5 21.25 33.5C14.4845 33.5 9 28.0155 9 21.25C9 14.4845 14.4845 9 21.25 9C24.6327 9 27.6952 10.3711 29.9121 12.5879" stroke="#670606" stroke-width="4" stroke-linecap="round" stroke-linejoin="round"/>
<path d="M28.3867 17.3038C28.0652 17.9872 25.9774 17.6008 25.3668 17.3135C24.7562 17.0263 23.1852 15.5298 23.5067 14.8463C23.8282 14.1629 25.9204 14.5514 26.531 14.8386C27.1416 15.1258 28.7082 16.6204 28.3867 17.3038Z" fill="white"/>
<path d="M27.4421 17.0836C27.0338 17.6871 26.1034 17.7708 25.3641 17.2706C24.6248 16.7704 24.3564 15.8756 24.7648 15.2721C25.1731 14.6686 26.1035 14.5848 26.8428 15.0851C27.5822 15.5853 27.8505 16.4801 27.4421 17.0836Z" fill="#FFF41A"/>
<path d="M27.0184 16.4622C26.7844 16.9395 26.0398 17.6527 25.544 17.4096C25.0481 17.1665 24.8864 15.9995 25.1204 15.5223C25.3544 15.045 26.1062 14.8167 26.6021 15.0598C27.098 15.3029 27.2524 15.985 27.0184 16.4622Z" fill="black"/>
<path d="M29 17C28.7206 17.4764 26.7703 15.7634 26.2939 15.4841C25.8175 15.2047 23.2205 14.4764 23.4999 14C23.7793 13.5236 26.8293 13.4795 27.3057 13.7589C27.7821 14.0383 29.2794 16.5236 29 17Z" fill="#970E0E"/>
</svg>
