<svg width="74" height="74" viewBox="0 0 74 74" fill="none" xmlns="http://www.w3.org/2000/svg">
<g filter="url(#filter0_d_247_10992)">
<g filter="url(#filter1_ii_247_10992)">
<circle cx="37" cy="33" r="33" fill="#43150A"/>
</g>
<circle cx="37" cy="33" r="32.5" stroke="#FBB002"/>
<path d="M44.0023 32.7693L41.5574 30.4256L50.4364 19.0275C50.4629 19.0691 50.4922 19.1147 50.5236 19.1628C50.6555 19.3646 50.8291 19.618 50.9851 19.805C51.3417 20.2325 51.5795 20.4469 52.0015 20.78C52.2095 20.9443 52.4862 21.123 52.7065 21.2583C52.7714 21.2982 52.8321 21.3345 52.8853 21.3663L44.0023 32.7693Z" fill="#A56C41"/>
<path d="M50.5817 18.9181C50.6078 18.9591 50.6367 19.004 50.6675 19.0512C50.7986 19.2517 50.967 19.4968 51.1152 19.6743C51.461 20.0887 51.6885 20.294 52.1032 20.6212L52.1032 20.6213C52.3023 20.7785 52.5715 20.9524 52.7907 21.087C52.8546 21.1262 52.9145 21.1622 52.9675 21.1937L53.1666 21.3123L44.0235 33.0437L41.3055 30.4393L50.4482 18.7084L50.5817 18.9181ZM41.8073 30.4066L43.98 32.4883L52.6071 21.4189C52.3883 21.2841 52.1129 21.1061 51.9015 20.9392C51.4722 20.6004 51.2239 20.3769 50.8565 19.9366C50.711 19.7624 50.5536 19.5367 50.4273 19.3463L41.8073 30.4066Z" fill="#2F1C1E"/>
<path d="M51.8758 20.9114L52.146 21.1028L52.4404 21.2981L52.6177 21.4112L43.6847 33.2839L43.4583 33.0657L42.8785 32.5068L51.8758 20.9114Z" fill="#6B3829"/>
<path d="M51.1286 15.3812C50.379 16.5035 50.6059 19.0045 50.6059 19.0045C50.6059 19.0045 51.4439 19.8733 52.0001 20.3987C52.5976 20.963 53.3943 21.0958 53.3943 21.0958C53.3943 21.0958 55.3804 20.5294 56.2419 19.6203C56.7936 19.0382 57.3101 17.8664 57.3101 17.8664L57.577 14.8219L58.0032 11.3362C58.0032 11.3362 56.3692 11.7805 55.1693 12.4306C53.8907 13.1233 51.9952 14.3898 51.9952 14.3898C51.9952 14.3898 51.4152 14.9521 51.1286 15.3812Z" fill="#EFE8E3"/>
<path d="M53.3676 21.4279L53.2613 21.4681L53.1603 21.4177L53.279 21.1633L53.3676 21.4279ZM57.9733 14.8568C57.9733 14.8568 57.9723 14.8683 57.9717 14.8756C57.8708 16.0698 57.3244 17.8754 57.3244 17.8754L57.3173 17.9081L57.3032 17.9381L57.3013 17.942C57.3013 17.942 57.2987 17.9476 57.2967 17.9518C57.2927 17.9603 57.2868 17.9726 57.2792 17.9884C57.2639 18.0199 57.2418 18.0652 57.2138 18.1211C57.1577 18.233 57.0778 18.3881 56.9823 18.5611C56.7942 18.9022 56.535 19.3325 56.2714 19.6363C55.8101 20.1677 55.0713 20.6158 54.4744 20.9246C54.1713 21.0814 53.8957 21.2067 53.6958 21.2929C53.5958 21.3361 53.5145 21.3696 53.4578 21.3924C53.4295 21.4038 53.4072 21.4124 53.392 21.4184C53.3843 21.4214 53.3784 21.4237 53.3743 21.4253L53.3696 21.4271L53.3676 21.4279L53.279 21.1633L53.1603 21.4177L53.1565 21.4158C53.1565 21.4158 53.151 21.4129 53.1468 21.4108C53.1383 21.4065 53.1259 21.4002 53.1102 21.3921C53.0788 21.3759 53.0336 21.3523 52.9778 21.3224C52.8664 21.2627 52.712 21.1776 52.5398 21.0756C52.2002 20.8745 51.7729 20.5973 51.4741 20.3134C51.1959 20.0491 50.9087 19.6647 50.6968 19.3581C50.5894 19.2026 50.4984 19.0628 50.4343 18.9618C50.4022 18.9113 50.3767 18.8704 50.3592 18.8419C50.3504 18.8277 50.3436 18.8165 50.3389 18.8088C50.3366 18.805 50.3335 18.7999 50.3335 18.7999L50.3321 18.7975L50.287 18.7225L50.2911 18.6346L50.2912 18.6323L50.2915 18.6271C50.2917 18.6226 50.292 18.6162 50.2925 18.6079C50.2934 18.5913 50.2948 18.5673 50.2969 18.5366C50.3011 18.4751 50.3079 18.3868 50.3181 18.278C50.3385 18.0604 50.3732 17.759 50.4301 17.4237C50.542 16.7652 50.7473 15.929 51.1303 15.3527C51.2762 15.1329 51.4897 14.8885 51.6589 14.7058C51.7449 14.6128 51.8223 14.5328 51.8783 14.476C51.9063 14.4475 51.929 14.4248 51.9448 14.409C51.9528 14.4012 51.959 14.395 51.9633 14.3908C51.9655 14.3887 51.9683 14.3859 51.9683 14.3859L51.9697 14.3845L51.9883 14.3664L52.009 14.3525L52.1523 14.5887C52.009 14.3525 52.009 14.3525 52.009 14.3525L52.0104 14.3515C52.0104 14.3515 52.0109 14.3512 52.0143 14.349C52.0177 14.3467 52.0228 14.3432 52.0294 14.3388C52.0427 14.3299 52.0623 14.3168 52.0876 14.2999C52.1382 14.2662 52.2116 14.2174 52.3034 14.1568C52.487 14.0357 52.7441 13.8675 53.0384 13.679C53.6254 13.3029 54.366 12.8426 54.9659 12.5153C55.5288 12.2081 56.2641 11.8565 56.855 11.5832C57.1512 11.4462 57.4125 11.3282 57.5998 11.2445C57.6935 11.2026 57.7687 11.1692 57.8206 11.1463C57.8465 11.1348 57.8666 11.126 57.8802 11.1201C57.887 11.1171 57.8922 11.1147 57.8957 11.1132L57.8997 11.1114L57.9011 11.1109L58.3094 10.9324L57.9733 14.8568ZM57.6943 11.8119C57.522 11.8893 57.3059 11.9873 57.067 12.0978C56.4781 12.3702 55.7562 12.7156 55.2096 13.0139C54.6272 13.3316 53.3149 14.1582 53.3149 14.1582L52.5861 14.6321C52.5861 14.6321 52.4223 14.7404 52.3724 14.7737C52.3485 14.7896 52.3169 14.8106 52.3169 14.8106C52.3169 14.8106 52.3369 14.7904 52.3127 14.8149C52.2885 14.8394 52.2769 14.8507 52.2505 14.8775C52.1976 14.9312 52.043 15.0948 52.043 15.0948C52.043 15.0948 51.7316 15.4279 51.5708 15.6699C51.1508 16.3021 51.0699 16.8679 50.96 17.515C50.906 17.8324 50.8731 18.1187 50.8537 18.3255C50.8441 18.4273 50.8379 18.5096 50.834 18.5664C50.8479 18.5886 50.8645 18.6154 50.8838 18.6458C50.945 18.7422 51.0319 18.8758 51.1344 19.0241C51.3424 19.3251 51.6034 19.6703 51.8389 19.8941C52.0919 20.1344 52.4759 20.387 52.8096 20.5846C52.974 20.6819 53.1217 20.7634 53.2282 20.8204C53.2533 20.8339 53.2763 20.8457 53.2965 20.8563C53.3476 20.8355 53.4155 20.8077 53.4965 20.7728C53.6879 20.6902 53.9517 20.5702 54.2411 20.4205C54.8291 20.1164 55.3602 19.85 55.8751 19.2607C56.1753 18.9171 56.5171 18.2845 56.5171 18.2845C56.6081 18.1196 56.6843 17.9717 56.7378 17.865C56.7645 17.8118 56.7996 17.7396 56.7996 17.7396L56.8065 17.725C57.3042 16.6654 57.4388 14.7949 57.4388 14.7949L57.6943 11.8119Z" fill="#2F1A1E"/>
<path d="M57.2025 15.3074L57.44 13.6789L51.9612 19.9319C51.9612 19.9319 52.6834 20.4035 52.6971 20.3987C52.7107 20.3939 55.1305 19.8662 56.0568 18.9562C56.4733 18.547 56.6095 17.7784 56.6095 17.7784L57.2025 15.3074Z" fill="#BBB7B6"/>
<path d="M49.8077 20.129C49.8095 20.1316 49.8121 20.1363 49.8161 20.1422C49.8242 20.1541 49.8367 20.1724 49.8533 20.1962C49.8866 20.2439 49.9361 20.3139 49.9998 20.4003C50.1276 20.5738 50.3107 20.8117 50.5291 21.0665C50.9813 21.594 51.5291 22.127 52.0272 22.3761L51.4774 23.4756C50.7464 23.1101 50.0649 22.4138 49.5952 21.8659C49.3529 21.5832 49.1517 21.3214 49.0107 21.1301C48.94 21.0342 48.8837 20.9551 48.845 20.8996C48.8259 20.8722 48.8111 20.8502 48.8006 20.8348C48.7954 20.8272 48.7903 20.8211 48.7874 20.8168C48.7859 20.8146 48.7847 20.8121 48.7838 20.8108L48.7838 20.8096L48.7826 20.8084L49.8053 20.1266C49.8056 20.1271 49.8068 20.1277 49.8077 20.129Z" fill="#2F1C1E"/>
<path d="M22.6352 19.9882L19.9681 16.7316C19.9681 16.7316 18.0971 17.3825 16.9054 17.177C15.2985 16.8999 13.3412 14.7926 13.3412 14.7926C13.3412 14.7926 12.7904 18.521 13.321 20.7865C14.1293 24.238 15.5409 26.2518 18.3252 28.0402C20.3425 29.3359 23.8286 29.4138 23.8286 29.4138C23.8286 29.4138 21.9167 26.8055 21.6961 24.5817C21.4468 22.0692 22.6352 19.9882 22.6352 19.9882Z" fill="#EAE6E1"/>
<path d="M13.4437 14.6743C13.4438 14.6743 13.4439 14.6744 13.444 14.6745C13.4442 14.6747 13.4445 14.675 13.4449 14.6755C13.4457 14.6764 13.4471 14.6778 13.4488 14.6796C13.4524 14.6834 13.4578 14.6892 13.4649 14.6967C13.4792 14.7118 13.5006 14.7341 13.5285 14.7627C13.5842 14.8199 13.6658 14.9022 13.7689 15.0019C13.9752 15.2016 14.2668 15.4706 14.6077 15.748C15.2954 16.3075 16.162 16.8824 16.9279 17.0145C17.4966 17.1125 18.2407 17.0065 18.8548 16.87C19.1593 16.8024 19.4272 16.7283 19.619 16.6712C19.7148 16.6426 19.7914 16.6183 19.844 16.6013C19.8702 16.5927 19.8905 16.586 19.904 16.5815C19.9108 16.5792 19.9159 16.5774 19.9193 16.5762C19.921 16.5757 19.9222 16.5752 19.923 16.575C19.9234 16.5748 19.9237 16.5747 19.9239 16.5746L19.9241 16.5746L20.0137 16.5434L22.8203 19.9703L22.7596 20.0764L22.7597 20.0764C22.7597 20.0764 22.7597 20.0765 22.7596 20.0766C22.7596 20.0767 22.7594 20.077 22.7592 20.0774C22.7588 20.0781 22.7581 20.0794 22.7571 20.0811C22.7551 20.0847 22.752 20.0902 22.748 20.0976C22.7399 20.1124 22.7278 20.135 22.7124 20.1648C22.6815 20.2244 22.6373 20.313 22.5848 20.4275C22.4797 20.6566 22.3416 20.9885 22.2112 21.3978C21.9499 22.2174 21.7214 23.3399 21.8428 24.5636C21.9494 25.6384 22.4683 26.821 22.9713 27.7464C23.2214 28.2065 23.4648 28.5981 23.6457 28.8745C23.736 29.0127 23.8107 29.122 23.8626 29.1964C23.8885 29.2337 23.9088 29.2623 23.9225 29.2814C23.9293 29.2909 23.9345 29.2981 23.938 29.3029C23.9397 29.3052 23.9409 29.307 23.9418 29.3082L23.9429 29.3097L24.145 29.5853L23.8256 29.5782C23.8256 29.5782 23.8255 29.5782 23.8254 29.5782C23.8253 29.5782 23.8251 29.5781 23.8248 29.5781C23.8243 29.5781 23.8237 29.5781 23.8228 29.5781C23.8209 29.5781 23.8183 29.578 23.8148 29.5779C23.8079 29.5777 23.7978 29.5774 23.7845 29.5769C23.7579 29.576 23.7189 29.5746 23.6687 29.5722C23.5682 29.5675 23.4229 29.5593 23.2422 29.5454C22.8811 29.5177 22.3785 29.4671 21.8122 29.3756C20.6842 29.1935 19.2853 28.8467 18.2515 28.1826C16.8478 27.281 15.7822 26.3175 14.9653 25.1375C14.1482 23.9573 13.5859 22.5693 13.1781 20.828C12.9065 19.6682 12.9133 18.1473 12.9849 16.9292C13.0208 16.3176 13.0734 15.7774 13.117 15.39C13.1388 15.1963 13.1584 15.0406 13.1726 14.9332C13.1796 14.8795 13.1854 14.8379 13.1894 14.8095C13.1913 14.7954 13.1929 14.7845 13.1939 14.7772C13.1945 14.7735 13.1949 14.7707 13.1951 14.7688C13.1953 14.7679 13.1954 14.7671 13.1955 14.7666C13.1955 14.7664 13.1956 14.7662 13.1956 14.766L13.1956 14.7659C13.1956 14.7659 13.1956 14.7658 13.3412 14.7925L13.1956 14.7658L13.2413 14.4563L13.4437 14.6743ZM13.4465 15.1237C13.4357 15.2103 13.4231 15.3135 13.4099 15.431C13.3668 15.8135 13.3148 16.347 13.2794 16.9507C13.2081 18.1631 13.2048 19.6393 13.4637 20.7449C13.8642 22.4551 14.412 23.7998 15.1989 24.9365C15.986 26.0734 17.0184 27.0109 18.3989 27.8976C19.3824 28.5293 20.7352 28.8694 21.8545 29.0501C22.4119 29.1401 22.907 29.1899 23.2625 29.2172C23.3582 29.2246 23.4437 29.2302 23.5176 29.2346C23.4842 29.185 23.4471 29.1294 23.4072 29.0683C23.2226 28.7862 22.9743 28.3867 22.7189 27.9168C22.2107 26.982 21.6634 25.7486 21.5494 24.5997C21.4215 23.3109 21.6625 22.1366 21.9331 21.2877C22.0686 20.8626 22.212 20.5173 22.322 20.2777C22.3745 20.1632 22.4195 20.0726 22.4523 20.009L19.9214 16.9187C19.8672 16.9362 19.7903 16.9606 19.6952 16.989C19.4989 17.0475 19.2246 17.1233 18.9125 17.1926C18.2932 17.3302 17.5059 17.447 16.8828 17.3396C16.0419 17.1945 15.1264 16.5772 14.4337 16.0137C14.0845 15.7295 13.7862 15.4544 13.5754 15.2503C13.5278 15.2043 13.4848 15.1619 13.4465 15.1237Z" fill="#2F1A1E"/>
<path d="M16.8367 17.7189C18.1891 18.109 20.323 17.4444 20.323 17.4444L22.4427 20.0138C22.4427 20.0138 21.3792 22.0971 21.2267 24.0069C21.1021 25.5694 22.3801 28.1388 22.3801 28.1388C22.3801 28.1388 17.8859 27.0222 15.5096 22.5349C14.2964 20.2439 14.1195 16.1597 14.1195 16.1597C14.1195 16.1597 15.6738 17.3836 16.8367 17.7189Z" fill="#DBD9D7"/>
<path d="M24.4065 13.3124C24.1154 14.4334 22.5501 15.3034 22.4686 15.3786L23.7458 16.942C23.7458 16.942 24.161 16.1473 24.4756 15.6388C24.8188 15.0841 25.0131 14.7689 25.4404 14.2943C25.977 13.6986 26.3395 13.4253 26.9938 12.9999C27.2666 12.8226 27.5861 12.618 27.5861 12.618C27.5861 12.618 28.0556 12.3615 28.2765 12.2194C28.2765 12.2194 26.9626 11.908 26.121 11.8888C25.4645 11.8739 24.4756 11.9963 24.4756 11.9963C24.4756 11.9963 24.535 12.8179 24.4065 13.3124Z" fill="#DFDFDE"/>
<path d="M25.0406 11.7731C25.3709 11.7442 25.7882 11.7168 26.124 11.7244C26.556 11.7343 27.1037 11.8186 27.5386 11.8991C27.757 11.9395 27.9489 11.9793 28.0862 12.009C28.1549 12.0238 28.21 12.0362 28.248 12.0448C28.267 12.0492 28.2817 12.0526 28.2917 12.0549C28.2967 12.0561 28.3005 12.057 28.3031 12.0576C28.3044 12.0579 28.3055 12.0581 28.3061 12.0583C28.3065 12.0583 28.3068 12.0584 28.3069 12.0585C28.307 12.0585 28.3071 12.0585 28.3071 12.0585H28.3072L28.6833 12.1477L28.3503 12.3619C28.2359 12.4355 28.06 12.537 27.9152 12.6188C27.8422 12.66 27.7762 12.6966 27.7285 12.723C27.7046 12.7362 27.6853 12.7469 27.6719 12.7543C27.6653 12.7579 27.66 12.7608 27.6565 12.7627C27.6562 12.7629 27.6558 12.7631 27.6555 12.7633C27.6531 12.7648 27.6497 12.767 27.6454 12.7697C27.6361 12.7757 27.6226 12.7844 27.6055 12.7953C27.5714 12.8172 27.5229 12.8484 27.466 12.885C27.3521 12.9583 27.2042 13.0536 27.0681 13.1421C26.4205 13.5631 26.0693 13.8282 25.5446 14.4109C25.1275 14.874 24.9396 15.1785 24.5971 15.7323C24.4423 15.9825 24.2616 16.305 24.1188 16.5666C24.0476 16.6971 23.9862 16.8118 23.9426 16.8938C23.9208 16.9348 23.9034 16.9677 23.8915 16.9902C23.8856 17.0015 23.881 17.0102 23.8779 17.0161C23.8764 17.019 23.8753 17.0212 23.8745 17.0227C23.8741 17.0234 23.8738 17.024 23.8736 17.0243C23.8735 17.0245 23.8734 17.0246 23.8734 17.0247L23.8733 17.0248L23.7721 17.2186L22.2554 15.3619L22.3745 15.252C22.3897 15.238 22.4108 15.2237 22.4243 15.2146C22.4415 15.203 22.4638 15.1885 22.4891 15.1721C22.5405 15.1388 22.6084 15.095 22.6885 15.041C22.8488 14.933 23.0566 14.7853 23.2702 14.6063C23.705 14.2419 24.1336 13.7718 24.2648 13.2668C24.323 13.0426 24.3405 12.7328 24.3417 12.4682C24.3423 12.338 24.3389 12.2228 24.3354 12.1402C24.3337 12.0989 24.332 12.0659 24.3307 12.0434C24.33 12.0321 24.3294 12.0235 24.329 12.0177C24.3289 12.0149 24.3287 12.0127 24.3286 12.0114C24.3286 12.0107 24.3285 12.0102 24.3285 12.0099C24.3285 12.0098 24.3285 12.0097 24.3285 12.0096L24.317 11.8506L24.4593 11.833L24.4594 11.8329C24.4594 11.8329 24.4595 11.8329 24.4596 11.8329C24.4597 11.8329 24.4599 11.8329 24.4601 11.8328C24.4606 11.8328 24.4614 11.8327 24.4624 11.8326C24.4643 11.8323 24.4672 11.8319 24.471 11.8315C24.4785 11.8306 24.4896 11.8293 24.5039 11.8276C24.5326 11.8243 24.5741 11.8195 24.626 11.8138C24.7297 11.8025 24.8748 11.7875 25.0406 11.7731ZM26.118 12.0533C25.7973 12.046 25.3919 12.0723 25.0637 12.101C24.9002 12.1153 24.757 12.13 24.6548 12.1412C24.6466 12.1421 24.6386 12.143 24.631 12.1438C24.6343 12.229 24.6374 12.3425 24.6368 12.4698C24.6356 12.7396 24.6185 13.0878 24.5483 13.3583C24.3883 13.9741 23.8887 14.4995 23.4477 14.8692C23.2234 15.0572 23.0064 15.2112 22.8412 15.3225C22.788 15.3583 22.74 15.3897 22.699 15.4164L23.7204 16.6667C23.7606 16.5914 23.8106 16.4984 23.8666 16.3957C23.9922 16.1657 24.1489 15.885 24.2932 15.6454L24.3541 15.5455C24.6979 14.9898 24.8986 14.6638 25.3363 14.1779C25.8846 13.569 26.2585 13.2877 26.9195 12.858C27.0561 12.7691 27.2044 12.6734 27.3184 12.6001C27.3755 12.5634 27.424 12.5322 27.4582 12.5102C27.4754 12.4993 27.489 12.4906 27.4983 12.4846C27.5029 12.4816 27.5065 12.4793 27.5089 12.4778C27.5101 12.477 27.511 12.4765 27.5116 12.4761C27.5119 12.4759 27.5122 12.4757 27.5123 12.4756L27.5125 12.4755L27.5168 12.4727L27.5211 12.4704H27.5212C27.5213 12.4703 27.5213 12.4703 27.5214 12.4702C27.5216 12.4701 27.522 12.4699 27.5224 12.4696C27.5233 12.4692 27.5246 12.4685 27.5263 12.4675C27.5297 12.4656 27.5349 12.4629 27.5414 12.4592C27.5546 12.452 27.5737 12.4415 27.5972 12.4285C27.6444 12.4023 27.7097 12.366 27.7817 12.3253C27.8009 12.3145 27.8204 12.3033 27.8402 12.292C27.7366 12.2707 27.618 12.2472 27.4902 12.2236C27.0577 12.1436 26.5276 12.0626 26.118 12.0533Z" fill="#2F1A1E"/>
<path d="M16.3673 10.2834C16.3482 10.2017 16.4196 10.13 16.4906 10.1596L21.1554 12.1067C21.2211 12.1342 21.2373 12.2294 21.1852 12.2817L17.7752 15.7046C17.7231 15.7569 17.6398 15.729 17.6221 15.6534L16.3673 10.2834Z" fill="#D9D7D4"/>
<path d="M16.2244 10.3248C16.1767 10.1206 16.3482 9.94086 16.5251 9.99918L16.5423 10.0056L21.2071 11.9527L21.2226 11.9598C21.3787 12.0386 21.4142 12.273 21.2839 12.4038L17.8739 15.8268C17.7396 15.9616 17.5248 15.8898 17.4792 15.6948L16.2244 10.3248ZM17.7424 15.5159L21.0202 12.2259L16.5363 10.3543L17.7424 15.5159Z" fill="#301A1E"/>
<path d="M20.373 13.2778C19.895 13.7871 18.9079 14.8195 18.7832 14.8751L25.4852 23.3126L27.0438 21.5417L20.373 13.2778Z" fill="#A96C3B"/>
<path d="M27.2463 21.5466L25.4797 23.5537L18.5337 14.8091L18.724 14.7242C18.7255 14.7232 18.7286 14.7211 18.7334 14.7175C18.744 14.7095 18.7585 14.6976 18.7771 14.6815C18.8142 14.6493 18.8628 14.6044 18.9208 14.5489C19.0366 14.438 19.1853 14.2892 19.346 14.1252C19.667 13.7976 20.0325 13.4131 20.271 13.1589L20.3809 13.0417L27.2463 21.5466ZM20.3647 13.5135C20.1313 13.761 19.8222 14.0852 19.5453 14.3678C19.3839 14.5326 19.2325 14.6842 19.1132 14.7984C19.0726 14.8372 19.0351 14.8722 19.0019 14.9023L25.4907 23.0714L26.8413 21.5367L20.3647 13.5135Z" fill="#2F1A1E"/>
<path d="M47.9904 51.8898C47.4139 52.2071 46.247 52.8505 46.1907 52.8863L48.646 56.2369L50.32 54.8375L47.9904 51.8898Z" fill="#A46B3D"/>
<path d="M50.516 55.1956C50.23 54.8423 48.6309 56.0024 48.8745 56.5113C49.118 57.0203 50.8767 57.7155 50.8767 57.7155C50.8767 57.7155 50.802 55.5488 50.516 55.1956Z" fill="#A46B3D"/>
<path d="M50.5364 54.8622L48.6213 56.463L45.9661 52.8396L46.1176 52.7433C46.179 52.7044 47.3533 52.057 47.9251 51.7422L48.0264 51.6864L50.5364 54.8622ZM47.9544 52.093C47.6714 52.2488 47.2905 52.4587 46.9611 52.6409C46.7757 52.7433 46.6067 52.837 46.4806 52.9072C46.4595 52.9189 46.4396 52.93 46.421 52.9404L48.6708 56.0105L50.1038 54.8126L47.9544 52.093Z" fill="#2F1A1E"/>
<path d="M50.3554 54.9654C50.4469 54.9668 50.5512 54.9936 50.6256 55.0854L50.6255 55.0855C50.6814 55.1545 50.7217 55.2522 50.7528 55.3507C50.7852 55.4532 50.8131 55.5746 50.8375 55.7049C50.8862 55.9657 50.923 56.276 50.9504 56.5711C50.9779 56.8671 50.9963 57.1514 51.0078 57.3614C51.0136 57.4666 51.0177 57.5533 51.0203 57.6138C51.0217 57.6441 51.0226 57.6678 51.0232 57.684C51.0235 57.6921 51.0238 57.6984 51.0239 57.7027C51.024 57.7048 51.024 57.7064 51.0241 57.7075C51.0241 57.708 51.0241 57.7085 51.0241 57.7088V57.7091C51.0239 57.7092 51.0178 57.7095 50.8767 57.7155L51.0241 57.7092L51.0325 57.9517L50.8273 57.8705L50.8272 57.8705C50.8272 57.8704 50.827 57.8705 50.8269 57.8704C50.8267 57.8703 50.8263 57.8701 50.8259 57.87C50.825 57.8696 50.8236 57.869 50.8219 57.8684C50.8184 57.867 50.8133 57.8649 50.8067 57.8623C50.7935 57.8569 50.7741 57.8491 50.7495 57.8389C50.7003 57.8186 50.6298 57.7892 50.5446 57.7523C50.3743 57.6784 50.1442 57.5745 49.906 57.4542C49.6684 57.3342 49.4194 57.1963 49.2127 57.0543C49.1093 56.9833 49.0139 56.9095 48.9348 56.8345C48.8573 56.761 48.7873 56.6787 48.7443 56.5887C48.6907 56.4767 48.6933 56.356 48.7217 56.248C48.7497 56.1418 48.8046 56.0378 48.8709 55.9414C49.0037 55.7482 49.203 55.5551 49.4132 55.3945C49.6237 55.2337 49.8556 55.0973 50.0592 55.0241C50.1605 54.9876 50.2625 54.964 50.3554 54.9654ZM50.3513 55.2943C50.3029 55.2935 50.235 55.3065 50.1499 55.3371C49.9809 55.398 49.7746 55.5172 49.5801 55.6658C49.3852 55.8147 49.2127 55.9851 49.1052 56.1414C49.0513 56.2198 49.019 56.2872 49.005 56.3405C48.9932 56.3854 48.9963 56.4116 49.0021 56.4277L49.0047 56.434C49.0226 56.4712 49.0608 56.522 49.1261 56.584C49.1899 56.6444 49.2718 56.7085 49.3675 56.7742C49.559 56.9057 49.7953 57.0371 50.0278 57.1545C50.2597 57.2716 50.4845 57.3732 50.6516 57.4457C50.6749 57.4558 50.6971 57.4652 50.718 57.4741C50.7166 57.4452 50.715 57.4143 50.7132 57.3816C50.7019 57.1743 50.6837 56.8949 50.6568 56.605C50.6298 56.3143 50.5943 56.0167 50.5485 55.7719C50.5257 55.6494 50.5008 55.5435 50.4744 55.46C50.4469 55.373 50.4224 55.3258 50.4067 55.3062C50.4053 55.305 50.3927 55.2949 50.3513 55.2943Z" fill="#2F1A1E"/>
<path d="M37.8669 27.034C39.8509 27.034 41.4593 25.2424 41.4593 23.0324C41.4593 20.8224 39.8509 19.0308 37.8669 19.0308C35.8828 19.0308 34.2744 20.8224 34.2744 23.0324C34.2744 25.2424 35.8828 27.034 37.8669 27.034Z" fill="#DA9E54"/>
<path d="M26.8256 52.6181C26.306 52.1204 25.2545 51.1042 25.2046 51.0209L21.7445 55.8125L21.9004 57.0973L23.2408 57.4098L26.8256 52.6181Z" fill="#A46C3E"/>
<path d="M25.3241 50.924C25.3254 50.9256 25.3277 50.9283 25.3313 50.9325C25.34 50.9425 25.3526 50.9563 25.3692 50.974C25.4024 51.0093 25.4485 51.0566 25.505 51.1137C25.6178 51.2276 25.7695 51.3773 25.9364 51.5404C26.2699 51.8666 26.6623 52.2447 26.9218 52.4933L27.0321 52.599L23.2974 57.5909L21.7681 57.2344L21.5898 55.7645L25.2158 50.743L25.3241 50.924ZM21.8993 55.8605L22.0327 56.96L23.1842 57.2285L26.6192 52.637C26.366 52.3939 26.0318 52.0714 25.7417 51.7877C25.5745 51.6242 25.4215 51.4731 25.3069 51.3575C25.2737 51.324 25.2436 51.2932 25.2171 51.2658L21.8993 55.8605Z" fill="#2F1A1E"/>
<path d="M24.2506 54.5277C24.0847 54.1058 23.5336 53.6597 23.5336 53.6597V53.5902L24.5623 52.1666L26.0897 53.3819L23.1907 57.2361L22.0374 56.9583C22.0374 56.9583 24.705 55.684 24.2506 54.5277Z" fill="#7C442D"/>
<path d="M25.7962 27.1004C27.1387 27.1004 28.2269 25.8882 28.2269 24.3929C28.2269 22.8975 27.1387 21.6853 25.7962 21.6853C24.4538 21.6853 23.3655 22.8975 23.3655 24.3929C23.3655 25.8882 24.4538 27.1004 25.7962 27.1004Z" fill="#DA9E54"/>
<path d="M28.0794 24.3929C28.0794 22.9885 27.0572 21.8498 25.7962 21.8498C24.5352 21.8498 23.5131 22.9885 23.5131 24.3929C23.5131 25.7974 24.5352 26.936 25.7962 26.936C27.0572 26.936 28.0794 25.7974 28.0794 24.3929ZM28.3745 24.3929C28.3745 25.9792 27.2201 27.265 25.7962 27.265C24.3723 27.265 23.2179 25.9792 23.2179 24.3929C23.2179 22.8067 24.3723 21.5209 25.7962 21.5209C27.2201 21.5209 28.3745 22.8067 28.3745 24.3929Z" fill="#301C1F"/>
<path fill-rule="evenodd" clip-rule="evenodd" d="M44.6565 28.9794C44.6228 28.5724 44.911 28.221 45.2779 28.2145C47.9005 28.1676 49.7494 27.9275 52.0804 29.4554C52.1178 29.48 52.1542 29.5103 52.1859 29.5435C54.2774 31.729 54.2881 33.3607 54.2882 36.664C54.2882 36.6977 54.2859 36.7329 54.2815 36.7662C53.8685 39.8953 53.5729 40.8049 51.6397 43.5313C49.6562 45.7407 48.0626 47.4154 45.4254 47.642C45.0821 47.6715 44.8019 47.3573 44.8019 46.9737V30.7341L44.6565 28.9794ZM50.7372 33.0538C49.6584 31.3715 47.5667 31.5185 45.8235 31.735C45.4733 31.7785 45.2261 32.1384 45.2773 32.5267L46.3024 40.3124C46.3198 40.4451 46.3024 40.5806 46.2523 40.7024L45.5885 42.3156C45.3993 42.7756 45.7273 43.2737 46.1272 43.5138C46.794 43.9142 46.5062 44.6395 47.5095 43.5308C47.5315 43.5066 47.5569 43.4821 47.5817 43.4615C49.1315 42.1803 49.8241 41.2771 50.703 39.5935C50.7256 39.5502 50.7441 39.5039 50.7576 39.456C51.3711 37.2815 51.8358 34.6217 50.7372 33.0538Z" fill="#713E2E"/>
<mask id="mask0_247_10992" style="mask-type:luminance" maskUnits="userSpaceOnUse" x="44" y="28" width="11" height="20">
<path fill-rule="evenodd" clip-rule="evenodd" d="M44.6565 28.9794C44.6228 28.5724 44.911 28.221 45.2779 28.2145C47.9005 28.1676 49.7494 27.9275 52.0804 29.4554C52.1178 29.48 52.1542 29.5103 52.1859 29.5435C54.2774 31.729 54.2881 33.3607 54.2882 36.664C54.2882 36.6977 54.2859 36.7329 54.2815 36.7662C53.8685 39.8953 53.5729 40.8049 51.6397 43.5313C49.6562 45.7407 48.0626 47.4154 45.4254 47.642C45.0821 47.6715 44.8019 47.3573 44.8019 46.9737V30.7341L44.6565 28.9794ZM50.7372 33.0538C49.6584 31.3715 47.5667 31.5185 45.8235 31.735C45.4733 31.7785 45.2261 32.1384 45.2773 32.5267L46.3024 40.3124C46.3198 40.4451 46.3024 40.5806 46.2523 40.7024L45.5885 42.3156C45.3993 42.7756 45.7273 43.2737 46.1272 43.5138C46.794 43.9142 46.5062 44.6395 47.5095 43.5308C47.5315 43.5066 47.5569 43.4821 47.5817 43.4615C49.1315 42.1803 49.8241 41.2771 50.703 39.5935C50.7256 39.5502 50.7441 39.5039 50.7576 39.456C51.3711 37.2815 51.8358 34.6217 50.7372 33.0538Z" fill="white"/>
</mask>
<g mask="url(#mask0_247_10992)">
<path fill-rule="evenodd" clip-rule="evenodd" d="M51.6397 43.5313L51.9924 43.9241L52.013 43.9011L52.0311 43.8756L51.6397 43.5313ZM44.802 30.734H45.3007V30.7084L45.2986 30.6829L44.802 30.734ZM50.7373 33.0538L50.3314 33.3767L50.3376 33.3863L50.3441 33.3956L50.7373 33.0538ZM45.278 28.2145L45.286 28.7699C47.9524 28.7223 49.6419 28.5015 51.8274 29.9342L52.0804 29.4554L52.3333 28.9765C49.857 27.3533 47.8487 27.6129 45.27 27.659L45.278 28.2145ZM52.186 29.5435L51.8447 29.9487C52.8391 30.9878 53.3049 31.8563 53.5397 32.8288C53.7832 33.8374 53.7895 34.9905 53.7895 36.664H54.2882H54.787C54.787 35.0341 54.7878 33.7197 54.503 32.5402C54.2095 31.3247 53.6242 30.2846 52.5272 29.1383L52.186 29.5435ZM54.2815 36.7661L53.7881 36.6854C53.5819 38.2477 53.4116 39.1944 53.0719 40.0819C52.7322 40.9695 52.2103 41.8302 51.2483 43.1869L51.6397 43.5313L52.0311 43.8756C53.0023 42.5059 53.5949 41.5488 53.9895 40.5177C54.3842 39.4864 54.5682 38.4138 54.775 36.847L54.2815 36.7661ZM51.6397 43.5313L51.287 43.1384C49.2935 45.359 47.8191 46.879 45.3871 47.0881L45.4255 47.642L45.4638 48.1959C48.3062 47.9516 50.0189 46.1222 51.9924 43.9241L51.6397 43.5313ZM44.802 46.9737H45.3007V30.734H44.802H44.3032V46.9737H44.802ZM44.802 30.734L45.2986 30.6829L45.1532 28.9282L44.6565 28.9793L44.1599 29.0304L44.3053 30.7851L44.802 30.734ZM50.7373 33.0538L51.1431 32.7308C50.4996 31.7273 49.562 31.2932 48.6036 31.1329C47.6567 30.9745 46.6394 31.0747 45.7683 31.1828L45.8236 31.7349L45.8789 32.2871C46.7509 32.1788 47.6511 32.0972 48.4555 32.2317C49.2485 32.3643 49.8961 32.6978 50.3314 33.3767L50.7373 33.0538ZM45.2773 32.5267L44.7838 32.6073L45.8089 40.3929L46.3024 40.3123L46.7959 40.2317L45.7707 32.4461L45.2773 32.5267ZM46.2523 40.7024L45.7989 40.4709L45.1351 42.084L45.5886 42.3155L46.0419 42.547L46.7057 40.9339L46.2523 40.7024ZM46.1272 43.5138L45.8905 44.0028C45.9836 44.0586 46.0445 44.1246 46.105 44.2031C46.1215 44.2245 46.1371 44.2457 46.1558 44.2711C46.173 44.2944 46.1949 44.324 46.2173 44.3527C46.2583 44.4051 46.3308 44.4936 46.4328 44.5627C46.5504 44.6424 46.6936 44.6881 46.8539 44.6713C46.998 44.6562 47.1209 44.594 47.2171 44.5309C47.4013 44.4102 47.6106 44.2017 47.8608 43.9252L47.5095 43.5308L47.1583 43.1364C46.9068 43.4143 46.7759 43.5309 46.7111 43.5734C46.6827 43.592 46.7039 43.571 46.7603 43.5651C46.8329 43.5574 46.9025 43.5804 46.9516 43.6137C46.9851 43.6365 46.9946 43.6549 46.9689 43.6222C46.958 43.6083 46.9456 43.5916 46.9267 43.5658C46.9091 43.542 46.8866 43.5115 46.8618 43.4793C46.7574 43.3439 46.6042 43.169 46.3639 43.0247L46.1272 43.5138ZM47.5817 43.4615L47.879 43.9076C49.4842 42.5805 50.222 41.6202 51.1342 39.8728L50.703 39.5935L50.2719 39.3143C49.4264 40.934 48.7789 41.7799 47.2845 43.0154L47.5817 43.4615ZM50.7576 39.456L51.2334 39.6226C51.545 38.5183 51.8286 37.2585 51.8875 36.0577C51.946 34.8643 51.7863 33.6481 51.1305 32.712L50.7373 33.0538L50.3441 33.3956C50.7868 34.0274 50.9441 34.925 50.8914 35.9971C50.8393 37.0618 50.5838 38.2192 50.2818 39.2895L50.7576 39.456ZM47.5095 43.5308L47.8608 43.9252C47.8671 43.9182 47.8746 43.9112 47.879 43.9076L47.5817 43.4615L47.2845 43.0154C47.2392 43.0528 47.1959 43.0948 47.1583 43.1364L47.5095 43.5308ZM45.5886 42.3155L45.1351 42.084C44.9571 42.5168 45.0377 42.9474 45.2035 43.2718C45.3651 43.5882 45.6217 43.8413 45.8905 44.0028L46.1272 43.5138L46.3639 43.0247C46.2328 42.9461 46.1255 42.83 46.0704 42.7223C46.0195 42.6227 46.0308 42.5742 46.0419 42.547L45.5886 42.3155ZM46.3024 40.3123L45.8089 40.3929C45.8124 40.4195 45.809 40.4465 45.7989 40.4709L46.2523 40.7024L46.7057 40.9339C46.796 40.7144 46.8273 40.4705 46.7959 40.2317L46.3024 40.3123ZM45.4255 47.642L45.3871 47.0881C45.3674 47.0897 45.3502 47.0834 45.3333 47.0652C45.315 47.0452 45.3007 47.0134 45.3007 46.9737H44.802H44.3032C44.3032 47.6518 44.8054 48.2525 45.4638 48.1959L45.4255 47.642ZM45.8236 31.7349L45.7683 31.1828C45.1353 31.2614 44.6921 31.9105 44.7838 32.6073L45.2773 32.5267L45.7707 32.4461C45.7602 32.3662 45.8115 32.2954 45.8789 32.2871L45.8236 31.7349ZM54.2882 36.664H53.7895C53.7895 36.6706 53.789 36.6788 53.7881 36.6854L54.2815 36.7661L54.775 36.847C54.7829 36.7869 54.787 36.7247 54.787 36.664H54.2882ZM52.0804 29.4554L51.8274 29.9342C51.8328 29.9377 51.8395 29.9433 51.8447 29.9487L52.186 29.5435L52.5272 29.1383C52.4689 29.0774 52.403 29.0222 52.3333 28.9765L52.0804 29.4554ZM50.703 39.5935L51.1342 39.8728C51.1751 39.7944 51.2087 39.7104 51.2334 39.6226L50.7576 39.456L50.2818 39.2895C50.2796 39.2973 50.2762 39.3058 50.2719 39.3143L50.703 39.5935ZM45.278 28.2145L45.27 27.659C44.6184 27.6706 44.0989 28.295 44.1599 29.0304L44.6565 28.9793L45.1532 28.9282C45.1467 28.8496 45.2037 28.7714 45.286 28.7699L45.278 28.2145Z" fill="#2F1A1E"/>
</g>
<path d="M43.1837 25.8472H28.6843C27.7323 25.8472 26.9322 26.6438 26.8257 27.6975L24.5035 50.6836C24.3787 51.9187 25.2463 52.9999 26.3621 52.9999H46.117C47.2547 52.9999 48.1289 51.8781 47.9688 50.6234L45.0355 27.6373C44.9044 26.6103 44.115 25.8472 43.1837 25.8472Z" fill="#703D2D"/>
<path d="M43.1837 25.8143C44.1296 25.8143 44.9315 26.5895 45.0647 27.6327L47.9979 50.6188C48.1606 51.8933 47.2726 53.0329 46.117 53.0329H26.3621C25.2287 53.0329 24.3474 51.9346 24.4742 50.68L26.7964 27.6939L26.802 27.6439C26.9299 26.5984 27.7323 25.8143 28.6843 25.8143H43.1837ZM28.6843 25.8801C27.7473 25.8801 26.9597 26.6642 26.855 27.7013L24.5328 50.6874C24.41 51.9029 25.2639 52.9671 26.3621 52.9671H46.117C47.2367 52.9671 48.097 51.8629 47.9395 50.6281L45.0062 27.642C44.8772 26.6312 44.1003 25.8801 43.1837 25.8801H28.6843Z" fill="black"/>
<path d="M46.601 53.2278L47.3179 54.1459C47.3179 54.1459 47.6423 53.6003 47.9786 53.4042C48.3149 53.208 48.9077 53.2983 48.9077 53.2983L47.9102 52.0278L46.601 53.2278Z" fill="#7C442D"/>
<path d="M25.7863 53L30.2707 52.9653H34.0024C34.0024 52.9653 36.1812 53.0787 37.4206 52.4098C39.794 51.1289 40.3719 49.0828 41.4973 46.4386C42.7362 43.5279 43.0653 38.3844 43.0653 38.3844C43.0653 38.3844 43.6213 34.683 43.0653 32.4478C42.5748 30.4762 42.1841 29.189 40.7761 27.8652C38.2919 25.5298 32.4345 27.5875 32.4345 27.5875L26.4762 30.3301L25.849 35.85L24.4065 51.2642C24.5633 52.4098 25.7863 53 25.7863 53Z" fill="#A56A3D"/>
<path d="M43.1836 25.8655C44.2617 25.8655 45.1758 26.749 45.3276 27.9382L48.2608 50.9243V50.9244C48.4462 52.3773 47.4339 53.6762 46.1169 53.6762H26.362C25.0703 53.6762 24.0656 52.4244 24.2101 50.9941L26.5323 28.0079C26.6556 26.7877 27.5821 25.8655 28.6842 25.8655H43.1836ZM28.6842 26.5234C27.8823 26.5234 27.2086 27.1944 27.119 28.0816H27.1189L24.7967 51.0677V51.0677C24.6916 52.1076 25.4221 53.0183 26.362 53.0183H46.1169C47.0752 53.0183 47.8112 52.0733 47.6764 51.017L44.7431 28.0309C44.6327 27.1661 43.968 26.5234 43.1836 26.5234H28.6842Z" fill="#2F1A1E"/>
<path d="M37.9747 14.3889C39.619 14.3889 41.0176 15.5163 41.5339 17.0889C41.7314 17.0502 41.9346 17.03 42.142 17.03C43.6544 17.03 44.9417 18.1033 45.4237 19.6034C47.0263 19.7527 48.2851 21.2488 48.2851 23.0725C48.2851 24.3769 47.6409 25.5136 46.6876 26.1098C46.5471 27.4415 45.5307 28.4746 44.2975 28.4746C43.6774 28.4746 43.1121 28.2134 42.6854 27.7843C42.3372 28.2085 41.8364 28.4746 41.2798 28.4746C40.7948 28.4746 40.3522 28.2725 40.016 27.94C39.6046 28.3707 39.0509 28.6347 38.4417 28.6347C37.6885 28.6347 37.0199 28.2312 36.6005 27.6077C36.1556 28.2791 35.4404 28.7147 34.6337 28.7147C33.7341 28.7147 32.9481 28.1729 32.5242 27.3663C32.3636 28.5155 31.4713 29.395 30.3946 29.395C30.294 29.395 30.1949 29.3871 30.098 29.3723C30.047 29.5158 29.9841 29.6526 29.9107 29.7813V30.1777C29.9601 30.3367 29.987 30.5063 29.987 30.6824C29.987 31.5885 29.2793 32.323 28.4063 32.323C27.5333 32.323 26.8256 31.5885 26.8256 30.6824C26.8256 30.6206 26.829 30.5595 26.8354 30.4995C26.2518 30.061 25.8681 29.3177 25.8681 28.4746C25.8681 27.281 26.6372 26.2876 27.6536 26.0755C27.5678 25.8264 27.5207 25.556 27.5207 25.2733C27.5207 25.0786 27.5429 24.8898 27.5848 24.7097C26.3128 24.3798 25.3651 23.1091 25.3651 21.5918C25.3652 19.8238 26.6519 18.3905 28.2391 18.3905C28.6334 18.3905 29.0091 18.4791 29.3512 18.6391C29.5728 17.0034 30.8401 15.7495 32.3705 15.7495C33.219 15.7495 33.9866 16.1351 34.54 16.7574C35.1338 15.3602 36.4484 14.3889 37.9747 14.3889ZM38.904 22.3485C38.6067 22.4292 38.2954 22.4722 37.9747 22.4722C37.6808 22.4722 37.3947 22.4361 37.1201 22.3679C37.1387 22.5332 37.1484 22.7015 37.1484 22.8723C37.1484 23.3007 37.0879 23.7134 36.9761 24.1004C37.374 23.7332 37.8848 23.5126 38.4417 23.5126C39.1969 23.5126 39.8669 23.9182 40.2861 24.5443C40.3786 24.4811 40.4764 24.4265 40.5785 24.3814C39.8203 23.9566 39.2204 23.2326 38.904 22.3485Z" fill="#DA9E54"/>
<mask id="mask1_247_10992" style="mask-type:luminance" maskUnits="userSpaceOnUse" x="25" y="14" width="24" height="19">
<path d="M37.9747 14.3889C39.619 14.3889 41.0176 15.5163 41.5339 17.0889C41.7314 17.0502 41.9346 17.03 42.142 17.03C43.6544 17.03 44.9417 18.1033 45.4237 19.6034C47.0263 19.7527 48.2851 21.2488 48.2851 23.0725C48.2851 24.3769 47.6409 25.5136 46.6876 26.1098C46.5471 27.4415 45.5307 28.4746 44.2975 28.4746C43.6774 28.4746 43.1121 28.2134 42.6854 27.7843C42.3372 28.2085 41.8364 28.4746 41.2798 28.4746C40.7948 28.4746 40.3522 28.2725 40.016 27.94C39.6046 28.3707 39.0509 28.6347 38.4417 28.6347C37.6885 28.6347 37.0199 28.2312 36.6005 27.6077C36.1556 28.2791 35.4404 28.7147 34.6337 28.7147C33.7341 28.7147 32.9481 28.1729 32.5242 27.3663C32.3636 28.5155 31.4713 29.395 30.3946 29.395C30.294 29.395 30.1949 29.3871 30.098 29.3723C30.047 29.5158 29.9841 29.6526 29.9107 29.7813V30.1777C29.9601 30.3367 29.987 30.5063 29.987 30.6824C29.987 31.5885 29.2793 32.323 28.4063 32.323C27.5333 32.323 26.8256 31.5885 26.8256 30.6824C26.8256 30.6206 26.829 30.5595 26.8354 30.4995C26.2518 30.061 25.8681 29.3177 25.8681 28.4746C25.8681 27.281 26.6372 26.2876 27.6536 26.0755C27.5678 25.8264 27.5207 25.556 27.5207 25.2733C27.5207 25.0786 27.5429 24.8898 27.5848 24.7097C26.3128 24.3798 25.3651 23.1091 25.3651 21.5918C25.3652 19.8238 26.6519 18.3905 28.2391 18.3905C28.6334 18.3905 29.0091 18.4791 29.3512 18.6391C29.5728 17.0034 30.8401 15.7495 32.3705 15.7495C33.219 15.7495 33.9866 16.1351 34.54 16.7574C35.1338 15.3602 36.4484 14.3889 37.9747 14.3889ZM38.904 22.3485C38.6067 22.4292 38.2954 22.4722 37.9747 22.4722C37.6808 22.4722 37.3947 22.4361 37.1201 22.3679C37.1387 22.5332 37.1484 22.7015 37.1484 22.8723C37.1484 23.3007 37.0879 23.7134 36.9761 24.1004C37.374 23.7332 37.8848 23.5126 38.4417 23.5126C39.1969 23.5126 39.8669 23.9182 40.2861 24.5443C40.3786 24.4811 40.4764 24.4265 40.5785 24.3814C39.8203 23.9566 39.2204 23.2326 38.904 22.3485Z" fill="white"/>
</mask>
<g mask="url(#mask1_247_10992)">
<path d="M41.534 17.0889L40.9485 17.3274L41.1278 17.8736L41.642 17.7729L41.534 17.0889ZM45.4237 19.6033L44.8368 19.8374L44.9719 20.2581L45.3717 20.2954L45.4237 19.6033ZM46.6876 26.1098L46.3824 25.5043L46.1055 25.6775L46.0685 26.0288L46.6876 26.1098ZM42.6854 27.7843L43.1031 27.2688L42.6433 26.8064L42.2252 27.3157L42.6854 27.7843ZM40.016 27.9399L40.43 27.4207L40.0041 26.9993L39.5891 27.4339L40.016 27.9399ZM38.4418 28.6347V29.3291H38.4418L38.4418 28.6347ZM36.6005 27.6077L37.0995 27.1913L36.5967 26.4438L36.0989 27.1953L36.6005 27.6077ZM32.5242 27.3663L33.0622 27.0155L32.1775 25.3323L31.9082 27.2595L32.5242 27.3663ZM30.098 29.3722L30.183 28.6842L29.6982 28.6099L29.5183 29.1167L30.098 29.3722ZM29.9107 29.7813L29.3844 29.409L29.2873 29.5795V29.7813H29.9107ZM29.9107 30.1777H29.2873V30.2946L29.3216 30.4051L29.9107 30.1777ZM26.8354 30.4995L27.4545 30.5816L27.4994 30.1608L27.1841 29.9238L26.8354 30.4995ZM27.6536 26.0755L27.7684 26.7581L28.5035 26.6047L28.2357 25.8268L27.6536 26.0755ZM27.5848 24.7097L28.1883 24.8838L28.3486 24.1947L27.7262 24.0333L27.5848 24.7097ZM29.3512 18.6391L29.1098 19.2794L29.8482 19.6249L29.9677 18.7427L29.3512 18.6391ZM34.54 16.7574L34.0971 17.2461L34.7229 17.9499L35.1035 17.0545L34.54 16.7574ZM38.904 22.3485L39.483 22.0913L39.2825 21.531L38.7564 21.6738L38.904 22.3485ZM37.1201 22.3679L37.2557 21.6902L36.391 21.4756L36.5015 22.4546L37.1201 22.3679ZM36.9761 24.1004L36.3827 23.8874L35.7272 26.1543L37.3738 24.6352L36.9761 24.1004ZM38.4418 23.5126L38.4418 22.8181H38.4418V23.5126ZM40.2861 24.5443L39.7863 24.9595L40.1266 25.4678L40.612 25.1364L40.2861 24.5443ZM40.5785 24.3814L40.8083 25.027L42.1003 24.4565L40.8587 23.761L40.5785 24.3814ZM37.9747 14.3889V15.0833C39.3615 15.0833 40.5234 16.0329 40.9485 17.3274L41.534 17.0889L42.1195 16.8504C41.5118 14.9997 39.8767 13.6945 37.9747 13.6945V14.3889ZM41.534 17.0889L41.642 17.7729C41.804 17.7411 41.9711 17.7244 42.142 17.7244V17.0299V16.3355C41.8981 16.3355 41.6588 16.3593 41.4259 16.4049L41.534 17.0889ZM42.142 17.0299V17.7244C43.3828 17.7244 44.4406 18.6047 44.8368 19.8374L45.4237 19.6033L46.0107 19.3693C45.4428 17.6019 43.9261 16.3355 42.142 16.3355V17.0299ZM45.4237 19.6033L45.3717 20.2954C46.654 20.4149 47.6617 21.6129 47.6617 23.0724H48.2852H48.9086C48.9086 20.8846 47.3986 19.0905 45.4757 18.9113L45.4237 19.6033ZM48.2852 23.0724H47.6617C47.6617 24.1157 47.1472 25.0259 46.3824 25.5043L46.6876 26.1098L46.9929 26.7154C48.1346 26.0012 48.9086 24.6381 48.9086 23.0724H48.2852ZM46.6876 26.1098L46.0685 26.0288C45.9645 27.0149 45.2108 27.7802 44.2975 27.7802V28.4746V29.169C45.8507 29.169 47.1299 27.8681 47.3068 26.1909L46.6876 26.1098ZM44.2975 28.4746V27.7802C43.8377 27.7802 43.4198 27.5872 43.1031 27.2688L42.6854 27.7843L42.2677 28.2998C42.8044 28.8395 43.5171 29.169 44.2975 29.169V28.4746ZM42.6854 27.7843L42.2252 27.3157C41.9902 27.6021 41.6541 27.7802 41.2799 27.7802V28.4746V29.169C42.0188 29.169 42.6843 28.8148 43.1455 28.2529L42.6854 27.7843ZM41.2799 28.4746V27.7802C40.9533 27.7802 40.6566 27.6448 40.43 27.4207L40.016 27.9399L39.602 28.4592C40.0479 28.9002 40.6363 29.169 41.2799 29.169V28.4746ZM40.016 27.9399L39.5891 27.4339C39.2886 27.7485 38.886 27.9402 38.4418 27.9402V28.6347L38.4418 29.3291C39.2159 29.3291 39.9207 28.9928 40.443 28.4459L40.016 27.9399ZM38.4418 28.6347V27.9402C37.8932 27.9402 37.4062 27.6473 37.0995 27.1913L36.6005 27.6077L36.1016 28.024C36.6336 28.815 37.4839 29.3291 38.4418 29.3291V28.6347ZM36.6005 27.6077L36.0989 27.1953C35.7665 27.697 35.234 28.0202 34.6337 28.0202V28.7147V29.4091C35.6468 29.4091 36.5449 28.8611 37.1022 28.02L36.6005 27.6077ZM34.6337 28.7147V28.0202C33.9645 28.0202 33.379 27.6181 33.0622 27.0155L32.5242 27.3663L31.9862 27.7172C32.5173 28.7277 33.5037 29.4091 34.6337 29.4091V28.7147ZM32.5242 27.3663L31.9082 27.2595C31.7941 28.0758 31.1593 28.7006 30.3946 28.7006V29.395V30.0895C31.7835 30.0895 32.9331 28.9553 33.1402 27.4731L32.5242 27.3663ZM30.3946 29.395V28.7006C30.3234 28.7006 30.2527 28.6949 30.183 28.6842L30.098 29.3722L30.013 30.0601C30.1371 30.0792 30.2646 30.0895 30.3946 30.0895V29.395ZM30.098 29.3722L29.5183 29.1167C29.482 29.2189 29.437 29.3167 29.3844 29.409L29.9107 29.7813L30.437 30.1536C30.5311 29.9885 30.612 29.8126 30.6777 29.6277L30.098 29.3722ZM29.9107 29.7813H29.2873V30.1777H29.9107H30.5342V29.7813H29.9107ZM29.9107 30.1777L29.3216 30.4051C29.3489 30.4928 29.3636 30.5856 29.3636 30.6824H29.987H30.6105C30.6105 30.427 30.5714 30.1806 30.4997 29.9503L29.9107 30.1777ZM29.987 30.6824H29.3636C29.3636 31.1595 28.9772 31.6286 28.4064 31.6286V32.323V33.0174C29.5814 33.0174 30.6105 32.0174 30.6105 30.6824H29.987ZM28.4064 32.323V31.6286C27.8355 31.6286 27.4491 31.1595 27.4491 30.6824H26.8256H26.2022C26.2022 32.0174 27.2312 33.0174 28.4064 33.0174V32.323ZM26.8256 30.6824H27.4491C27.4491 30.6489 27.4509 30.6153 27.4545 30.5816L26.8354 30.4995L26.2164 30.4175C26.2072 30.5038 26.2022 30.5922 26.2022 30.6824H26.8256ZM26.8354 30.4995L27.1841 29.9238C26.765 29.6089 26.4916 29.0772 26.4916 28.4746H25.8681H25.2447C25.2447 29.5582 25.7387 30.5131 26.4868 31.0752L26.8354 30.4995ZM25.8681 28.4746H26.4916C26.4916 27.6213 27.0415 26.9097 27.7684 26.7581L27.6536 26.0755L27.5388 25.3929C26.233 25.6654 25.2447 26.9406 25.2447 28.4746H25.8681ZM27.6536 26.0755L28.2357 25.8268C28.1767 25.6556 28.1441 25.4694 28.1441 25.2733H27.5207H26.8972C26.8972 25.6427 26.9589 25.9972 27.0715 26.3242L27.6536 26.0755ZM27.5207 25.2733H28.1441C28.1441 25.1379 28.1596 25.0075 28.1883 24.8838L27.5848 24.7097L26.9813 24.5355C26.9263 24.772 26.8972 25.0194 26.8972 25.2733H27.5207ZM27.5848 24.7097L27.7262 24.0333C26.7302 23.775 25.9886 22.779 25.9886 21.5918H25.3651H24.7417C24.7417 23.4392 25.8955 24.9845 27.4434 25.3861L27.5848 24.7097ZM25.3651 21.5918H25.9886C25.9886 20.2073 26.9963 19.0849 28.2391 19.0849V18.3905V17.6961C26.3076 17.6961 24.7418 19.4402 24.7417 21.5918H25.3651ZM28.2391 18.3905V19.0849C28.5489 19.0849 28.8427 19.1544 29.1098 19.2794L29.3512 18.6391L29.5927 17.9988C29.1756 17.8038 28.7179 17.6961 28.2391 17.6961V18.3905ZM29.3512 18.6391L29.9677 18.7427C30.1439 17.4415 31.1532 16.4439 32.3705 16.4439V15.7495V15.055C30.5272 15.055 29.0017 16.5652 28.7348 18.5355L29.3512 18.6391ZM32.3705 15.7495V16.4439C33.0458 16.4439 33.6559 16.7499 34.0971 17.2461L34.54 16.7574L34.9829 16.2687C34.3173 15.5202 33.3921 15.055 32.3705 15.055V15.7495ZM34.54 16.7574L35.1035 17.0545C35.5936 15.9011 36.6882 15.0833 37.9747 15.0833V14.3889V13.6945C36.2087 13.6945 34.6739 14.8193 33.9765 16.4603L34.54 16.7574ZM38.904 22.3485L38.7564 21.6738C38.507 21.7415 38.2452 21.7777 37.9747 21.7777V22.4722V23.1666C38.3456 23.1666 38.7065 23.1169 39.0516 23.0232L38.904 22.3485ZM37.9747 22.4722V21.7777C37.7267 21.7777 37.4861 21.7473 37.2557 21.6902L37.1201 22.3679L36.9846 23.0458C37.3034 23.1249 37.6349 23.1666 37.9747 23.1666V22.4722ZM37.1201 22.3679L36.5015 22.4546C36.517 22.5913 36.525 22.7306 36.525 22.8723H37.1484H37.7719C37.7719 22.6723 37.7606 22.475 37.7387 22.2813L37.1201 22.3679ZM37.1484 22.8723H36.525C36.525 23.2275 36.4749 23.5684 36.3827 23.8874L36.9761 24.1004L37.5695 24.3133C37.7011 23.8583 37.7719 23.3739 37.7719 22.8723H37.1484ZM36.9761 24.1004L37.3738 24.6352C37.664 24.3674 38.0353 24.207 38.4418 24.207V23.5126V22.8181C37.7343 22.8181 37.084 23.0991 36.5784 23.5655L36.9761 24.1004ZM38.4418 23.5126V24.207C38.9917 24.207 39.4797 24.5014 39.7863 24.9595L40.2861 24.5443L40.7859 24.1292C40.2542 23.3349 39.4022 22.8181 38.4418 22.8181L38.4418 23.5126ZM40.2861 24.5443L40.612 25.1364C40.6744 25.0938 40.74 25.0571 40.8083 25.027L40.5785 24.3814L40.3488 23.7358C40.2129 23.7958 40.083 23.8685 39.9603 23.9523L40.2861 24.5443ZM40.5785 24.3814L40.8587 23.761C40.2357 23.412 39.7428 22.8167 39.483 22.0913L38.904 22.3485L38.3249 22.6057C38.6981 23.6485 39.4049 24.5013 40.2984 25.0018L40.5785 24.3814Z" fill="#301C1F"/>
</g>
<path d="M37.845 15.0834C39.4589 15.0834 40.8157 16.1862 41.2062 17.6807C41.4502 17.6172 41.7056 17.5834 41.9686 17.5834C43.4768 17.5834 44.7346 18.6928 45.0234 20.1667C46.5642 20.3051 47.7667 21.4587 47.7667 22.8612C47.7667 23.9645 47.0223 24.9136 45.9547 25.3357C45.7509 26.3814 44.8466 27.1697 43.7618 27.1697C43.1761 27.1697 42.6431 26.9398 42.2445 26.5639C41.9168 26.9354 41.439 27.1697 40.9066 27.1697C40.5588 27.1697 40.2342 27.0696 39.9595 26.8966C39.572 27.483 38.963 27.8612 38.278 27.8612C37.4725 27.8612 36.7719 27.3386 36.4132 26.5691C36.0105 27.0364 35.4295 27.3298 34.7834 27.3298C33.7668 27.3298 32.9113 26.6032 32.6581 25.6158C32.4185 25.5282 32.1917 25.4127 31.981 25.2729C31.9811 25.2792 31.9812 25.2855 31.9812 25.2917C31.9812 25.7788 31.726 26.21 31.3339 26.4748C31.3576 26.5976 31.3701 26.7244 31.3701 26.8542C31.3701 27.9424 29.4207 28.8332 29.4207 28.8332C29.3851 29.1107 28.8837 30.2917 28.3464 30.2917C27.2454 30.3631 26.8542 27.3854 27.4075 26.6854C27.1329 26.8164 26.8307 26.8889 26.5136 26.8889C25.2499 26.8889 23.5024 26.0511 23.5024 24.632C23.5024 23.2129 24.2649 21.8889 25.5286 21.8889C25.6137 21.8889 25.7021 21.8937 25.7932 21.9026C25.7629 21.7627 25.7468 21.6189 25.7468 21.4723C25.7468 20.0532 27.245 18.9028 28.7083 18.9028C29.0301 18.9028 29.3385 18.9585 29.6239 19.0605C29.7542 17.5706 30.9774 16.4028 32.4673 16.4028C33.3064 16.4028 34.0609 16.7732 34.5833 17.3628C35.0718 16.0323 36.3478 15.0834 37.845 15.0834ZM40.3759 23.5888C40.3722 23.6101 40.368 23.6313 40.3636 23.6524C40.3898 23.644 40.4163 23.6361 40.4431 23.6289C40.4205 23.6158 40.3981 23.6025 40.3759 23.5888Z" fill="#EEC184"/>
<path d="M44.5162 21.1166C44.5162 20.7142 44.4311 20.3174 44.2677 19.9585C44.1043 19.5996 43.8673 19.2886 43.5759 19.0507C43.2844 18.8129 42.9468 18.6549 42.5903 18.5895C42.2339 18.5242 41.8685 18.5533 41.5241 18.6747C41.1796 18.7959 41.9128 19.0507 41.9128 19.0507C41.9128 19.0507 42.274 19.1316 42.4985 19.2112C42.7985 19.3175 42.9877 19.3517 43.2416 19.5589C43.4955 19.7661 43.6327 19.9243 43.7632 20.2433C43.9028 20.5843 43.8766 21.1945 43.8766 21.1945C43.8766 21.1945 44.5162 21.519 44.5162 21.1166Z" fill="#DA9E54"/>
<path d="M31.3041 17.5565C31.8872 17.2618 32.4763 17.0444 33.0591 16.9088C33.6419 16.7733 33.4685 17.8286 32.9541 17.9482C32.4397 18.0679 31.7361 17.7166 31.4052 18.5198C31.0743 19.3231 30.721 17.8511 31.3041 17.5565Z" fill="#DA9E54"/>
<path d="M27.1165 22.0175C27.2629 21.213 27.9697 19.6119 28.768 20.1301C28.9168 20.2267 28.998 20.2977 29.1026 20.4501C29.6033 21.1791 27.7602 21.4158 27.6297 22.1333C27.4992 22.8508 26.9702 22.8219 27.1165 22.0175Z" fill="#DA9E54"/>
<path d="M25.0301 25.0689C24.9127 24.4725 24.9617 23.1465 25.6446 23.232C25.7719 23.2479 25.8497 23.2625 25.9585 23.3377C26.3785 23.6275 25.287 24.0654 25.3917 24.5972C25.4965 25.1291 25.1476 25.6652 25.0301 25.0689Z" fill="#DA9E54"/>
<path d="M35.7708 17.6769C35.4646 16.736 37.9056 16.7211 37.9056 16.7211C37.9056 16.7211 40.4681 16.4513 40.1294 17.3783C40.0293 17.6523 39.5438 17.6528 39.5438 17.6528L37.8293 17.3783C37.8293 17.3783 35.8967 17.9653 35.8343 17.7917C35.772 17.6181 35.8607 17.9531 35.7708 17.6769Z" fill="#DA9E54"/>
<path d="M38.297 16.5948C38.5336 16.5839 38.8471 16.579 39.1509 16.6036C39.4516 16.6279 39.7548 16.6819 39.9636 16.7959C40.0686 16.8531 40.1598 16.9309 40.2097 17.0386C40.2615 17.1507 40.2613 17.2786 40.2113 17.4155C40.1765 17.5107 40.1102 17.5767 40.04 17.6221C39.97 17.6674 39.8906 17.696 39.8188 17.7144C39.7465 17.733 39.6783 17.7422 39.6284 17.7468C39.6034 17.7491 39.5826 17.7502 39.568 17.7508C39.5607 17.7511 39.5549 17.7513 39.5508 17.7513C39.5487 17.7514 39.5471 17.7514 39.5459 17.7514C39.5454 17.7514 39.5449 17.7515 39.5445 17.7515H39.5438L39.5437 17.6528L39.5438 17.7515H39.5375L39.5311 17.7504L37.8348 17.4788C37.8335 17.4792 37.8321 17.4796 37.8306 17.4801C37.8163 17.4844 37.7954 17.4906 37.7689 17.4985C37.7157 17.5143 37.6397 17.5366 37.5484 17.5628C37.3658 17.6153 37.1214 17.6835 36.8748 17.7463C36.6288 17.8089 36.3785 17.8667 36.1849 17.898C36.0887 17.9135 36.0028 17.9231 35.9371 17.9224C35.9048 17.9221 35.8722 17.9193 35.844 17.9109C35.8324 17.9075 35.8141 17.9008 35.7962 17.8877C35.7929 17.887 35.7897 17.8862 35.7867 17.8852C35.7712 17.8798 35.7606 17.871 35.7554 17.8662C35.7497 17.8608 35.7456 17.8557 35.7432 17.8524C35.7384 17.8459 35.7351 17.8398 35.7333 17.8365C35.7269 17.8242 35.7206 17.8074 35.7145 17.7905C35.7077 17.7715 35.6989 17.7453 35.6875 17.7104C35.6422 17.571 35.6459 17.4407 35.6942 17.3242C35.7411 17.2108 35.826 17.1204 35.9271 17.0476C36.1279 16.9032 36.4183 16.8103 36.7067 16.7491C36.9977 16.6874 37.2972 16.6558 37.5232 16.6396C37.6363 16.6315 37.7315 16.6272 37.7985 16.6249C37.832 16.6238 37.8585 16.6231 37.8767 16.6228C37.8857 16.6226 37.8928 16.6225 37.8975 16.6224C37.8988 16.6224 37.8999 16.6225 37.9009 16.6224C37.902 16.6223 37.9034 16.6222 37.905 16.622C37.91 16.6215 37.9173 16.6208 37.9268 16.6199C37.9458 16.6181 37.9735 16.6156 38.0086 16.6128C38.0787 16.6072 38.1785 16.6002 38.297 16.5948ZM39.138 16.8004C38.8435 16.7766 38.5375 16.7812 38.3042 16.7919C38.1878 16.7973 38.09 16.8042 38.0213 16.8097C37.987 16.8124 37.96 16.8148 37.9416 16.8165C37.9325 16.8174 37.9254 16.8181 37.9207 16.8186C37.9184 16.8188 37.9166 16.819 37.9155 16.8191C37.9149 16.8192 37.9145 16.8192 37.9142 16.8192C37.9141 16.8193 37.914 16.8193 37.9139 16.8193H37.9138L37.9099 16.8197H37.9057C37.9054 16.8197 37.905 16.8197 37.9044 16.8198C37.9034 16.8198 37.9017 16.8197 37.8995 16.8198C37.8951 16.8198 37.8884 16.8199 37.8797 16.8201C37.8622 16.8204 37.8365 16.821 37.8039 16.8221C37.7386 16.8243 37.6454 16.8286 37.5346 16.8365C37.3124 16.8525 37.0209 16.8834 36.7398 16.943C36.4563 17.0032 36.1939 17.0905 36.0232 17.2134C35.9385 17.2744 35.8829 17.3394 35.855 17.4069C35.8283 17.4713 35.8228 17.5473 35.854 17.6432C35.8553 17.6472 35.8567 17.6512 35.8579 17.655C35.8706 17.6636 35.8779 17.6732 35.8799 17.6757C35.8883 17.6866 35.8937 17.6981 35.8959 17.7028C35.8986 17.7085 35.9014 17.7153 35.9044 17.7229C35.9127 17.724 35.924 17.7249 35.9386 17.7251C35.9906 17.7256 36.0659 17.7178 36.1596 17.7026C36.3459 17.6726 36.5905 17.6162 36.8354 17.5538C37.0798 17.4916 37.3225 17.4239 37.5042 17.3717C37.595 17.3456 37.6705 17.3234 37.7233 17.3078C37.7497 17.3 37.7704 17.2938 37.7845 17.2895C37.7915 17.2874 37.7969 17.2858 37.8006 17.2847C37.8024 17.2842 37.8037 17.2837 37.8046 17.2834C37.805 17.2833 37.8054 17.2832 37.8056 17.2832C37.8057 17.2831 37.8058 17.2831 37.8059 17.283H37.8059C37.8059 17.283 37.806 17.283 37.8276 17.3714L37.806 17.283L37.8237 17.2776L37.8418 17.2806L39.5494 17.554C39.5524 17.5539 39.5565 17.5538 39.5615 17.5536C39.5738 17.5531 39.5918 17.5521 39.6138 17.5501C39.6581 17.546 39.7175 17.5379 39.7791 17.5221C39.8412 17.5062 39.9019 17.4832 39.9511 17.4514C40.0001 17.4196 40.032 17.3828 40.0473 17.3411C40.082 17.2461 40.0758 17.1798 40.0523 17.1291C40.0269 17.0742 39.9735 17.0209 39.8858 16.9731C39.7095 16.8769 39.4355 16.8245 39.138 16.8004Z" fill="#DD9F52"/>
<path d="M47.0771 29.7559L47.0313 29.0929C47.0177 28.8949 47.1555 28.7249 47.3337 28.7235C47.6594 28.7207 48.1627 28.7245 48.5336 28.7638C49.0616 28.8199 49.3607 28.8585 49.874 29.0069C50.1833 29.0963 50.6533 29.2847 50.6533 29.2847L51.1521 29.5277L51.8126 29.929C51.8295 29.9393 51.8452 29.9511 51.8599 29.9647C51.9139 30.0145 52.0547 30.1471 52.1496 30.2569C52.3947 30.5405 52.7337 30.9894 52.8166 31.0998C52.8291 31.1166 52.8402 31.1346 52.8497 31.1538L53.3192 32.1017C53.3291 32.1218 53.3373 32.1429 53.3435 32.1648L53.5212 32.7916C53.5212 32.7916 53.6124 33.148 53.6459 33.3819C53.6613 33.4899 53.6649 33.5512 53.677 33.6597L53.7082 33.9374L53.7705 34.6319V36.7577C53.7705 36.7756 53.7693 36.7936 53.7668 36.8113L53.6147 37.8958L53.37 39.1564C53.3669 39.1725 53.3628 39.1882 53.3576 39.2036L53.0536 40.118L52.3788 41.5531C52.3715 41.5686 52.3631 41.5834 52.3538 41.5975L51.2631 43.2511C51.2515 43.2688 51.2381 43.2854 51.2237 43.3004C50.3974 44.1541 49.8943 44.6706 49.098 45.3809C48.9604 45.5036 48.7589 45.4729 48.6547 45.3145L48.3326 44.8253C48.2353 44.6775 48.2574 44.4712 48.3822 44.3518C48.7463 44.0035 49.4691 43.2962 49.874 42.7916C50.3835 42.1567 50.6649 41.7855 51.0586 41.0555C51.6896 39.8854 52.2743 37.8958 52.2743 37.8958C52.2743 37.8958 52.7304 35.9036 52.586 34.6319C52.4806 33.7041 52.4145 33.1284 51.9626 32.3402C51.4793 31.4974 51.0124 31.1374 50.2169 30.6736C49.3786 30.1847 47.9947 30.0985 47.3935 30.0848C47.2281 30.0811 47.0898 29.9395 47.0771 29.7559Z" fill="#A56C3E"/>
<path d="M26.5578 31.909C34.1697 32.8219 38.1198 32.7829 45.5413 31.909L45.8242 31.8757L46.3129 35.6855L46.01 35.7228C38.0529 36.7025 33.8899 36.8304 26.0492 35.6175L25.751 35.5713L26.2788 31.8756L26.5578 31.909ZM45.3203 32.5963C38.1301 33.4321 34.1519 33.4687 26.7736 32.5963L26.4286 35.0115C33.9195 36.1511 38.0187 36.0348 45.6422 35.1059L45.3203 32.5963Z" fill="#2E1B1E"/>
<path d="M46.9751 46.6013L46.5292 43.4166C43.8971 43.7005 41.6597 43.8973 39.5561 44.0029C35.1158 44.2258 31.2719 44.0427 25.5725 43.4166L25.0923 46.4963C33.687 47.7141 38.2397 47.5865 46.9751 46.6013Z" fill="#683729"/>
<path d="M25.6014 43.0893C31.2919 43.7145 35.1209 43.8963 39.5428 43.6743C41.6394 43.569 43.8714 43.3729 46.5007 43.0893L46.7779 43.0594L47.3147 46.8936L47.0048 46.9286C38.2528 47.9157 33.6769 48.0443 25.055 46.8226L24.7485 46.7792L25.3285 43.0593L25.6014 43.0893ZM25.4359 46.213C33.7052 47.3666 38.2214 47.2486 46.6353 46.3088L46.2804 43.7736C43.7648 44.0419 41.6055 44.2293 39.5693 44.3316C35.182 44.5518 31.3755 44.3767 25.8163 43.7736L25.4359 46.213Z" fill="#2E1B1E"/>
<path d="M40.4601 46.8541L40.5848 44.2847L46.2581 43.7986L46.601 46.3333L40.4601 46.8541Z" fill="#583025"/>
<path d="M40.2419 35.6389L40.3666 33.1042L45.323 32.618L45.6035 35.118L40.2419 35.6389Z" fill="#583025"/>
<path d="M30.0487 36.0208L29.3941 35.9166L28.9576 43.6597L29.5499 43.7986L30.0487 36.0208Z" fill="#2B1C1F"/>
<path d="M38.8407 36.3125L39.4968 36.2207L39.8156 43.9708L39.2214 44.0986L38.8407 36.3125Z" fill="#2B1C1F"/>
<path d="M42.6753 35.7689L43.3278 35.6493L43.9116 43.3803L43.3221 43.5331L42.6753 35.7689Z" fill="#2B1C1F"/>
<path d="M34.7897 47.1166L34.131 47.082L34.1378 53.7215H34.7897V47.1166Z" fill="#2B1C1F"/>
<path d="M39.427 46.978L40.0831 46.9038L40.3984 53.534L39.7476 53.5733L39.427 46.978Z" fill="#2B1C1F"/>
<path d="M43.8617 47.0365L44.5117 46.9124L45.2341 53.5029L44.5871 53.5918L43.8617 47.0365Z" fill="#2B1C1F"/>
<path d="M29.3064 46.7768L28.6341 46.6792L28.1105 53.2215L28.7183 53.3476L29.3064 46.7768Z" fill="#2B1C1F"/>
<path d="M30.585 28.7509L29.8387 28.6945L29.5811 32.9208L30.0678 32.9577L30.585 28.7509Z" fill="#2E1A1D"/>
<path d="M35.192 28.3472H34.4438V32.5833H34.9318L35.192 28.3472Z" fill="#2E1A1D"/>
<path d="M38.5586 28H39.3067V32.6528H38.8188L38.5586 28Z" fill="#2E1A1D"/>
<path d="M45.5723 32.2361C38.1309 33.1123 34.1599 33.1516 26.5261 32.2361L26.0897 35.2916C33.9008 36.5 38.0385 36.3733 45.9775 35.3958L45.5723 32.2361Z" fill="#683729"/>
<path d="M41.8628 27.8654L42.608 27.7916L42.9997 32.7028L42.5137 32.7509L41.8628 27.8654Z" fill="#2E1A1D"/>
<path d="M31.645 39.6119L31.0144 44.0552L31.475 44.1925L31.645 39.6119Z" fill="#2D1718"/>
<path d="M45.1803 40.0806L44.5497 35.6373L45.0103 35.5L45.1803 40.0806Z" fill="#2D1718"/>
<path d="M44.6003 33.1275L43.9271 27.9461L44.3868 27.7916L44.6003 33.1275Z" fill="#2D1718"/>
<path d="M31.2541 49.7991L30.9673 47.0897L31.5826 47.0851L31.2541 49.7991Z" fill="#2D1718"/>
<path d="M27.1703 38.7511L27.3937 35.6376L27.7246 35.6284L27.1703 38.7511Z" fill="#2D1718"/>
<path d="M31.9501 20.2443L32.8232 15.5171L36.9065 13.4861L40.5276 17.5481L39.8085 22.2395L35.2886 24.0416L31.9501 20.2443Z" fill="#D1465D"/>
<path d="M40.7492 17.47L40.7313 17.5869L40.7312 17.587L40.73 17.5951C40.7292 17.6006 40.7279 17.6088 40.7263 17.6195C40.723 17.6409 40.7182 17.6725 40.7119 17.7133C40.6994 17.7951 40.6812 17.9139 40.6584 18.0623C40.613 18.3589 40.5494 18.7736 40.4771 19.2455C40.3324 20.1893 40.1526 21.3622 40.0122 22.2783L39.9918 22.411L39.8782 22.4563C38.113 23.1601 37.1233 23.5547 35.3582 24.2585L35.2337 24.3082L35.1411 24.2028C34.4892 23.4613 33.6546 22.512 32.9829 21.7481C32.6471 21.3661 32.352 21.0305 32.1409 20.7903C32.0353 20.6703 31.9507 20.574 31.8925 20.5078C31.8635 20.4748 31.8409 20.4492 31.8257 20.4319C31.8181 20.4232 31.8123 20.4166 31.8084 20.4122C31.8065 20.41 31.805 20.4083 31.804 20.4072C31.8036 20.4067 31.8031 20.4062 31.8029 20.4059C31.8028 20.4058 31.8027 20.4057 31.8027 20.4056L31.8025 20.4056L31.7256 20.318L32.6423 15.3549L36.9526 13.2111L40.7492 17.47ZM34.4647 21.4146C34.7444 22.1143 35.0844 22.9648 35.3712 23.6822C35.906 23.2283 36.3437 22.8568 36.7814 22.4854C37.1782 22.1487 37.5749 21.812 38.044 21.4139C37.189 21.205 36.1976 20.963 35.3758 20.7623C34.8928 20.6443 34.4683 20.5406 34.1646 20.4665C34.1342 20.4591 34.1051 20.4519 34.0772 20.4451C34.1757 20.6915 34.3111 21.0303 34.4647 21.4146ZM37.0318 22.8518C36.8487 23.0072 36.6656 23.1625 36.4754 23.3239C37.4451 22.9372 38.2533 22.615 39.3495 22.1779C39.0723 21.9741 38.8429 21.8055 38.533 21.5777C37.9563 22.0671 37.4941 22.4595 37.0318 22.8518ZM32.4141 20.4431C32.4213 20.4513 32.4286 20.4596 32.436 20.468C32.6471 20.7082 32.9422 21.0438 33.2781 21.4257C33.6944 21.8993 34.1734 22.4442 34.6327 22.9665C34.4455 22.4983 34.2555 22.0229 34.0873 21.602C33.9297 21.2078 33.7912 20.8614 33.6921 20.6135C33.6516 20.5122 33.6177 20.4272 33.5917 20.3623L32.4141 20.4431ZM39.9969 18.9909C39.6278 19.6814 39.1767 20.5252 38.803 21.2245C39.1207 21.4581 39.3563 21.6311 39.6582 21.8531C39.7889 21.0005 39.9428 19.9961 40.0697 19.168C40.0932 19.0148 40.1157 18.8677 40.137 18.7287C40.0919 18.813 40.0451 18.9007 39.9969 18.9909ZM34.1048 19.9804C34.1503 19.9915 34.1998 20.0036 34.253 20.0166C34.5567 20.0908 34.9812 20.1944 35.4643 20.3124C36.3112 20.5193 37.3384 20.7702 38.2107 20.9832C37.9163 20.0203 37.5691 18.8847 37.283 17.9487C37.1202 17.4164 36.9772 16.9486 36.8749 16.6139C36.8579 16.5584 36.8421 16.5064 36.8274 16.4585L34.1048 19.9804ZM37.2661 16.4654C37.3684 16.8001 37.5114 17.2678 37.6741 17.8002C37.9519 18.7087 38.2871 19.8053 38.5758 20.7495C38.9214 20.103 39.314 19.3685 39.6419 18.7552C39.8434 18.3782 40.0205 18.047 40.1471 17.81C40.1755 17.7569 40.2013 17.7084 40.2244 17.6653L37.2442 16.3939C37.2513 16.417 37.2585 16.4409 37.2661 16.4654ZM32.2069 19.996L33.469 19.9093L32.8288 16.6289L32.2069 19.996ZM33.8359 19.6226L36.4929 16.1857L33.086 15.7799L33.8359 19.6226ZM37.1132 15.845L39.703 16.9498L37.1132 14.0446V15.845ZM33.6079 15.3789L36.6999 15.7472V13.841L33.6079 15.3789Z" fill="#2F1A1E"/>
<path d="M35.6486 19.7073L35.4939 19.5783C35.4951 19.552 35.4974 19.5268 35.5011 19.5027C35.5047 19.4785 35.5088 19.4553 35.5134 19.433C35.5316 19.3453 35.5612 19.2731 35.6024 19.2164C35.6454 19.1584 35.7024 19.1105 35.7734 19.0724L35.937 18.9851C35.986 18.9586 36.0253 18.9318 36.0548 18.905C36.0859 18.8769 36.1104 18.8432 36.1283 18.804C36.1463 18.7648 36.1615 18.7147 36.1741 18.6538C36.1867 18.5928 36.1703 18.5565 36.1249 18.5448C36.0556 18.5271 35.9981 18.5366 35.9525 18.5734C35.9086 18.6091 35.8751 18.6827 35.8521 18.7942L35.8193 18.7999L35.6758 18.6574C35.7051 18.5163 35.7569 18.4184 35.8314 18.3639C35.9059 18.3094 35.9872 18.2935 36.0753 18.3161C36.1087 18.3246 36.1419 18.3473 36.1751 18.384C36.2099 18.4195 36.2404 18.4625 36.2665 18.513C36.2942 18.5625 36.3148 18.6124 36.3283 18.6627C36.342 18.7117 36.3453 18.754 36.3378 18.7897C36.3256 18.8492 36.3102 18.9032 36.2918 18.9516C36.2736 18.9986 36.2466 19.0411 36.2107 19.0789C36.1761 19.1169 36.128 19.1523 36.0664 19.185L35.898 19.2757C35.8713 19.2892 35.8456 19.3046 35.821 19.3217C35.7963 19.3389 35.7754 19.3586 35.7582 19.3808C35.777 19.4325 35.8016 19.4701 35.8319 19.4936C35.8635 19.5173 35.8973 19.5339 35.9334 19.5431C35.9761 19.5541 36.0151 19.5523 36.0504 19.5379C36.086 19.522 36.1153 19.5029 36.1382 19.4805L36.1702 19.4888L36.2317 19.7417C36.2033 19.7705 36.1683 19.7904 36.1266 19.8017C36.0863 19.8132 36.0413 19.8127 35.992 19.8C35.8585 19.7657 35.7642 19.6648 35.7089 19.4973C35.7043 19.5055 35.6994 19.5223 35.6942 19.5475C35.6902 19.5668 35.6867 19.5878 35.6833 19.6105C35.6814 19.6334 35.6804 19.6582 35.6806 19.6849L35.6486 19.7073ZM36.6915 19.9724C36.6554 19.9632 36.6153 19.9427 36.5713 19.9111C36.529 19.8782 36.4883 19.8404 36.4493 19.7975C36.4117 19.755 36.3816 19.7136 36.359 19.6734C36.3368 19.6317 36.3286 19.5967 36.3344 19.5684C36.3423 19.5298 36.3545 19.4812 36.3708 19.4228C36.3874 19.3629 36.4026 19.2995 36.4165 19.2325L36.5124 18.7687C36.5351 18.6587 36.5759 18.5839 36.6347 18.5441C36.6935 18.5044 36.773 18.4974 36.8731 18.5231C36.9104 18.5326 36.949 18.5566 36.9889 18.595C37.0301 18.6337 37.0677 18.6794 37.1018 18.7321C37.1372 18.785 37.1646 18.8366 37.1837 18.8869C37.2031 18.9357 37.2095 18.9757 37.2031 19.0069C37.197 19.0366 37.1877 19.0781 37.1753 19.1313C37.1642 19.1848 37.1513 19.2441 37.1364 19.3092C37.1216 19.3743 37.1065 19.4401 37.0913 19.5066C37.0779 19.5721 37.0655 19.6315 37.0545 19.685C37.0302 19.8025 36.9869 19.8861 36.9247 19.9359C36.864 19.9846 36.7862 19.9967 36.6915 19.9724ZM36.5953 19.734C36.6754 19.7546 36.7378 19.7448 36.7827 19.7046C36.8289 19.6648 36.8637 19.5884 36.887 19.4754C36.8913 19.4546 36.8978 19.4234 36.9064 19.3817C36.915 19.3401 36.9245 19.294 36.935 19.2435C36.9467 19.1932 36.9579 19.1428 36.9683 19.0923C36.9788 19.0418 36.988 18.9972 36.996 18.9585C37.0042 18.9183 37.0104 18.8886 37.0144 18.8693C37.0208 18.838 37.0188 18.8141 37.0082 18.7973C36.9976 18.7805 36.9763 18.7679 36.9443 18.7598C36.8615 18.7385 36.8032 18.7416 36.7695 18.7689C36.736 18.7948 36.7122 18.8426 36.6976 18.9125L36.6008 19.3808C36.5861 19.4522 36.572 19.5105 36.5584 19.5555C36.5462 19.6009 36.5383 19.6325 36.5346 19.6503C36.5256 19.6934 36.5459 19.7214 36.5953 19.734Z" fill="#2F1A1E"/>
<path d="M39.4335 22.1823L36.326 23.4123L38.5347 21.5243L39.4335 22.1823Z" fill="#5F0E19"/>
<path d="M40.2039 18.5493L39.6902 21.9248L38.7144 21.2383L40.2039 18.5493Z" fill="#5F0E19"/>
<path d="M34.7623 23.1549L33.5985 20.2943L32.2455 20.3819L34.7623 23.1549Z" fill="#5F0E19"/>
<path d="M38.4339 25.2917C39.3292 25.2917 40.0549 24.4833 40.0549 23.4861C40.0549 22.4889 39.3292 21.6805 38.4339 21.6805C37.5387 21.6805 36.813 22.4889 36.813 23.4861C36.813 24.4833 37.5387 25.2917 38.4339 25.2917Z" fill="#EEC184"/>
<path d="M35.5038 25.8473C36.7777 25.8473 37.8105 24.6969 37.8105 23.2778C37.8105 21.8588 36.7777 20.7084 35.5038 20.7084C34.2298 20.7084 33.197 21.8588 33.197 23.2778C33.197 24.6969 34.2298 25.8473 35.5038 25.8473Z" fill="#EEC184"/>
<path d="M32.2618 23.4861C33.157 23.4861 33.8828 22.6777 33.8828 21.6806C33.8828 20.6834 33.157 19.875 32.2618 19.875C31.3666 19.875 30.6409 20.6834 30.6409 21.6806C30.6409 22.6777 31.3666 23.4861 32.2618 23.4861Z" fill="#EEC184"/>
</g>
<defs>
<filter id="filter0_d_247_10992" x="0" y="0" width="74" height="74" filterUnits="userSpaceOnUse" color-interpolation-filters="sRGB">
<feFlood flood-opacity="0" result="BackgroundImageFix"/>
<feColorMatrix in="SourceAlpha" type="matrix" values="0 0 0 0 0 0 0 0 0 0 0 0 0 0 0 0 0 0 127 0" result="hardAlpha"/>
<feOffset dy="4"/>
<feGaussianBlur stdDeviation="2"/>
<feComposite in2="hardAlpha" operator="out"/>
<feColorMatrix type="matrix" values="0 0 0 0 0 0 0 0 0 0 0 0 0 0 0 0 0 0 0.25 0"/>
<feBlend mode="normal" in2="BackgroundImageFix" result="effect1_dropShadow_247_10992"/>
<feBlend mode="normal" in="SourceGraphic" in2="effect1_dropShadow_247_10992" result="shape"/>
</filter>
<filter id="filter1_ii_247_10992" x="4" y="-10" width="66" height="86" filterUnits="userSpaceOnUse" color-interpolation-filters="sRGB">
<feFlood flood-opacity="0" result="BackgroundImageFix"/>
<feBlend mode="normal" in="SourceGraphic" in2="BackgroundImageFix" result="shape"/>
<feColorMatrix in="SourceAlpha" type="matrix" values="0 0 0 0 0 0 0 0 0 0 0 0 0 0 0 0 0 0 127 0" result="hardAlpha"/>
<feMorphology radius="3" operator="erode" in="SourceAlpha" result="effect1_innerShadow_247_10992"/>
<feOffset dy="10"/>
<feGaussianBlur stdDeviation="5"/>
<feComposite in2="hardAlpha" operator="arithmetic" k2="-1" k3="1"/>
<feColorMatrix type="matrix" values="0 0 0 0 0 0 0 0 0 0 0 0 0 0 0 0 0 0 0.25 0"/>
<feBlend mode="normal" in2="shape" result="effect1_innerShadow_247_10992"/>
<feColorMatrix in="SourceAlpha" type="matrix" values="0 0 0 0 0 0 0 0 0 0 0 0 0 0 0 0 0 0 127 0" result="hardAlpha"/>
<feOffset dy="-10"/>
<feGaussianBlur stdDeviation="5"/>
<feComposite in2="hardAlpha" operator="arithmetic" k2="-1" k3="1"/>
<feColorMatrix type="matrix" values="0 0 0 0 0 0 0 0 0 0 0 0 0 0 0 0 0 0 0.25 0"/>
<feBlend mode="normal" in2="effect1_innerShadow_247_10992" result="effect2_innerShadow_247_10992"/>
</filter>
</defs>
</svg>
