<svg width="42" height="42" viewBox="0 0 42 42" fill="none" xmlns="http://www.w3.org/2000/svg">
<circle cx="21" cy="21" r="21" fill="#932121"/>
<path d="M24.7175 18.3701C24.7175 15.8199 22.8962 13.8779 20.9998 13.8779C20.0569 13.878 19.1604 14.3413 18.447 15.2148C17.7228 16.1017 17.282 17.3129 17.282 18.5078C17.282 20.8419 18.9118 22.4999 20.9998 22.5V24.5C17.6862 24.4999 15.282 21.8214 15.282 18.5078C15.2821 15.1942 17.6862 11.8781 20.9998 11.8779C24.3135 11.8779 26.7175 15.0564 26.7175 18.3701L26.7107 18.6787C26.5667 21.8568 24.2101 24.5 20.9998 24.5V22.5C23.0314 22.5 24.7175 20.7655 24.7175 18.3701Z" fill="white"/>
<path d="M21.2754 25.5C24.3159 25.5 26.5068 27.5777 27.8574 29.4062C28.548 30.3413 29.0644 31.2699 29.4072 31.9619C29.5793 32.3093 29.7098 32.6009 29.7979 32.8076C29.8418 32.9109 29.8753 32.9936 29.8984 33.0518C29.91 33.0808 29.9194 33.1036 29.9258 33.1201C29.9289 33.1281 29.9308 33.1348 29.9326 33.1396C29.9336 33.1421 29.9349 33.1448 29.9355 33.1465L29.9365 33.1484V33.1494L28.0635 33.8506V33.8496L28.04 33.791C28.0224 33.7467 27.9954 33.6786 27.958 33.5908C27.883 33.4147 27.7682 33.1593 27.6152 32.8506C27.3079 32.2302 26.8508 31.4085 26.249 30.5938C25.0145 28.9224 23.3426 27.5 21.2754 27.5C19.188 27.5002 17.3764 28.9454 15.9971 30.6328C15.3258 31.454 14.8005 32.2807 14.4424 32.9043C14.2641 33.2148 14.1286 33.472 14.0391 33.6494C13.9944 33.7379 13.9609 33.8066 13.9395 33.8516C13.9287 33.874 13.9208 33.8911 13.916 33.9014C13.9138 33.906 13.912 33.9092 13.9111 33.9111L13.9102 33.9121C13.9026 33.9084 13.8232 33.8725 13 33.5C12.0917 33.0889 12.0887 33.0872 12.0889 33.0869L12.0898 33.0859L12.0908 33.084C12.0915 33.0825 12.0918 33.0803 12.0928 33.0781C12.095 33.0733 12.0988 33.0667 12.1025 33.0586C12.1101 33.0424 12.1202 33.0197 12.1338 32.9912C12.1612 32.9337 12.2012 32.8516 12.2529 32.749C12.3566 32.5437 12.5096 32.2538 12.708 31.9082C13.1035 31.2194 13.6891 30.2959 14.4482 29.3672C15.9296 27.5549 18.2555 25.5002 21.2754 25.5Z" fill="white"/>
<path d="M21.4102 10.5058C22.6162 10.5753 23.6238 11.204 24.4141 11.9609C25.2069 12.7204 25.8585 13.6817 26.3691 14.5879C26.8835 15.5007 27.2782 16.3995 27.543 17.0664C27.6758 17.4009 27.7768 17.6804 27.8457 17.8779C27.8801 17.9765 27.9067 18.0554 27.9248 18.1103C27.9338 18.1377 27.9414 18.1595 27.9463 18.1748C27.9487 18.1824 27.9507 18.1889 27.9521 18.1933C27.9527 18.1952 27.9527 18.1969 27.9531 18.1982L27.9541 18.2002V18.2021L29.0625 21.7471L21.3135 14.6455L12.8018 21.581L14.0615 18.1553L15 18.5C14.0614 18.1549 14.0614 18.1555 14.0615 18.1553V18.1533L14.0625 18.1523C14.063 18.1509 14.0636 18.1487 14.0645 18.1465C14.0662 18.1418 14.0683 18.1349 14.0713 18.1269C14.0773 18.1109 14.0866 18.0884 14.0977 18.0596C14.1199 18.0018 14.1523 17.9192 14.1943 17.8154C14.2785 17.6076 14.4018 17.3135 14.5615 16.9629C14.8799 16.264 15.3485 15.3252 15.9434 14.3867C16.5334 13.4558 17.2761 12.4804 18.1553 11.7422C19.0334 11.0049 20.1363 10.4326 21.4102 10.5058ZM20.6953 12.5693C20.2957 12.6757 19.8778 12.907 19.4414 13.2734C19.0243 13.6236 18.6246 14.067 18.252 14.5596L20.6953 12.5693ZM23.5801 14.0097C23.4024 13.7917 23.2202 13.5872 23.0303 13.4053C22.7864 13.1717 22.5449 12.9853 22.3076 12.8428L23.5801 14.0097Z" fill="white"/>
<path d="M26.9414 8.73535L26.9424 8.73633L26.9463 8.73828C26.9485 8.7396 26.9517 8.74115 26.9551 8.74316C26.9619 8.74725 26.9711 8.75288 26.9824 8.75977C27.0052 8.77368 27.037 8.79354 27.0762 8.81836C27.1543 8.86787 27.2631 8.93881 27.3926 9.02832C27.6499 9.20632 27.9983 9.46404 28.3506 9.7793C28.6988 10.091 29.0779 10.4821 29.376 10.9307C29.6699 11.373 29.9336 11.945 29.9336 12.5967C29.9336 13.2484 29.6699 13.8203 29.376 14.2627C29.0779 14.7112 28.6988 15.1024 28.3506 15.4141C27.9983 15.7293 27.6499 15.987 27.3926 16.165C27.2631 16.2545 27.1543 16.3255 27.0762 16.375C27.037 16.3998 27.0052 16.4197 26.9824 16.4336C26.9711 16.4405 26.9619 16.4461 26.9551 16.4502C26.9517 16.4522 26.9485 16.4538 26.9463 16.4551L26.9434 16.457L26.9424 16.458L26.127 16.9385L24.0312 13.7959L24.9023 13.249L24.9062 13.2471C24.9116 13.2436 24.921 13.2378 24.9336 13.2295C24.9592 13.2126 24.9989 13.1857 25.0479 13.1514C25.1465 13.082 25.2803 12.9828 25.4209 12.8652C25.7394 12.5989 25.9502 12.3529 26.0127 12.2061C26.043 12.1348 26.0723 11.9881 26.0537 11.7422C26.0358 11.5047 25.9786 11.2379 25.8994 10.9727C25.8213 10.7111 25.7293 10.4747 25.6562 10.3027C25.6201 10.2175 25.5892 10.1499 25.5684 10.1055C25.558 10.0834 25.5507 10.0664 25.5459 10.0566L25.541 10.0479L24 7L26.9414 8.73535Z" fill="white"/>
<path d="M15.1408 9.00172L15.1399 9.00278L15.1362 9.00509C15.1341 9.00661 15.1311 9.00845 15.1279 9.01077C15.1215 9.01547 15.1128 9.02195 15.1022 9.02985C15.0808 9.04582 15.0511 9.06856 15.0144 9.09692C14.9412 9.15349 14.8394 9.23426 14.7189 9.33543C14.4792 9.53662 14.1563 9.82567 13.835 10.1724C13.5173 10.5151 13.1763 10.9399 12.9213 11.4142C12.6698 11.882 12.4605 12.4761 12.5212 13.1249C12.5819 13.7738 12.8977 14.3187 13.2315 14.7318C13.5701 15.1506 13.9839 15.5048 14.3597 15.7826C14.7398 16.0637 15.1107 16.2879 15.3835 16.4411C15.5207 16.5182 15.6356 16.5787 15.7181 16.6207C15.7594 16.6418 15.7929 16.6586 15.8169 16.6703C15.8287 16.6761 15.8385 16.6809 15.8456 16.6843C15.8492 16.686 15.8525 16.6873 15.8548 16.6884L15.8579 16.69L15.859 16.6909L16.7156 17.0934L18.5096 13.7693L17.5913 13.3059L17.5873 13.3043C17.5816 13.3014 17.5717 13.2965 17.5584 13.2894C17.5313 13.2749 17.4893 13.2519 17.4374 13.2222C17.3327 13.1623 17.1902 13.076 17.0393 12.9721C16.6973 12.7365 16.4646 12.5112 16.3887 12.3709C16.3519 12.3027 16.3091 12.1594 16.3047 11.9128C16.3004 11.6747 16.3325 11.4037 16.3866 11.1323C16.44 10.8645 16.5097 10.6207 16.5663 10.4426C16.5944 10.3544 16.6189 10.2842 16.6355 10.238C16.6437 10.215 16.6494 10.1975 16.6533 10.1873L16.6573 10.1781L17.9078 7L15.1408 9.00172Z" fill="white"/>
</svg>
