<svg width="62" height="54" viewBox="0 0 62 54" fill="none" xmlns="http://www.w3.org/2000/svg">
<path d="M23.259 19.7234C23.8081 19.1479 24.7229 18.4072 26.0517 18.4784L26.0517 18.4785C27.3804 18.5496 28.2096 19.3835 28.6933 20.0145C29.0992 20.5439 29.4998 21.2501 29.9012 21.9732L34.8688 30.9338L34.8689 30.934C35.0997 31.3504 35.2922 31.6973 35.4648 31.9953C35.6486 31.7039 35.8542 31.3644 36.1006 30.9569L36.1885 30.8116C36.774 29.8433 37.2889 28.9877 37.7901 28.3161C38.3188 27.6077 38.9246 26.9727 39.7628 26.5017L39.763 26.5016C40.6015 26.0306 41.4621 25.842 42.3464 25.7567C43.1848 25.6758 44.1894 25.6781 45.3276 25.6781H47.6052C48.7825 25.6781 49.7368 26.6249 49.7368 27.7929C49.7368 28.9608 48.7825 29.9076 47.6052 29.9076H45.3276C44.1078 29.9076 43.3438 29.9099 42.7588 29.9663C42.2201 30.0183 42.0024 30.1039 41.8635 30.1819L41.8636 30.182C41.7247 30.26 41.5386 30.401 41.2163 30.8328C40.8667 31.3013 40.4716 31.9501 39.8441 32.9876L39.7563 33.1329C39.2283 34.0059 38.7111 34.8721 38.2012 35.4876C37.6799 36.1171 36.7722 36.9732 35.3707 36.9467C33.9698 36.9205 33.0954 36.0318 32.5981 35.3832C32.1119 34.7491 31.6279 33.8643 31.1334 32.9721L26.3379 24.322C26.124 23.9362 25.9464 23.6161 25.7871 23.3411C25.599 23.5975 25.3876 23.8967 25.1332 24.2574L24.329 25.3974L24.3288 25.3976C23.7269 26.2506 23.1961 27.0065 22.6913 27.5988C22.1588 28.2237 21.5635 28.7805 20.7706 29.1901C19.9774 29.6 19.176 29.7645 18.3544 29.839C17.6731 29.9008 16.8769 29.907 15.9854 29.9076H13.5C12.3227 29.9076 11.3684 28.9608 11.3684 27.7929C11.3684 26.6249 12.3228 25.6781 13.5 25.6781H15.5975C16.7233 25.6781 17.4262 25.6761 17.9666 25.6272C18.4639 25.5821 18.669 25.5074 18.8013 25.4391L18.8017 25.4389C18.934 25.3706 19.1132 25.2466 19.4357 24.8682C19.786 24.4571 20.1908 23.887 20.8364 22.9721L21.6406 21.8321L21.6407 21.8318C22.1871 21.0575 22.7322 20.2753 23.259 19.7234Z" fill="#E82A2A"/>
<path d="M30.5526 9.24875L29.0168 10.7279C29.4186 11.1457 29.9731 11.3818 30.5526 11.3818C31.1321 11.3818 31.6866 11.1457 32.0885 10.7279L30.5526 9.24875ZM3.99788 31.7044C4.62007 32.7044 5.93463 33.0104 6.934 32.3878C7.93337 31.7653 8.23912 30.4497 7.61693 29.4497L3.99788 31.7044ZM15.0054 38.4601C14.172 37.6282 12.8224 37.6296 11.9909 38.4638C11.1595 39.2976 11.1611 40.6483 11.9946 41.4801L15.0054 38.4601ZM4.26316 19.5909C4.26316 11.6195 7.83631 6.67343 12.3041 4.97283C16.7839 3.26762 23.0247 4.49813 29.0168 10.7279L32.0885 7.76959C25.2916 0.703181 17.3218 -1.50132 10.7884 0.985561C4.24287 3.47702 0 10.3501 0 19.5909H4.26316ZM40.5074 49.0628C44.7487 45.7168 49.8326 41.231 53.8752 36.219C57.8727 31.263 61.1053 25.4832 61.1053 19.5908H56.8421C56.8421 24.0017 54.3629 28.822 50.5579 33.5397C46.7981 38.201 41.989 42.4616 37.8682 45.7126L40.5074 49.0628ZM61.1053 19.5908C61.1053 10.3501 56.8623 3.47699 50.3169 0.985533C43.7835 -1.50129 35.8137 0.703181 29.0168 7.76959L32.0885 10.7279C38.0805 4.49813 44.3212 3.26762 48.8012 4.97283C53.269 6.6734 56.8421 11.6195 56.8421 19.5908H61.1053ZM20.5979 49.0625C24.2196 51.9196 26.7161 54 30.5526 54V49.734C28.4759 49.734 27.1867 48.8282 23.2372 45.7126L20.5979 49.0625ZM37.8682 45.7126C33.9185 48.8282 32.6294 49.734 30.5526 49.734V54C34.3892 54 36.8857 51.9196 40.5074 49.0628L37.8682 45.7126ZM7.61693 29.4497C5.49672 26.042 4.26316 22.7026 4.26316 19.5909H0C0 23.7998 1.64996 27.9307 3.99788 31.7044L7.61693 29.4497ZM23.2372 45.7126C20.6311 43.6566 17.7374 41.1872 15.0054 38.4601L11.9946 41.4801C14.8741 44.3548 17.9001 46.9344 20.5979 49.0625L23.2372 45.7126Z" fill="#E82A2A"/>
</svg>
